<svg xmlns="http://www.w3.org/2000/svg" xmlns:xlink="http://www.w3.org/1999/xlink" width="500" zoomAndPan="magnify" viewBox="0 0 375 374.999991" height="500" preserveAspectRatio="xMidYMid meet" version="1.0"><defs><g/><clipPath id="f0ebbee9b8"><path d="M 170 136.304688 L 224 136.304688 L 224 174 L 170 174 Z M 170 136.304688 " clip-rule="nonzero"/></clipPath><clipPath id="06f1067f1b"><path d="M 91.289062 214 L 284 214 L 284 227.054688 L 91.289062 227.054688 Z M 91.289062 214 " clip-rule="nonzero"/></clipPath></defs><path fill="#4f9855" d="M 229.035156 167.707031 L 222.820312 167.707031 L 222.820312 161.515625 L 229.035156 161.515625 Z M 222.820312 177.148438 L 222.820312 170.957031 L 229.035156 170.957031 L 229.035156 177.148438 Z M 213.347656 170.957031 L 219.558594 170.957031 L 219.558594 177.148438 L 213.347656 177.148438 Z M 219.558594 161.515625 L 219.558594 167.707031 L 213.347656 167.707031 L 213.347656 161.515625 Z M 219.558594 161.515625 " fill-opacity="1" fill-rule="evenodd"/><g clip-path="url(#f0ebbee9b8)"><path fill="#006c43" d="M 190.320312 173.9375 L 170.597656 151.710938 L 175.152344 145.910156 L 187.296875 143.441406 L 187.296875 139.445312 L 192.25 137.449219 L 192.429688 148.5625 L 195.847656 146.402344 L 195.878906 141.78125 L 223.386719 136.304688 Z M 190.320312 173.9375 " fill-opacity="1" fill-rule="nonzero"/></g><path fill="#4f9855" d="M 132.652344 151.960938 L 164.363281 187.996094 L 200.226562 187.894531 L 173.53125 161.1875 Z M 132.652344 151.960938 " fill-opacity="1" fill-rule="nonzero"/><path fill="#006c43" d="M 129.289062 173.996094 L 133.914062 173.996094 L 133.914062 178.605469 L 129.289062 178.605469 Z M 129.289062 173.996094 " fill-opacity="1" fill-rule="nonzero"/><path fill="#006c43" d="M 129.289062 181.027344 L 133.914062 181.027344 L 133.914062 185.636719 L 129.289062 185.636719 Z M 129.289062 181.027344 " fill-opacity="1" fill-rule="nonzero"/><path fill="#006c43" d="M 136.339844 173.996094 L 140.96875 173.996094 L 140.96875 178.605469 L 136.339844 178.605469 Z M 136.339844 173.996094 " fill-opacity="1" fill-rule="nonzero"/><path fill="#006c43" d="M 136.339844 181.027344 L 140.96875 181.027344 L 140.96875 185.636719 L 136.339844 185.636719 Z M 136.339844 181.027344 " fill-opacity="1" fill-rule="nonzero"/><path fill="#4f9855" d="M 131.222656 153.285156 C 120.996094 164.835938 110.765625 176.394531 100.503906 187.890625 L 105.277344 187.90625 L 133.683594 156.03125 Z M 131.222656 153.285156 " fill-opacity="1" fill-rule="nonzero"/><path fill="#006c43" d="M 225.285156 137.28125 L 222.085938 140.84375 L 265.105469 187.394531 L 271.375 187.347656 C 257.8125 172.390625 237.460938 151.03125 225.285156 137.28125 Z M 225.285156 137.28125 " fill-opacity="1" fill-rule="nonzero"/><path fill="#647b94" d="M 246.75 202.542969 C 246.722656 202.757812 246.695312 202.949219 246.679688 203.105469 C 246.667969 202.976562 246.695312 202.785156 246.75 202.542969 Z M 246.75 202.542969 " fill-opacity="1" fill-rule="evenodd"/><path fill="#647b94" d="M 216.289062 195.882812 C 216.214844 196.214844 216.132812 196.527344 216.046875 196.816406 C 216.097656 196.605469 216.179688 196.277344 216.289062 195.882812 Z M 216.289062 195.882812 " fill-opacity="1" fill-rule="evenodd"/><path fill="#647b94" d="M 184.109375 196.164062 C 184.128906 196.570312 184.117188 197.035156 184.019531 197.296875 C 183.988281 197.132812 183.953125 196.921875 183.910156 196.695312 C 183.976562 196.515625 184.046875 196.339844 184.109375 196.164062 Z M 184.109375 196.164062 " fill-opacity="1" fill-rule="evenodd"/><path fill="#647b94" d="M 193.542969 196.109375 C 193.558594 196.191406 193.574219 196.265625 193.585938 196.324219 C 193.566406 196.277344 193.550781 196.203125 193.542969 196.109375 Z M 193.542969 196.109375 " fill-opacity="1" fill-rule="evenodd"/><path fill="#647b94" d="M 181.4375 197.25 C 181.449219 197.382812 181.457031 197.507812 181.460938 197.625 C 181.453125 197.539062 181.445312 197.410156 181.4375 197.25 Z M 181.4375 197.25 " fill-opacity="1" fill-rule="evenodd"/><path fill="#647b94" d="M 170.707031 200.269531 L 170.703125 200.273438 C 170.710938 200.15625 170.726562 199.980469 170.746094 199.773438 C 170.734375 199.949219 170.722656 200.113281 170.707031 200.269531 Z M 170.707031 200.269531 " fill-opacity="1" fill-rule="evenodd"/><path fill="#647b94" d="M 181.035156 198.660156 C 180.726562 198.699219 180.417969 198.734375 180.109375 198.773438 C 180.210938 197.722656 180.488281 197.035156 180.792969 196.152344 L 180.769531 196.734375 Z M 181.035156 198.660156 " fill-opacity="1" fill-rule="evenodd"/><path fill="#647b94" d="M 123.296875 208.421875 L 123.28125 208.066406 C 123.617188 208.128906 123.800781 208.203125 123.988281 208.277344 C 123.753906 208.328125 123.527344 208.371094 123.296875 208.421875 Z M 123.296875 208.421875 " fill-opacity="1" fill-rule="evenodd"/><path fill="#647b94" d="M 107.273438 212.617188 C 107.195312 212.269531 107.070312 212.628906 106.855469 211.992188 C 107.238281 212.253906 107.457031 212.40625 107.640625 212.5 Z M 107.273438 212.617188 " fill-opacity="1" fill-rule="evenodd"/><path fill="#647b94" d="M 106.085938 213.007812 L 106.050781 212.574219 C 106.589844 212.804688 106.542969 212.972656 106.726562 212.496094 C 106.863281 212.621094 106.902344 212.679688 106.953125 212.71875 C 106.664062 212.816406 106.375 212.910156 106.085938 213.007812 Z M 106.085938 213.007812 " fill-opacity="1" fill-rule="evenodd"/><path fill="#4f9855" d="M 141.269531 205.480469 L 142.792969 205.46875 C 142.503906 205.5 142.214844 205.527344 141.929688 205.558594 C 139.097656 205.851562 136.316406 206.203125 133.585938 206.601562 C 132.324219 206.789062 131.074219 206.988281 129.832031 207.195312 C 128.960938 207.167969 128.773438 207.289062 127.78125 206.996094 C 127.777344 206.988281 127.777344 206.980469 127.773438 206.972656 C 127.800781 206.941406 127.828125 206.902344 127.863281 206.851562 C 128.0625 206.542969 128.011719 206.851562 128.015625 206.621094 C 127.734375 206.378906 127.339844 206.03125 127.117188 205.773438 L 128.75 206.15625 C 128.238281 205.578125 127.4375 205.199219 127.101562 204.480469 C 127.96875 204.722656 128.484375 205.179688 129.328125 205.480469 L 131.21875 205.265625 C 130.890625 204.972656 130.664062 204.976562 130.207031 204.765625 L 129.285156 204.035156 L 130.980469 204.371094 L 130.824219 203.773438 C 130.816406 203.75 130.792969 203.703125 130.785156 203.679688 L 131.179688 202.816406 C 130.164062 202.996094 129.582031 203.210938 128.453125 203.15625 C 128.890625 202.773438 129 202.921875 129.335938 202.371094 C 128.058594 202.742188 127.074219 203.273438 125.863281 202.417969 L 126.035156 202.035156 C 126.46875 202.089844 126.839844 202.128906 127.273438 201.949219 C 127.542969 201.835938 127.554688 201.808594 127.6875 201.71875 C 127.433594 201.644531 127.5625 201.730469 127.289062 201.585938 C 127.257812 201.570312 127.203125 201.542969 127.167969 201.523438 C 127.136719 201.503906 127.089844 201.464844 127.058594 201.445312 C 127.027344 201.425781 126.976562 201.375 126.953125 201.359375 C 126.929688 201.339844 126.882812 201.296875 126.855469 201.265625 C 127.855469 201.222656 128.679688 200.957031 129.398438 200.613281 C 129.355469 200.585938 129.289062 200.503906 129.265625 200.542969 C 129.238281 200.585938 129.105469 200.453125 129 200.394531 L 128.738281 200.234375 C 128.703125 200.214844 128.648438 200.183594 128.605469 200.152344 C 129.53125 199.78125 129.167969 200.046875 129.210938 199.199219 L 127.4375 199.425781 C 127.429688 199.332031 127.445312 199.285156 127.445312 199.300781 C 127.445312 199.3125 127.460938 199.253906 127.460938 199.25 C 127.464844 199.144531 127.480469 199.101562 127.5 199.089844 C 127.480469 199.0625 127.460938 199.027344 127.433594 198.980469 C 126.03125 199.085938 124.792969 199.242188 124.382812 198.035156 C 124.9375 198.089844 125.132812 198.269531 125.867188 198.179688 C 126.558594 198.09375 126.9375 197.960938 127.582031 197.800781 C 127.109375 197.3125 127.195312 197.542969 126.570312 197.332031 C 128.078125 197.019531 127.316406 196.550781 128.21875 196.144531 C 127.472656 196.070312 126.550781 196.652344 125.929688 196.21875 C 125.398438 195.847656 126.078125 196.242188 125.863281 195.859375 C 124.796875 195.570312 123.945312 195.46875 123.902344 194.238281 C 124.324219 194.308594 124.722656 194.46875 125.097656 194.527344 C 126.492188 194.742188 124.617188 194.285156 126.226562 194.300781 C 125.585938 193.398438 125.625 194.144531 126.597656 193.628906 L 123.914062 192.429688 L 124.574219 191.828125 C 122.867188 191.203125 124.59375 191 123.019531 190.832031 C 123.046875 190.652344 123.070312 190.503906 123.082031 190.382812 C 123.171875 189.496094 122.871094 190.078125 122.402344 189.46875 C 122.089844 189.058594 122.613281 188.953125 121.859375 188.28125 C 121.597656 188.828125 121.621094 189.328125 121.429688 189.546875 C 120.988281 190.058594 120.679688 189.625 120.835938 190.382812 C 120.855469 190.496094 120.890625 190.632812 120.933594 190.804688 C 119.441406 191.214844 120.753906 191.195312 119.855469 191.738281 C 119.507812 191.949219 120.089844 191.601562 119.589844 191.863281 C 119.539062 191.890625 119.488281 191.910156 119.441406 191.9375 L 120.046875 192.371094 C 119.851562 192.570312 117.699219 193.707031 117.449219 193.789062 C 117.992188 194.066406 117.914062 193.96875 118 194.222656 L 118.023438 194.328125 C 118.523438 195.09375 118.996094 194.476562 119.671875 194.433594 C 120.941406 194.347656 119.910156 195.761719 117.921875 195.984375 C 118.1875 196.34375 118.277344 196.078125 118.1875 196.40625 C 117.191406 196.601562 116.886719 196.304688 115.960938 196.308594 L 116.425781 197.003906 C 116.652344 197.296875 117.1875 197.425781 117.640625 197.511719 C 116.941406 197.742188 117.085938 197.578125 116.625 198 C 117.488281 198.144531 118.339844 198.40625 119.21875 198.28125 C 119.792969 198.199219 119.417969 197.992188 119.71875 198.1875 C 119.96875 198.566406 119.378906 198.945312 118.789062 199.066406 C 118.09375 199.207031 117.320312 199.1875 116.617188 199.167969 L 116.632812 199.492188 C 116.628906 199.503906 116.628906 199.546875 116.617188 199.574219 C 116.066406 199.617188 115.382812 199.402344 115.074219 199.71875 C 114.714844 200.085938 115.480469 200.332031 115.730469 200.429688 L 114.925781 200.722656 C 115.578125 201.355469 116.433594 201.386719 117.457031 201.457031 L 116.492188 202.046875 C 117.171875 202.160156 117.53125 202.3125 118.1875 202.183594 L 118.363281 202.648438 C 117.300781 203.421875 116.238281 202.886719 115.042969 202.652344 C 115.425781 203.148438 115.34375 202.996094 115.898438 203.34375 C 114.84375 203.511719 114.195312 203.308594 113.207031 203.136719 C 113.238281 203.183594 113.304688 203.179688 113.320312 203.257812 L 113.59375 203.578125 C 113.855469 204.015625 113.320312 203.59375 113.613281 204.515625 C 113.617188 204.535156 113.632812 204.59375 113.652344 204.628906 L 115.175781 204.265625 C 114.578125 205.023438 114.070312 205.035156 113.164062 205.570312 L 114.292969 205.808594 C 114.40625 205.859375 114.484375 205.898438 114.53125 205.925781 L 117.382812 204.609375 C 116.894531 205.773438 116.398438 205.347656 115.898438 206.132812 C 116.347656 206.40625 116.84375 206.074219 117.351562 205.9375 C 116.84375 206.882812 115.703125 206.710938 116.902344 207.105469 C 115.980469 207.523438 115.648438 207.445312 114.605469 207.449219 C 115.054688 207.828125 115.464844 207.894531 115.746094 208.484375 C 116.804688 208.480469 117.445312 208.207031 118.3125 207.921875 L 116.871094 208.792969 C 117.925781 208.800781 118.992188 208.316406 119.863281 208.351562 C 119.871094 208.351562 119.910156 208.363281 119.921875 208.363281 L 120.132812 208.433594 C 120.390625 208.421875 120.863281 208.164062 121.246094 208.117188 L 121.269531 208.851562 C 120.582031 209.003906 119.898438 209.160156 119.21875 209.316406 C 118.703125 209.339844 118.222656 209.40625 117.871094 209.59375 L 118.054688 209.59375 C 115.148438 210.292969 112.324219 211.058594 109.605469 211.886719 L 109.601562 211.886719 C 109.597656 211.882812 109.226562 211.75 109.199219 211.742188 C 108.542969 211.546875 107.492188 211.25 107.105469 210.792969 C 107.714844 211.023438 108.734375 211.113281 109.496094 211.097656 C 109.300781 210.761719 109.3125 210.867188 109.09375 210.652344 C 109.660156 210.640625 109.996094 210.539062 110.414062 210.34375 C 110.199219 210.15625 110.46875 210.242188 109.996094 210.175781 C 109.285156 210.070312 109.039062 210.21875 108.253906 209.957031 L 109 209.960938 L 108.351562 209.582031 L 109.042969 209.277344 C 109.21875 209.164062 109.105469 209.261719 109.242188 209.109375 C 108.746094 208.941406 108.117188 208.734375 107.925781 208.238281 L 108.996094 208.109375 L 108.863281 207.871094 C 108.730469 207.675781 108.535156 207.734375 108.125 207.332031 C 107.628906 206.839844 107.410156 207.007812 106.925781 206.300781 C 107.574219 206.597656 107.5 206.859375 108.574219 206.742188 C 108.386719 206.441406 107.945312 206.308594 107.625 206.085938 C 107.644531 206.078125 107.675781 206.054688 107.683594 206.078125 L 108.253906 205.996094 C 108.132812 205.855469 108.042969 205.8125 107.972656 205.742188 L 107.265625 205.148438 C 106.734375 204.855469 107.09375 205.207031 106.914062 204.796875 C 107.207031 204.890625 107.425781 205.011719 107.800781 204.988281 L 107.363281 204.703125 L 107.6875 204.414062 C 107.699219 204.398438 107.726562 204.371094 107.746094 204.347656 C 107.269531 204.289062 106.910156 203.976562 106.574219 203.757812 C 106.617188 203.761719 106.875 203.800781 106.882812 203.800781 L 107.191406 203.726562 C 106.886719 203.277344 106.789062 202.828125 106.210938 202.792969 L 105.734375 202.757812 C 106.050781 202.640625 106.304688 202.542969 106.742188 202.53125 C 106.527344 202.105469 106.476562 202.457031 106.589844 201.855469 C 106.269531 201.929688 106.21875 201.980469 105.996094 202.113281 L 106.007812 201.710938 C 105.9375 201.238281 105.890625 201.03125 105.546875 200.695312 C 105.203125 201.445312 105.699219 201.105469 105.023438 201.3125 L 105.109375 202 L 104.4375 202.382812 C 104.625 202.554688 104.722656 202.511719 104.984375 202.648438 C 104.585938 202.929688 104.582031 202.808594 104.253906 203.199219 C 104.011719 203.492188 103.957031 203.40625 103.773438 203.710938 L 103.621094 204.011719 L 104.511719 203.871094 C 104.042969 204.140625 104.09375 204.292969 103.433594 204.359375 L 103.765625 204.652344 L 103.347656 205.058594 C 103.699219 205.019531 103.894531 204.910156 104.140625 204.800781 C 103.894531 205.21875 103.839844 205.109375 103.570312 205.425781 L 102.949219 206.125 L 103.601562 206.039062 C 103.320312 206.351562 103.03125 206.476562 102.667969 206.703125 C 102.648438 206.710938 102.617188 206.734375 102.59375 206.75 C 103.113281 207.011719 103.792969 206.71875 104.226562 206.460938 L 102.683594 207.675781 C 102.417969 207.808594 102.265625 207.761719 102.023438 207.910156 C 102.492188 208.246094 102.664062 208.242188 103.289062 208.214844 C 103.144531 208.878906 102.695312 208.824219 102.097656 209.234375 C 102.179688 209.3125 102.128906 209.277344 102.285156 209.363281 C 102.410156 209.433594 102.371094 209.414062 102.503906 209.464844 C 102.808594 209.585938 102.695312 209.574219 103.101562 209.613281 L 102.480469 209.902344 C 102.5 209.898438 102.550781 209.875 102.566406 209.917969 C 102.648438 210.128906 103.089844 209.863281 102.832031 210.101562 C 102.398438 210.503906 101.359375 210.125 100.925781 210.421875 C 101.367188 210.675781 101.691406 210.71875 102.234375 210.703125 L 101.875 211.148438 C 102.550781 211.207031 103.203125 210.949219 103.820312 211.027344 C 104.070312 211.058594 103.9375 211.023438 104.082031 211.109375 L 101.472656 212.042969 C 101.808594 212.371094 102.273438 212.300781 102.769531 212.25 C 102.609375 212.5 102.335938 212.46875 102.222656 212.65625 C 103.335938 212.875 104.210938 212.453125 104.652344 211.871094 C 104.53125 212.152344 104.542969 212.152344 104.355469 212.371094 C 104.035156 212.75 104.054688 212.421875 104.09375 212.84375 C 104.539062 212.875 104.464844 212.53125 104.710938 212.613281 C 104.71875 212.617188 104.742188 212.636719 104.75 212.640625 C 104.757812 212.644531 104.78125 212.671875 104.789062 212.675781 C 105.066406 212.804688 105.003906 212.726562 105.328125 212.566406 L 105.304688 213.269531 C 103.5625 213.863281 101.871094 214.480469 100.226562 215.121094 C 103.429688 214.761719 106.679688 214.425781 109.980469 214.113281 C 118.613281 213.296875 127.578125 212.652344 136.808594 212.199219 C 147.453125 211.671875 158.445312 211.394531 169.695312 211.394531 C 188.449219 211.394531 206.5 212.160156 223.386719 213.578125 C 206.964844 207.847656 186.324219 204.4375 163.902344 204.4375 C 160.496094 204.4375 157.128906 204.515625 153.8125 204.667969 C 152.042969 204.75 150.289062 204.855469 148.546875 204.976562 C 148.457031 204.972656 148.367188 204.960938 148.28125 204.949219 L 148.222656 203.519531 C 148.941406 203.648438 149.113281 203.824219 149.664062 203.988281 C 150.410156 204.214844 149.695312 203.914062 150.460938 203.832031 C 151.429688 203.726562 152.691406 204.335938 153.96875 204.148438 C 153.234375 203.644531 152.871094 203.863281 152.207031 203.257812 L 155.105469 203.855469 C 155.800781 203.367188 155.183594 203.589844 155.820312 203.089844 C 156.277344 202.726562 156.441406 202.757812 156.890625 202.410156 C 155.546875 202.339844 155.363281 202.546875 154 202.144531 C 153.996094 202.132812 153.996094 202.125 153.992188 202.113281 C 154.023438 202.074219 154.0625 202.023438 154.109375 201.957031 C 154.363281 201.5625 154.296875 201.957031 154.304688 201.664062 C 153.9375 201.351562 153.433594 200.902344 153.152344 200.570312 L 155.246094 201.0625 C 154.589844 200.324219 153.558594 199.835938 153.128906 198.914062 C 154.242188 199.222656 154.90625 199.8125 155.984375 200.199219 L 158.414062 199.921875 C 157.992188 199.546875 157.703125 199.550781 157.117188 199.277344 L 155.929688 198.339844 L 158.109375 198.769531 L 157.90625 198.007812 C 157.898438 197.976562 157.867188 197.914062 157.855469 197.882812 L 158.367188 196.777344 C 157.0625 197.007812 156.3125 197.285156 154.859375 197.210938 C 155.425781 196.722656 155.566406 196.910156 155.996094 196.207031 C 154.355469 196.683594 153.09375 197.363281 151.535156 196.265625 L 151.761719 195.773438 C 152.316406 195.84375 152.789062 195.894531 153.351562 195.664062 C 153.695312 195.519531 153.710938 195.480469 153.878906 195.367188 C 153.558594 195.269531 153.71875 195.382812 153.367188 195.199219 C 153.328125 195.175781 153.257812 195.140625 153.214844 195.117188 C 153.175781 195.089844 153.113281 195.042969 153.074219 195.015625 C 153.035156 194.988281 152.96875 194.929688 152.9375 194.902344 C 152.90625 194.882812 152.851562 194.828125 152.808594 194.785156 C 154.097656 194.726562 155.15625 194.390625 156.078125 193.945312 C 156.023438 193.914062 155.9375 193.808594 155.90625 193.855469 C 155.875 193.910156 155.699219 193.746094 155.570312 193.667969 L 155.230469 193.464844 C 155.1875 193.4375 155.117188 193.394531 155.0625 193.355469 C 156.246094 192.878906 155.78125 193.222656 155.839844 192.136719 L 153.5625 192.421875 C 153.550781 192.300781 153.570312 192.246094 153.570312 192.261719 C 153.570312 192.28125 153.589844 192.203125 153.589844 192.195312 C 153.597656 192.0625 153.617188 192.007812 153.636719 191.992188 C 153.617188 191.960938 153.585938 191.914062 153.550781 191.851562 C 151.753906 191.988281 150.164062 192.1875 149.640625 190.636719 C 150.351562 190.707031 150.601562 190.941406 151.546875 190.824219 C 152.429688 190.714844 152.917969 190.542969 153.746094 190.335938 C 153.136719 189.710938 153.246094 190.003906 152.445312 189.738281 C 154.382812 189.335938 153.402344 188.730469 154.566406 188.210938 C 153.601562 188.113281 152.421875 188.863281 151.625 188.304688 C 150.941406 187.828125 151.8125 188.335938 151.535156 187.84375 C 150.167969 187.472656 149.078125 187.34375 149.023438 185.761719 C 149.5625 185.855469 150.074219 186.058594 150.554688 186.132812 C 152.347656 186.40625 149.9375 185.820312 152.007812 185.84375 C 151.183594 184.683594 151.234375 185.644531 152.476562 184.980469 L 149.035156 183.441406 L 149.882812 182.664062 C 147.6875 181.863281 149.90625 181.601562 147.886719 181.386719 C 147.921875 181.15625 147.949219 180.96875 147.964844 180.8125 C 148.078125 179.675781 147.691406 180.421875 147.09375 179.640625 C 146.691406 179.113281 147.359375 178.972656 146.394531 178.113281 C 146.058594 178.816406 146.089844 179.457031 145.84375 179.738281 C 145.277344 180.394531 144.882812 179.839844 145.078125 180.8125 C 145.109375 180.957031 145.148438 181.132812 145.207031 181.351562 C 143.292969 181.878906 144.976562 181.851562 143.824219 182.550781 C 143.375 182.824219 144.121094 182.375 143.480469 182.710938 C 143.417969 182.746094 143.351562 182.773438 143.292969 182.804688 L 144.066406 183.363281 C 143.816406 183.621094 141.054688 185.082031 140.734375 185.1875 C 141.429688 185.539062 141.332031 185.417969 141.4375 185.742188 L 141.46875 185.878906 C 142.109375 186.859375 142.71875 186.070312 143.589844 186.011719 C 145.21875 185.898438 143.894531 187.71875 141.339844 188.003906 C 141.679688 188.464844 141.796875 188.125 141.679688 188.546875 C 140.398438 188.796875 140.007812 188.414062 138.824219 188.421875 L 139.421875 189.3125 C 139.710938 189.691406 140.394531 189.855469 140.976562 189.960938 C 140.082031 190.261719 140.265625 190.046875 139.675781 190.59375 C 140.78125 190.777344 141.875 191.113281 143.003906 190.953125 C 143.746094 190.847656 143.261719 190.582031 143.648438 190.832031 C 143.964844 191.320312 143.210938 191.804688 142.449219 191.960938 C 141.558594 192.140625 140.566406 192.113281 139.664062 192.09375 L 139.683594 192.511719 C 139.679688 192.523438 139.675781 192.582031 139.664062 192.613281 C 138.953125 192.671875 138.078125 192.390625 137.679688 192.796875 C 137.21875 193.269531 138.203125 193.585938 138.523438 193.710938 L 137.488281 194.089844 C 138.332031 194.898438 139.425781 194.941406 140.742188 195.03125 L 139.503906 195.789062 C 140.375 195.933594 140.835938 196.132812 141.679688 195.960938 L 141.902344 196.5625 C 140.542969 197.554688 139.179688 196.867188 137.644531 196.566406 C 138.132812 197.203125 138.03125 197.007812 138.738281 197.453125 C 137.386719 197.667969 136.554688 197.410156 135.285156 197.1875 C 135.328125 197.246094 135.410156 197.242188 135.433594 197.339844 L 135.785156 197.75 C 136.117188 198.316406 135.433594 197.773438 135.804688 198.957031 C 135.8125 198.984375 135.832031 199.058594 135.855469 199.101562 L 137.816406 198.636719 C 137.050781 199.609375 136.394531 199.621094 135.226562 200.3125 L 136.683594 200.617188 C 136.828125 200.683594 136.921875 200.734375 136.984375 200.769531 L 140.644531 199.078125 C 140.019531 200.578125 139.382812 200.027344 138.742188 201.035156 C 139.316406 201.382812 139.957031 200.957031 140.605469 200.785156 C 139.957031 202 138.492188 201.777344 140.03125 202.28125 C 138.84375 202.820312 138.421875 202.71875 137.082031 202.726562 C 137.65625 203.210938 138.183594 203.300781 138.542969 204.054688 C 139.90625 204.046875 140.726562 203.699219 141.839844 203.332031 L 139.992188 204.449219 C 141.347656 204.460938 142.714844 203.839844 143.832031 203.886719 C 143.84375 203.886719 143.894531 203.898438 143.90625 203.898438 L 144.179688 203.988281 C 144.511719 203.976562 145.113281 203.644531 145.609375 203.585938 L 145.65625 205.007812 C 144.3125 205.222656 142.335938 204.914062 141.269531 205.480469 Z M 141.269531 205.480469 " fill-opacity="1" fill-rule="evenodd"/><path fill="#006c43" d="M 174.691406 203.015625 C 201.246094 203.015625 225.304688 207.796875 242.808594 215.546875 C 255.015625 217.015625 266.433594 218.835938 276.847656 220.960938 C 276.542969 220.664062 276.234375 220.371094 275.917969 220.078125 L 277.34375 211.917969 C 276.992188 212.984375 276.703125 213.992188 276.484375 214.804688 C 276.234375 215.726562 275.808594 218.351562 275.515625 218.890625 C 274.777344 217.371094 275.53125 214.484375 275.945312 212.722656 C 276.167969 211.796875 277.667969 207.28125 277.609375 206.96875 C 276.40625 208.179688 275.625 210.351562 274.972656 212.246094 L 273.542969 217.019531 C 273.480469 217.273438 273.429688 217.570312 273.351562 217.855469 C 273.273438 217.789062 273.191406 217.726562 273.113281 217.664062 C 273.367188 214.660156 273.691406 212.726562 274.839844 209.679688 C 276.097656 206.34375 277.878906 203.851562 278.3125 202.738281 C 276.5625 203.339844 274.816406 206.785156 273.8125 209.113281 C 272.636719 211.839844 272.128906 213.941406 271.355469 216.3125 C 271.273438 216.253906 271.191406 216.191406 271.105469 216.128906 C 271.957031 210.949219 274.152344 200.953125 272.273438 198.234375 C 272.128906 202.195312 271.980469 204.375 270.714844 208.148438 C 270.660156 208.320312 270.59375 208.546875 270.523438 208.71875 C 270.488281 208.804688 270.4375 208.921875 270.394531 209 C 270.269531 209.230469 270.292969 209.171875 270.214844 209.269531 C 270.644531 207.082031 270.941406 205.832031 270.5 203.792969 C 270.285156 205.375 270.4375 206.15625 269.503906 207.585938 C 268.898438 208.511719 267.984375 209.324219 267.238281 209.636719 C 267.304688 207.503906 267.882812 205.628906 268.667969 203.730469 C 269.019531 202.875 269.425781 202.074219 269.84375 201.265625 C 270.230469 200.519531 270.820312 199.675781 271.148438 198.976562 C 269.179688 199.867188 267.628906 204.820312 266.683594 206.648438 C 266.867188 205.683594 267.097656 204.796875 267.21875 203.808594 L 267.210938 201.210938 C 266.875 202.828125 266.734375 204.09375 266.183594 205.691406 C 265.910156 206.480469 265.074219 208.644531 264.625 209.132812 C 264.171875 206.410156 265.636719 201.96875 265.871094 199.1875 C 265.035156 200.085938 264.054688 203.75 263.683594 205.179688 C 263.34375 204.015625 264.054688 201.632812 263.363281 199.71875 C 263.226562 201.277344 263.382812 202.335938 262.960938 204.050781 C 262.691406 205.160156 262.097656 206.808594 261.460938 207.632812 C 261.269531 206.714844 262.492188 203.671875 261.558594 202.167969 C 261.476562 203.378906 261.3125 204.054688 260.761719 205.082031 C 260.457031 205.644531 259.765625 206.941406 259.324219 207.25 C 259.132812 206 260.035156 202.40625 260.449219 201.066406 C 260.945312 199.460938 262.191406 196.601562 262.4375 195.6875 C 260.667969 197.089844 259.867188 201.753906 258.8125 203.5625 C 258.917969 202.582031 258.945312 201.628906 258.820312 200.707031 C 258.683594 199.699219 258.3125 199.257812 258.09375 198.519531 C 258.054688 199.007812 258.222656 199.773438 258.222656 200.398438 C 258.214844 201.15625 258.136719 201.9375 257.992188 202.695312 C 257.839844 203.507812 257.292969 206.03125 256.5625 206.664062 C 256.851562 204.949219 257.300781 201.636719 256.664062 200.261719 C 256.292969 201.679688 255.730469 202.910156 255.042969 204.066406 C 254.632812 204.757812 253.988281 205.90625 253.417969 206.636719 C 253.292969 206.585938 253.167969 206.535156 253.042969 206.488281 C 253.5625 200.523438 254.792969 199.777344 255.492188 195.980469 C 253.378906 197.460938 252.300781 203.851562 251.292969 205.820312 L 251.144531 205.765625 L 252.011719 200.046875 C 251.066406 200.910156 250.910156 203.695312 250.210938 204.765625 C 250.667969 201.210938 251.171875 199.21875 250.742188 195.765625 C 250.550781 196.519531 250.539062 197.675781 250.363281 198.566406 C 250.101562 199.898438 249.261719 202.910156 248.445312 204.808594 C 248.125 204.699219 247.804688 204.589844 247.484375 204.484375 C 247.523438 202.351562 248.414062 200.453125 249.035156 198.292969 C 248.207031 198.824219 247.054688 201.292969 246.75 202.542969 C 247.113281 199.953125 248.324219 193.605469 247.996094 192.292969 C 247.089844 196.390625 246.238281 199.832031 245.066406 203.714844 C 245 203.695312 244.929688 203.671875 244.859375 203.648438 C 244.976562 202.574219 245.121094 201.519531 245.1875 200.40625 C 245.238281 199.566406 245.1875 196.828125 245.277344 196.40625 C 244.625 198.53125 244.191406 201.003906 243.542969 203.253906 C 243.238281 203.167969 242.933594 203.082031 242.628906 202.992188 C 242.695312 200.03125 243.820312 196.9375 244.738281 194.238281 L 244.652344 194.296875 L 243.878906 195.183594 C 242.324219 197.335938 241.691406 199.992188 241.074219 202.5625 C 240.84375 202.496094 240.609375 202.4375 240.375 202.375 C 240.488281 201.546875 240.683594 200.710938 240.816406 200.148438 C 240.996094 199.386719 242.011719 196.523438 242.027344 195.921875 L 242 195.738281 C 241.136719 197.164062 240.714844 197.9375 240.097656 199.710938 C 239.988281 200.035156 239.679688 201.101562 239.386719 202.117188 C 239.183594 202.0625 238.980469 202.011719 238.78125 201.960938 C 239.179688 199.617188 240.382812 196.6875 241.199219 195.070312 C 241.621094 194.234375 242.230469 193.351562 242.59375 192.554688 C 241.949219 192.738281 241.585938 193.238281 241.199219 193.746094 C 240.042969 195.257812 239.3125 197.050781 238.601562 198.804688 C 238.792969 196.230469 239.546875 191.035156 238.289062 189.308594 C 238.21875 190.128906 238.324219 191.207031 238.25 192.179688 C 238.035156 195.171875 237.132812 198.082031 236.148438 200.816406 C 236.539062 198.148438 236.800781 197.777344 236.605469 195.050781 C 236.304688 195.570312 236.414062 197.300781 235.535156 198.714844 C 235.039062 199.503906 233.882812 200.605469 233.28125 200.699219 L 233.25 200.695312 C 233.789062 194.976562 235.347656 194.117188 237.132812 190.117188 C 236.777344 190.253906 236.570312 190.539062 236.324219 190.824219 C 234.339844 193.101562 233.875 195.957031 232.765625 197.582031 C 233.019531 195.796875 233.625 193.800781 233.265625 192.089844 C 232.511719 195.570312 232.402344 196.953125 230.710938 200.191406 L 230.65625 200.179688 C 230.191406 198.203125 231.632812 192.503906 231.917969 190.246094 C 231.019531 191.421875 230.496094 194 229.871094 195.566406 C 229.664062 194.25 229.820312 192.847656 229.570312 191.515625 L 229.386719 190.960938 C 229.257812 192.550781 229.34375 193.648438 228.9375 195.320312 C 228.671875 196.402344 228.09375 198.105469 227.433594 198.753906 C 227.648438 197.617188 227.882812 196.652344 227.921875 195.484375 C 227.960938 194.363281 227.960938 194.203125 227.574219 193.171875 C 227.457031 195.304688 226.949219 195.105469 226.023438 196.742188 L 225.542969 197.570312 C 225.324219 197.875 225.484375 197.667969 225.34375 197.800781 C 225.503906 195.71875 225.964844 193.773438 226.582031 191.804688 C 227.128906 190.070312 228.054688 188.21875 228.5 186.746094 C 226.984375 188.304688 225.632812 192.113281 224.953125 194.574219 L 224.933594 193.207031 C 224.941406 192.109375 224.785156 190.457031 224.105469 189.703125 C 224.160156 191.40625 224.367188 192.1875 223.960938 194.101562 C 223.714844 195.261719 223.191406 197.199219 222.554688 198.011719 C 222.757812 196.304688 223.445312 192.777344 222.6875 191.4375 C 222.28125 192.726562 221.863281 193.769531 221.203125 194.933594 L 220.753906 195.65625 C 220.605469 195.824219 220.664062 195.761719 220.511719 195.867188 L 220.339844 195.125 C 220.226562 196.492188 220.390625 196.679688 219.074219 198.199219 C 218.480469 196.175781 220.992188 189.429688 221.5 187.121094 C 220.683594 187.492188 219.964844 189.355469 219.539062 190.378906 C 219.222656 191.144531 219.015625 191.304688 218.601562 191.984375 L 217.710938 193.585938 C 217.707031 193.566406 217.671875 193.640625 217.636719 193.664062 L 217.980469 191.160156 C 217.527344 191.675781 216.71875 194.308594 216.285156 195.882812 C 216.742188 193.847656 216.960938 191.15625 216.96875 189.234375 C 216.972656 188.535156 217.015625 187.644531 216.730469 187.058594 C 216.488281 189.070312 216.273438 190.488281 215.675781 192.417969 L 215.042969 194.140625 C 214.976562 194.355469 214.929688 194.550781 214.847656 194.777344 C 214.683594 195.226562 214.167969 196.496094 213.929688 196.828125 L 213.539062 195.148438 C 213.453125 193.605469 214.671875 190.820312 215.078125 189.386719 C 214.386719 189.804688 213.460938 191.609375 213.007812 193.007812 L 212.773438 194.359375 C 212.769531 193.164062 212.65625 191.847656 212.207031 191.175781 C 212.175781 191.359375 212.207031 193.4375 212.070312 194.542969 C 211.933594 195.667969 211.660156 196.890625 211.109375 197.742188 C 211.109375 195.9375 211.355469 194.121094 211.496094 192.300781 C 211.273438 193.023438 210.972656 193.828125 210.746094 194.621094 C 210.496094 195.503906 210.378906 196.398438 210.148438 197.253906 C 210.160156 197.195312 210.308594 193.882812 210.335938 193.484375 C 210.429688 192.042969 210.601562 190.792969 210.8125 189.359375 C 210.355469 190.0625 209.703125 194.460938 209.457031 195.617188 C 209.421875 194.746094 209.554688 193.476562 209.109375 192.726562 C 209.070312 192.65625 209.078125 192.671875 209.035156 192.617188 C 209.011719 194.140625 209.117188 196.027344 208.285156 197.3125 C 207.972656 196.667969 208.125 193.578125 208.246094 192.621094 C 208.328125 192 208.503906 191.484375 208.601562 190.910156 C 207.683594 192.277344 207.40625 194.789062 207.09375 196.527344 C 207.09375 196.234375 207.132812 195.667969 207.164062 195.066406 C 207.207031 194.234375 207.226562 193.339844 207.082031 193.042969 C 206.929688 193.28125 206.824219 194.410156 206.746094 194.804688 C 206.65625 195.289062 206.589844 195.960938 206.414062 196.417969 C 206.410156 196.433594 206.402344 196.445312 206.398438 196.460938 L 206.351562 196.539062 C 206.296875 196.214844 206.386719 195.269531 206.398438 194.863281 C 206.425781 193.800781 206.542969 190.765625 205.902344 190.152344 C 205.851562 191.671875 205.796875 195.546875 205.140625 196.789062 C 204.585938 195.183594 204.453125 193.933594 204.4375 192.25 C 203.601562 193.382812 203.609375 194.863281 203.222656 196.042969 C 203.121094 194.789062 203.109375 193.457031 203.507812 192.207031 C 203.652344 191.753906 203.851562 191.441406 203.996094 191.058594 C 203.152344 191.53125 203.035156 192.851562 202.632812 193.480469 C 202.503906 193.109375 202.71875 190.359375 202.25 188.902344 L 202.117188 188.640625 C 202.109375 189.71875 202.242188 190.53125 202.195312 191.984375 C 202.164062 192.859375 201.996094 194.917969 201.632812 195.644531 L 201.5 195.328125 C 201.464844 195.183594 201.441406 195.085938 201.398438 194.9375 C 201.328125 194.667969 201.277344 194.394531 201.246094 194.121094 C 201.164062 193.488281 201.140625 192.886719 201.441406 192.300781 C 200.628906 193.136719 200.636719 194.273438 200.394531 195.496094 C 200.007812 194.578125 200.210938 192.828125 200.484375 191.820312 C 200.589844 191.433594 200.796875 190.980469 200.863281 190.640625 L 200.441406 191.320312 L 199.925781 194.496094 C 199.808594 194.050781 199.691406 193.496094 199.375 193.089844 C 199.507812 193.683594 199.695312 194.058594 199.742188 194.742188 C 199.765625 195.058594 199.761719 195.496094 199.707031 195.859375 L 199.691406 195.941406 C 199.671875 196.058594 199.644531 196.164062 199.613281 196.253906 C 199.433594 195.933594 199.523438 194.660156 198.996094 194.210938 C 199.113281 194.671875 199.128906 194.941406 199.046875 195.390625 C 199.003906 195.632812 198.902344 196.195312 198.773438 196.363281 C 198.554688 195.921875 198.460938 194.480469 198.453125 193.933594 C 198.445312 193.28125 198.566406 192.070312 198.550781 191.703125 C 198.058594 192.429688 198.316406 194.257812 198.144531 195.054688 C 198.066406 194.679688 197.960938 194.320312 197.804688 193.996094 C 197.632812 193.636719 197.445312 193.515625 197.273438 193.269531 C 197.316406 193.453125 197.472656 193.71875 197.546875 193.949219 C 197.632812 194.230469 197.699219 194.53125 197.734375 194.828125 C 197.777344 195.148438 197.875 196.152344 197.679688 196.472656 C 197.582031 195.804688 197.351562 194.519531 196.949219 194.085938 C 196.984375 194.65625 196.921875 195.179688 196.804688 195.691406 C 196.714844 196.074219 196.578125 196.773438 196.40625 197.058594 C 195.804688 194.578125 196.207031 194.175781 196.003906 192.632812 C 195.355469 193.492188 195.816406 196.292969 195.585938 196.941406 L 195.199219 194.554688 C 194.949219 194.988281 195.226562 196.042969 195.09375 196.523438 C 194.839844 195.148438 194.789062 194.351562 194.214844 193.117188 C 194.234375 193.421875 194.367188 193.851562 194.410156 194.203125 C 194.492188 194.90625 194.550781 196.851562 194.316406 197.371094 C 193.742188 196.367188 193.917969 195.363281 193.882812 194.257812 C 193.640625 194.554688 193.503906 195.609375 193.542969 196.109375 C 193.367188 195.105469 193.058594 192.601562 192.78125 192.15625 C 192.949219 193.925781 193.046875 195.402344 193.066406 197.164062 C 192.933594 196.605469 192.851562 196.0625 192.707031 195.5 C 192.625 195.183594 192.28125 194.171875 192.265625 194.003906 C 192.277344 195.152344 192.507812 196.484375 192.421875 197.617188 C 191.710938 196.363281 191.78125 194.675781 191.804688 193.265625 L 191.78125 193.292969 L 191.597656 193.714844 C 191.183594 194.980469 191.441406 196.378906 191.496094 197.660156 C 191.167969 197.371094 191.09375 196.402344 191.054688 195.921875 C 191.027344 195.617188 191.0625 194.4375 191 194.210938 L 190.964844 194.144531 C 190.816406 194.777344 190.75 195.113281 190.734375 195.847656 C 190.730469 196.109375 190.792969 197.574219 190.757812 197.667969 C 190.3125 196.875 190.441406 194.941406 190.589844 193.992188 C 190.644531 193.632812 190.765625 193.230469 190.804688 192.894531 C 190.589844 193.035156 190.515625 193.265625 190.429688 193.5 C 190.179688 194.199219 190.125 194.953125 190.070312 195.6875 C 189.832031 194.707031 189.492188 192.6875 188.820312 192.199219 C 188.890625 192.511719 189.058594 192.898438 189.148438 193.265625 C 189.425781 194.40625 189.4375 195.59375 189.398438 196.722656 C 189.226562 195.6875 189.277344 195.519531 188.878906 194.53125 C 188.832031 194.757812 189.078125 195.386719 188.921875 196.015625 C 188.832031 196.375 188.523438 196.933594 188.3125 197.027344 C 187.824219 194.835938 188.300781 194.332031 188.488281 192.632812 C 188.371094 192.726562 188.328125 192.859375 188.269531 192.992188 C 187.804688 194.074219 187.976562 195.191406 187.757812 195.925781 C 187.636719 195.234375 187.625 194.417969 187.285156 193.828125 C 187.425781 195.21875 187.550781 195.742188 187.300781 197.164062 C 186.878906 196.519531 186.730469 194.183594 186.566406 193.300781 C 186.371094 193.847656 186.488281 194.863281 186.441406 195.519531 C 186.207031 195.054688 186.097656 194.515625 185.84375 194.050781 L 185.710938 193.867188 C 185.851562 194.472656 186.015625 194.871094 186.066406 195.539062 C 186.097656 195.972656 186.085938 196.675781 185.917969 196.992188 C 185.863281 196.546875 185.832031 196.160156 185.707031 195.722656 C 185.589844 195.300781 185.570312 195.238281 185.304688 194.902344 C 185.515625 195.710938 185.300781 195.695312 185.152344 196.414062 L 185.074219 196.777344 C 185.027344 196.917969 185.0625 196.820312 185.027344 196.886719 C 184.839844 196.09375 184.777344 195.320312 184.773438 194.515625 C 184.765625 193.804688 184.890625 193.007812 184.878906 192.410156 C 184.503906 193.167969 184.453125 194.742188 184.496094 195.738281 L 184.324219 195.230469 C 184.199219 194.824219 183.941406 194.226562 183.601562 194.027344 C 183.824219 194.652344 183.992188 194.917969 184.070312 195.675781 L 184.078125 195.75 C 183.964844 195.851562 183.875 195.980469 183.796875 196.113281 C 183.679688 195.582031 183.523438 195.0625 183.28125 194.839844 C 183.28125 195.367188 183.253906 195.804688 183.148438 196.3125 L 183.066406 196.636719 C 183.03125 196.714844 183.046875 196.683594 183.003906 196.742188 L 182.851562 196.488281 C 182.96875 197.007812 183.054688 197.058594 182.746094 197.777344 C 182.6875 197.695312 182.640625 197.578125 182.601562 197.4375 C 182.554688 196.976562 182.496094 196.507812 182.414062 196.066406 C 182.355469 195.054688 182.375 193.90625 182.324219 193.378906 C 182.089844 193.589844 182.03125 194.242188 181.996094 194.6875 C 181.914062 194.53125 181.824219 194.398438 181.722656 194.296875 C 181.746094 194.59375 181.824219 194.945312 181.890625 195.300781 C 181.871094 195.363281 181.851562 195.4375 181.828125 195.527344 L 181.691406 196.226562 C 181.6875 196.21875 181.679688 196.253906 181.671875 196.265625 L 181.5 195.296875 C 181.394531 195.542969 181.410156 196.613281 181.4375 197.25 C 181.378906 196.644531 181.230469 195.914062 181.0625 195.285156 C 181.105469 195.140625 181.148438 194.988281 181.1875 194.828125 C 181.105469 194.878906 181.042969 194.945312 180.988281 195.015625 C 180.957031 194.90625 180.925781 194.800781 180.894531 194.699219 C 180.8125 194.441406 180.722656 194.105469 180.546875 193.921875 C 180.652344 194.464844 180.726562 194.898438 180.765625 195.378906 C 180.078125 196.582031 180.007812 197.894531 179.703125 198.828125 L 179.570312 198.84375 C 179.566406 197.960938 179.640625 196.996094 179.332031 196.222656 C 179.285156 197.371094 179.292969 198.09375 179.175781 198.894531 C 178.9375 198.925781 178.695312 198.960938 178.453125 198.992188 C 178.410156 197.707031 178.492188 196.152344 178.453125 195.375 C 178.085938 196.078125 178.050781 197.480469 177.863281 198.363281 C 177.636719 197.6875 177.585938 196.9375 177.332031 196.257812 L 177.1875 195.980469 C 177.265625 196.832031 177.414062 197.402344 177.351562 198.320312 C 177.335938 198.5625 177.300781 198.867188 177.246094 199.167969 L 176.886719 199.21875 C 176.882812 198.984375 176.867188 198.75 176.832031 198.5 C 176.75 197.90625 176.734375 197.820312 176.4375 197.316406 C 176.570312 198.449219 176.285156 198.390625 175.949219 199.335938 L 175.9375 199.363281 L 175.648438 199.410156 C 175.605469 198.492188 175.667969 197.597656 175.789062 196.683594 C 175.914062 195.722656 176.230469 194.664062 176.332031 193.847656 C 175.675781 194.804688 175.316406 196.933594 175.183594 198.292969 L 175.046875 197.574219 C 174.953125 196.996094 174.71875 196.140625 174.289062 195.804688 C 174.476562 196.699219 174.65625 197.089844 174.617188 198.132812 C 174.605469 198.53125 174.558594 199.105469 174.464844 199.597656 L 174.210938 199.640625 C 174.179688 198.660156 174.117188 197.351562 173.703125 196.847656 C 173.605469 197.5625 173.484375 198.152344 173.246094 198.824219 L 173.074219 199.246094 C 173.011719 199.347656 173.035156 199.308594 172.964844 199.378906 L 172.808594 199.003906 C 172.84375 199.410156 172.890625 199.617188 172.832031 199.878906 C 172.640625 199.910156 172.449219 199.945312 172.261719 199.980469 C 172.152344 198.480469 172.636719 195.722656 172.679688 194.683594 C 172.285156 194.953125 172.078125 196 171.949219 196.578125 C 171.851562 197.007812 171.757812 197.113281 171.601562 197.507812 L 171.28125 198.433594 C 171.277344 198.421875 171.265625 198.464844 171.25 198.480469 L 171.199219 197.132812 C 171.007812 197.445312 170.824219 198.90625 170.742188 199.773438 C 170.796875 198.660156 170.664062 197.222656 170.488281 196.210938 C 170.425781 195.839844 170.367188 195.371094 170.164062 195.085938 C 170.21875 196.167969 170.238281 196.933594 170.101562 198.003906 L 169.925781 198.96875 C 169.910156 199.089844 169.90625 199.195312 169.882812 199.324219 C 169.839844 199.574219 169.683594 200.289062 169.589844 200.484375 L 169.230469 199.636719 C 169.039062 198.832031 169.425781 197.253906 169.507812 196.464844 C 169.101562 196.816406 168.703125 198.335938 168.714844 199.070312 C 168.628906 198.070312 168.679688 197.027344 168.632812 196.015625 C 168.582031 195.019531 168.46875 194.085938 168.390625 193.144531 C 168.347656 194.171875 168.371094 195.152344 168.289062 196.1875 C 168.25 196.65625 168.222656 197.222656 168.152344 197.675781 C 168.09375 198.042969 167.832031 198.382812 167.761719 198.738281 C 167.621094 197.980469 167.617188 196.523438 167.339844 195.9375 C 167.261719 196.75 167.238281 197.574219 167.15625 198.390625 C 167.113281 198.855469 166.996094 200.410156 166.863281 200.738281 C 166.859375 200.59375 166.898438 200.367188 166.796875 200.261719 C 166.539062 199.992188 166.546875 199.449219 166.515625 199.089844 C 166.433594 198.078125 166.503906 197.046875 166.644531 196.042969 C 166.703125 195.636719 166.851562 195.054688 166.859375 194.695312 C 165.679688 196.792969 165.804688 198.375 165.613281 200.660156 C 165.269531 199.867188 165.269531 199.269531 165.339844 198.261719 C 165.394531 197.421875 165.5625 196.613281 165.621094 195.8125 C 165.351562 196.011719 165.257812 196.5 165.175781 196.8125 C 164.90625 197.839844 164.78125 199.980469 164.601562 200.492188 C 164.160156 199.390625 164.714844 196.664062 165.085938 195.445312 C 165.242188 194.945312 165.46875 194.464844 165.585938 194.03125 C 164.71875 194.375 164.460938 196.476562 164.136719 197.230469 L 164.003906 196.21875 C 163.9375 197.890625 163.996094 197.796875 163.785156 199.542969 C 163.734375 199.957031 163.707031 201.015625 163.636719 201.820312 L 163.375 201.882812 C 163.320312 201.0625 163.195312 199.726562 163.015625 199.15625 L 162.972656 199.054688 C 162.96875 199.023438 162.957031 199.015625 162.945312 199 C 162.910156 199.480469 162.851562 200.945312 162.730469 202.046875 C 162.523438 202.097656 162.320312 202.152344 162.117188 202.203125 C 162.058594 201.617188 162.082031 201.007812 162.117188 200.445312 C 162.183594 199.488281 162.40625 198.566406 162.472656 197.707031 C 161.683594 198.742188 161.371094 200.710938 161.273438 202.425781 C 161.160156 202.457031 161.042969 202.488281 160.925781 202.519531 C 160.824219 201.3125 161.046875 199.851562 161.253906 198.785156 C 160.65625 199.140625 160.539062 201.300781 160.386719 202.664062 L 160.117188 202.738281 C 160.054688 201.816406 160.109375 200.976562 160.308594 199.992188 C 160.625 198.457031 160.902344 198.128906 161.199219 197.035156 C 160.324219 197.554688 159.820312 199.832031 159.597656 201.148438 C 159.492188 201.765625 159.414062 202.363281 159.359375 202.953125 C 158.429688 203.214844 157.511719 203.488281 156.601562 203.769531 C 162.460938 203.273438 168.511719 203.015625 174.691406 203.015625 Z M 174.691406 203.015625 " fill-opacity="1" fill-rule="evenodd"/><path fill="#006c43" d="M 159.15625 187.984375 L 135.023438 160.511719 L 110.886719 187.984375 L 108.175781 187.984375 L 120.128906 174.378906 L 135.023438 157.429688 L 149.914062 174.378906 L 161.863281 187.984375 Z M 159.15625 187.984375 " fill-opacity="1" fill-rule="evenodd"/><path fill="#4f9855" d="M 191.585938 175.375 L 193.390625 177.371094 L 220.847656 146.121094 L 258.320312 187.441406 L 261.863281 187.417969 L 220.847656 142.066406 Z M 191.585938 175.375 " fill-opacity="1" fill-rule="evenodd"/><g clip-path="url(#06f1067f1b)"><path fill="#006c43" d="M 154.101562 220.140625 C 208.835938 220.140625 256.867188 222.902344 283.972656 227.058594 C 258.5625 219.691406 219.261719 214.96875 175.152344 214.96875 C 143.667969 214.96875 114.636719 217.375 91.355469 221.429688 C 110.507812 220.601562 131.746094 220.140625 154.101562 220.140625 Z M 154.101562 220.140625 " fill-opacity="1" fill-rule="evenodd"/></g><g fill="#006c43" fill-opacity="1"><g transform="translate(95.415239, 252.710856)"><g><path d="M 11.1875 -19.390625 C 12.351562 -19.390625 13.359375 -19.25 14.203125 -18.96875 C 15.054688 -18.6875 15.875 -18.328125 16.65625 -17.890625 C 16.84375 -17.765625 17.015625 -17.664062 17.171875 -17.59375 C 17.335938 -17.519531 17.476562 -17.484375 17.59375 -17.484375 C 17.71875 -17.484375 17.875 -17.535156 18.0625 -17.640625 C 18.257812 -17.753906 18.382812 -17.828125 18.4375 -17.859375 L 18.734375 -17.640625 L 15.59375 -13.1875 L 15.234375 -13.34375 C 15.328125 -13.601562 15.375 -13.867188 15.375 -14.140625 C 15.375 -14.691406 15.003906 -15.191406 14.265625 -15.640625 C 13.523438 -16.097656 12.5 -16.328125 11.1875 -16.328125 C 9.34375 -16.328125 7.898438 -15.722656 6.859375 -14.515625 C 5.828125 -13.316406 5.3125 -11.660156 5.3125 -9.546875 C 5.3125 -8.234375 5.5 -7.144531 5.875 -6.28125 C 6.257812 -5.414062 6.753906 -4.726562 7.359375 -4.21875 C 7.960938 -3.71875 8.625 -3.363281 9.34375 -3.15625 C 10.0625 -2.945312 10.773438 -2.84375 11.484375 -2.84375 C 12.765625 -2.84375 13.816406 -3.21875 14.640625 -3.96875 L 14.640625 -7.0625 L 11.8125 -7.0625 C 11.394531 -7.0625 11.109375 -7 10.953125 -6.875 C 10.796875 -6.757812 10.691406 -6.492188 10.640625 -6.078125 L 10.125 -6.078125 L 10.125 -11 L 10.640625 -11.046875 C 10.710938 -10.628906 10.941406 -10.320312 11.328125 -10.125 C 11.722656 -9.9375 12.34375 -9.84375 13.1875 -9.84375 L 19.234375 -9.84375 L 19.234375 -9.328125 C 18.828125 -9.328125 18.566406 -9.257812 18.453125 -9.125 C 18.347656 -8.988281 18.296875 -8.703125 18.296875 -8.265625 L 18.296875 -4.265625 C 18.296875 -3.878906 18.316406 -3.628906 18.359375 -3.515625 C 18.410156 -3.410156 18.546875 -3.332031 18.765625 -3.28125 L 18.765625 -2.984375 C 17.890625 -1.960938 16.769531 -1.171875 15.40625 -0.609375 C 14.050781 -0.0546875 12.617188 0.21875 11.109375 0.21875 C 9.753906 0.21875 8.5 -0.015625 7.34375 -0.484375 C 6.1875 -0.960938 5.1875 -1.625 4.34375 -2.46875 C 3.507812 -3.320312 2.851562 -4.332031 2.375 -5.5 C 1.90625 -6.664062 1.671875 -7.941406 1.671875 -9.328125 C 1.671875 -10.734375 1.898438 -12.050781 2.359375 -13.28125 C 2.828125 -14.507812 3.476562 -15.578125 4.3125 -16.484375 C 5.15625 -17.398438 6.160156 -18.113281 7.328125 -18.625 C 8.492188 -19.132812 9.78125 -19.390625 11.1875 -19.390625 Z M 11.1875 -19.390625 "/></g></g></g><g fill="#006c43" fill-opacity="1"><g transform="translate(115.675827, 252.710856)"><g><path d="M 9.296875 -8.75 C 10.609375 -8.75 11.546875 -8.921875 12.109375 -9.265625 C 12.679688 -9.617188 12.96875 -10.257812 12.96875 -11.1875 C 12.96875 -12.039062 12.710938 -12.660156 12.203125 -13.046875 C 11.691406 -13.429688 10.742188 -13.625 9.359375 -13.625 L 6.046875 -13.625 L 6.046875 -8.75 Z M 10.53125 -16.03125 C 12.300781 -16.03125 13.660156 -15.601562 14.609375 -14.75 C 15.554688 -13.90625 16.03125 -12.691406 16.03125 -11.109375 C 16.03125 -10.554688 15.921875 -10.023438 15.703125 -9.515625 C 15.484375 -9.003906 15.191406 -8.546875 14.828125 -8.140625 C 14.460938 -7.742188 14.035156 -7.410156 13.546875 -7.140625 C 13.066406 -6.867188 12.5625 -6.710938 12.03125 -6.671875 L 15.265625 -1.234375 C 15.429688 -0.972656 15.566406 -0.796875 15.671875 -0.703125 C 15.785156 -0.617188 15.90625 -0.554688 16.03125 -0.515625 L 16.03125 0 L 11.65625 0 L 11.65625 -0.515625 C 11.925781 -0.515625 12.0625 -0.609375 12.0625 -0.796875 C 12.0625 -0.898438 12.039062 -1.007812 12 -1.125 C 11.96875 -1.25 11.890625 -1.410156 11.765625 -1.609375 L 8.921875 -6.34375 L 6.046875 -6.34375 L 6.046875 -1.453125 C 6.046875 -1.191406 6.097656 -0.96875 6.203125 -0.78125 C 6.316406 -0.601562 6.484375 -0.515625 6.703125 -0.515625 L 6.703125 0 L 2.1875 0 L 2.1875 -0.515625 C 2.40625 -0.515625 2.566406 -0.601562 2.671875 -0.78125 C 2.785156 -0.96875 2.84375 -1.191406 2.84375 -1.453125 L 2.84375 -14.578125 C 2.84375 -15.203125 2.625 -15.515625 2.1875 -15.515625 L 2.1875 -16.03125 Z M 10.53125 -16.03125 "/></g></g></g><g fill="#006c43" fill-opacity="1"><g transform="translate(133.895775, 252.710856)"><g><path d="M 14.28125 -12.53125 L 13.765625 -12.53125 C 13.722656 -12.894531 13.625 -13.144531 13.46875 -13.28125 C 13.3125 -13.414062 13.097656 -13.484375 12.828125 -13.484375 L 6.046875 -13.484375 L 6.046875 -9.546875 L 10.125 -9.546875 C 10.414062 -9.546875 10.632812 -9.59375 10.78125 -9.6875 C 10.925781 -9.789062 11.023438 -10.007812 11.078125 -10.34375 L 11.59375 -10.34375 L 11.59375 -6.1875 L 11.078125 -6.1875 C 11.023438 -6.53125 10.921875 -6.75 10.765625 -6.84375 C 10.609375 -6.945312 10.394531 -7 10.125 -7 L 6.046875 -7 L 6.046875 -2.546875 L 12.859375 -2.546875 C 13.078125 -2.546875 13.269531 -2.609375 13.4375 -2.734375 C 13.613281 -2.859375 13.722656 -3.101562 13.765625 -3.46875 L 14.28125 -3.46875 L 14.28125 0.65625 L 13.765625 0.65625 C 13.703125 0.363281 13.582031 0.179688 13.40625 0.109375 C 13.238281 0.0351562 13.019531 0 12.75 0 L 2.1875 0 L 2.1875 -0.515625 C 2.625 -0.515625 2.84375 -0.828125 2.84375 -1.453125 L 2.84375 -14.609375 C 2.84375 -15.210938 2.625 -15.515625 2.1875 -15.515625 L 2.1875 -16.03125 L 12.796875 -16.03125 C 13.054688 -16.03125 13.265625 -16.070312 13.421875 -16.15625 C 13.585938 -16.238281 13.703125 -16.414062 13.765625 -16.6875 L 14.28125 -16.6875 Z M 14.28125 -12.53125 "/></g></g></g><g fill="#006c43" fill-opacity="1"><g transform="translate(150.075083, 252.710856)"><g><path d="M 14.28125 -12.53125 L 13.765625 -12.53125 C 13.722656 -12.894531 13.625 -13.144531 13.46875 -13.28125 C 13.3125 -13.414062 13.097656 -13.484375 12.828125 -13.484375 L 6.046875 -13.484375 L 6.046875 -9.546875 L 10.125 -9.546875 C 10.414062 -9.546875 10.632812 -9.59375 10.78125 -9.6875 C 10.925781 -9.789062 11.023438 -10.007812 11.078125 -10.34375 L 11.59375 -10.34375 L 11.59375 -6.1875 L 11.078125 -6.1875 C 11.023438 -6.53125 10.921875 -6.75 10.765625 -6.84375 C 10.609375 -6.945312 10.394531 -7 10.125 -7 L 6.046875 -7 L 6.046875 -2.546875 L 12.859375 -2.546875 C 13.078125 -2.546875 13.269531 -2.609375 13.4375 -2.734375 C 13.613281 -2.859375 13.722656 -3.101562 13.765625 -3.46875 L 14.28125 -3.46875 L 14.28125 0.65625 L 13.765625 0.65625 C 13.703125 0.363281 13.582031 0.179688 13.40625 0.109375 C 13.238281 0.0351562 13.019531 0 12.75 0 L 2.1875 0 L 2.1875 -0.515625 C 2.625 -0.515625 2.84375 -0.828125 2.84375 -1.453125 L 2.84375 -14.609375 C 2.84375 -15.210938 2.625 -15.515625 2.1875 -15.515625 L 2.1875 -16.03125 L 12.796875 -16.03125 C 13.054688 -16.03125 13.265625 -16.070312 13.421875 -16.15625 C 13.585938 -16.238281 13.703125 -16.414062 13.765625 -16.6875 L 14.28125 -16.6875 Z M 14.28125 -12.53125 "/></g></g></g><g fill="#006c43" fill-opacity="1"><g transform="translate(166.254391, 252.710856)"><g><path d="M 7.171875 -16.03125 L 7.171875 -15.515625 C 7.003906 -15.472656 6.878906 -15.414062 6.796875 -15.34375 C 6.710938 -15.269531 6.671875 -15.144531 6.671875 -14.96875 C 6.671875 -14.800781 6.769531 -14.554688 6.96875 -14.234375 C 7.175781 -13.921875 7.378906 -13.597656 7.578125 -13.265625 L 12.71875 -5.09375 L 12.796875 -5.09375 L 12.796875 -14.578125 C 12.796875 -15.203125 12.550781 -15.515625 12.0625 -15.515625 L 12.0625 -16.03125 L 16.359375 -16.03125 L 16.359375 -15.515625 C 15.867188 -15.515625 15.625 -15.203125 15.625 -14.578125 L 15.625 -1.421875 C 15.625 -0.816406 15.867188 -0.515625 16.359375 -0.515625 L 16.359375 0 L 11.765625 0 L 11.765625 -0.515625 C 11.890625 -0.535156 11.984375 -0.585938 12.046875 -0.671875 C 12.109375 -0.753906 12.140625 -0.832031 12.140625 -0.90625 C 12.140625 -1.007812 12.109375 -1.125 12.046875 -1.25 C 11.984375 -1.382812 11.851562 -1.597656 11.65625 -1.890625 L 5.578125 -11.1875 L 5.5 -11.1875 L 5.5 -1.5 C 5.5 -0.84375 5.765625 -0.515625 6.296875 -0.515625 L 6.296875 0 L 1.859375 0 L 1.859375 -0.515625 C 2.390625 -0.515625 2.65625 -0.828125 2.65625 -1.453125 L 2.65625 -14.578125 C 2.65625 -15.203125 2.390625 -15.515625 1.859375 -15.515625 L 1.859375 -16.03125 Z M 7.171875 -16.03125 "/></g></g></g><g fill="#006c43" fill-opacity="1"><g transform="translate(184.474339, 252.710856)"><g><path d="M 5.796875 -19.171875 L 5.796875 -18.65625 C 5.472656 -18.601562 5.265625 -18.519531 5.171875 -18.40625 C 5.078125 -18.300781 5.03125 -18.175781 5.03125 -18.03125 C 5.03125 -17.738281 5.648438 -15.8125 6.890625 -12.25 C 7.515625 -10.445312 8.019531 -8.9375 8.40625 -7.71875 C 8.800781 -6.507812 9.097656 -5.585938 9.296875 -4.953125 L 9.359375 -4.953125 C 9.410156 -5.078125 9.597656 -5.671875 9.921875 -6.734375 C 10.253906 -7.804688 10.757812 -9.398438 11.4375 -11.515625 C 12.800781 -15.742188 13.484375 -17.96875 13.484375 -18.1875 C 13.484375 -18.28125 13.425781 -18.363281 13.3125 -18.4375 C 13.207031 -18.507812 12.984375 -18.582031 12.640625 -18.65625 L 12.640625 -19.171875 L 17.5625 -19.171875 L 17.5625 -18.65625 C 17.320312 -18.5625 17.140625 -18.441406 17.015625 -18.296875 C 16.890625 -18.148438 16.753906 -17.84375 16.609375 -17.375 L 14.03125 -9.625 C 13.207031 -7.113281 12.566406 -5.125 12.109375 -3.65625 C 11.660156 -2.1875 11.4375 -1.320312 11.4375 -1.0625 C 11.4375 -0.914062 11.503906 -0.785156 11.640625 -0.671875 C 11.773438 -0.566406 11.976562 -0.515625 12.25 -0.515625 L 12.25 0 L 6.1875 0 L 6.1875 -0.515625 C 6.457031 -0.515625 6.671875 -0.570312 6.828125 -0.6875 C 6.984375 -0.8125 7.0625 -0.9375 7.0625 -1.0625 C 7.0625 -1.175781 6.925781 -1.625 6.65625 -2.40625 C 6.394531 -3.1875 6.070312 -4.117188 5.6875 -5.203125 L 3.3125 -11.921875 C 2.875 -13.148438 2.507812 -14.21875 2.21875 -15.125 C 1.925781 -16.039062 1.695312 -16.769531 1.53125 -17.3125 C 1.289062 -18.132812 1 -18.582031 0.65625 -18.65625 L 0.65625 -19.171875 Z M 5.796875 -19.171875 "/></g></g></g><g fill="#006c43" fill-opacity="1"><g transform="translate(202.694287, 252.710856)"><g><path d="M 5.6875 -6.34375 L 9.84375 -6.34375 L 7.875 -13.625 L 7.796875 -13.625 Z M 10.171875 -16.03125 L 10.171875 -15.515625 C 9.992188 -15.398438 9.90625 -15.269531 9.90625 -15.125 C 9.90625 -15 10.007812 -14.648438 10.21875 -14.078125 C 10.425781 -13.515625 10.710938 -12.695312 11.078125 -11.625 C 11.441406 -10.550781 11.8125 -9.492188 12.1875 -8.453125 C 12.5625 -7.410156 12.957031 -6.289062 13.375 -5.09375 C 13.78125 -3.90625 14.109375 -2.957031 14.359375 -2.25 C 14.617188 -1.550781 14.773438 -1.140625 14.828125 -1.015625 C 14.972656 -0.703125 15.164062 -0.535156 15.40625 -0.515625 L 15.40625 0 L 11.046875 0 L 11.046875 -0.515625 C 11.335938 -0.660156 11.484375 -0.851562 11.484375 -1.09375 C 11.484375 -1.3125 11.320312 -1.832031 11 -2.65625 C 10.957031 -2.800781 10.851562 -3.066406 10.6875 -3.453125 C 10.53125 -3.847656 10.441406 -4.128906 10.421875 -4.296875 L 5.09375 -4.296875 C 5.070312 -4.203125 5.007812 -4.015625 4.90625 -3.734375 C 4.8125 -3.453125 4.71875 -3.179688 4.625 -2.921875 C 4.289062 -2.015625 4.125 -1.414062 4.125 -1.125 C 4.125 -0.789062 4.21875 -0.585938 4.40625 -0.515625 L 4.40625 0 L 0.765625 0 L 0.765625 -0.515625 C 0.890625 -0.554688 0.988281 -0.644531 1.0625 -0.78125 C 1.132812 -0.914062 1.242188 -1.203125 1.390625 -1.640625 L 4.015625 -9.1875 C 4.617188 -10.9375 5.085938 -12.316406 5.421875 -13.328125 C 5.765625 -14.347656 5.9375 -14.921875 5.9375 -15.046875 C 5.9375 -15.210938 5.835938 -15.367188 5.640625 -15.515625 L 5.640625 -16.03125 Z M 10.171875 -16.03125 "/></g></g></g><g fill="#006c43" fill-opacity="1"><g transform="translate(218.873595, 252.710856)"><g><path d="M 6.671875 -16.03125 L 6.671875 -15.515625 C 6.109375 -15.515625 5.828125 -15.203125 5.828125 -14.578125 L 5.828125 -2.546875 L 12.203125 -2.546875 C 12.472656 -2.546875 12.6875 -2.613281 12.84375 -2.75 C 13 -2.882812 13.101562 -3.125 13.15625 -3.46875 L 13.671875 -3.46875 L 13.671875 0.65625 L 13.15625 0.65625 C 13.082031 0.382812 12.96875 0.207031 12.8125 0.125 C 12.65625 0.0390625 12.441406 0 12.171875 0 L 1.671875 0 L 1.671875 -0.515625 C 2.304688 -0.515625 2.625 -0.828125 2.625 -1.453125 L 2.625 -14.578125 C 2.625 -15.203125 2.304688 -15.515625 1.671875 -15.515625 L 1.671875 -16.03125 Z M 6.671875 -16.03125 "/></g></g></g><g fill="#006c43" fill-opacity="1"><g transform="translate(233.048716, 252.710856)"><g><path d="M 6.671875 -16.03125 L 6.671875 -15.515625 C 6.109375 -15.515625 5.828125 -15.203125 5.828125 -14.578125 L 5.828125 -2.546875 L 12.203125 -2.546875 C 12.472656 -2.546875 12.6875 -2.613281 12.84375 -2.75 C 13 -2.882812 13.101562 -3.125 13.15625 -3.46875 L 13.671875 -3.46875 L 13.671875 0.65625 L 13.15625 0.65625 C 13.082031 0.382812 12.96875 0.207031 12.8125 0.125 C 12.65625 0.0390625 12.441406 0 12.171875 0 L 1.671875 0 L 1.671875 -0.515625 C 2.304688 -0.515625 2.625 -0.828125 2.625 -1.453125 L 2.625 -14.578125 C 2.625 -15.203125 2.304688 -15.515625 1.671875 -15.515625 L 1.671875 -16.03125 Z M 6.671875 -16.03125 "/></g></g></g><g fill="#006c43" fill-opacity="1"><g transform="translate(247.223837, 252.710856)"><g><path d="M 14.28125 -12.53125 L 13.765625 -12.53125 C 13.722656 -12.894531 13.625 -13.144531 13.46875 -13.28125 C 13.3125 -13.414062 13.097656 -13.484375 12.828125 -13.484375 L 6.046875 -13.484375 L 6.046875 -9.546875 L 10.125 -9.546875 C 10.414062 -9.546875 10.632812 -9.59375 10.78125 -9.6875 C 10.925781 -9.789062 11.023438 -10.007812 11.078125 -10.34375 L 11.59375 -10.34375 L 11.59375 -6.1875 L 11.078125 -6.1875 C 11.023438 -6.53125 10.921875 -6.75 10.765625 -6.84375 C 10.609375 -6.945312 10.394531 -7 10.125 -7 L 6.046875 -7 L 6.046875 -2.546875 L 12.859375 -2.546875 C 13.078125 -2.546875 13.269531 -2.609375 13.4375 -2.734375 C 13.613281 -2.859375 13.722656 -3.101562 13.765625 -3.46875 L 14.28125 -3.46875 L 14.28125 0.65625 L 13.765625 0.65625 C 13.703125 0.363281 13.582031 0.179688 13.40625 0.109375 C 13.238281 0.0351562 13.019531 0 12.75 0 L 2.1875 0 L 2.1875 -0.515625 C 2.625 -0.515625 2.84375 -0.828125 2.84375 -1.453125 L 2.84375 -14.609375 C 2.84375 -15.210938 2.625 -15.515625 2.1875 -15.515625 L 2.1875 -16.03125 L 12.796875 -16.03125 C 13.054688 -16.03125 13.265625 -16.070312 13.421875 -16.15625 C 13.585938 -16.238281 13.703125 -16.414062 13.765625 -16.6875 L 14.28125 -16.6875 Z M 14.28125 -12.53125 "/></g></g></g><g fill="#006c43" fill-opacity="1"><g transform="translate(263.403145, 252.710856)"><g><path d="M 5.9375 -16.03125 L 5.9375 -15.515625 C 5.8125 -15.492188 5.691406 -15.453125 5.578125 -15.390625 C 5.472656 -15.328125 5.421875 -15.238281 5.421875 -15.125 C 5.421875 -14.925781 5.582031 -14.546875 5.90625 -13.984375 C 6.238281 -13.429688 6.632812 -12.757812 7.09375 -11.96875 C 7.5625 -11.175781 7.976562 -10.46875 8.34375 -9.84375 C 8.90625 -10.863281 9.40625 -11.769531 9.84375 -12.5625 C 10.28125 -13.363281 10.582031 -13.925781 10.75 -14.25 C 10.988281 -14.707031 11.109375 -15.035156 11.109375 -15.234375 C 11.109375 -15.378906 10.941406 -15.472656 10.609375 -15.515625 L 10.609375 -16.03125 L 15.125 -16.03125 L 15.125 -15.515625 C 14.78125 -15.492188 14.519531 -15.40625 14.34375 -15.25 C 14.175781 -15.09375 13.925781 -14.695312 13.59375 -14.0625 L 9.875 -7.578125 L 9.875 -1.421875 C 9.875 -1.128906 9.925781 -0.90625 10.03125 -0.75 C 10.144531 -0.59375 10.238281 -0.515625 10.3125 -0.515625 L 10.3125 0 L 6.078125 0 L 6.078125 -0.515625 C 6.472656 -0.515625 6.671875 -0.816406 6.671875 -1.421875 L 6.671875 -7.5 L 2.546875 -14.390625 C 2.253906 -14.898438 2.023438 -15.207031 1.859375 -15.3125 C 1.691406 -15.425781 1.425781 -15.492188 1.0625 -15.515625 L 1.0625 -16.03125 Z M 5.9375 -16.03125 "/></g></g></g><g fill="#006c43" fill-opacity="1"><g transform="translate(91.419511, 263.849807)"><g><path d="M 2.125 0 L 2.625 -2.515625 L 0.96875 -7 L 2.625 -7 L 3.171875 -5.375 L 3.609375 -4.109375 L 4.5625 -5.375 L 5.765625 -7 L 7.703125 -7 L 4.203125 -2.421875 L 3.703125 0 Z M 2.125 0 "/></g></g></g><g fill="#006c43" fill-opacity="1"><g transform="translate(98.336778, 263.849807)"><g><path d="M 2.9375 0.140625 C 2.332031 0.140625 1.820312 0.0195312 1.40625 -0.21875 C 0.988281 -0.46875 0.691406 -0.8125 0.515625 -1.25 C 0.335938 -1.6875 0.300781 -2.1875 0.40625 -2.75 C 0.507812 -3.28125 0.71875 -3.742188 1.03125 -4.140625 C 1.34375 -4.535156 1.734375 -4.84375 2.203125 -5.0625 C 2.671875 -5.28125 3.179688 -5.390625 3.734375 -5.390625 C 4.335938 -5.390625 4.847656 -5.265625 5.265625 -5.015625 C 5.679688 -4.773438 5.976562 -4.4375 6.15625 -4 C 6.34375 -3.5625 6.378906 -3.066406 6.265625 -2.515625 C 6.160156 -1.984375 5.953125 -1.515625 5.640625 -1.109375 C 5.328125 -0.710938 4.9375 -0.40625 4.46875 -0.1875 C 4 0.03125 3.488281 0.140625 2.9375 0.140625 Z M 1.90625 -2.59375 C 1.820312 -2.1875 1.882812 -1.847656 2.09375 -1.578125 C 2.300781 -1.304688 2.609375 -1.171875 3.015625 -1.171875 C 3.304688 -1.171875 3.570312 -1.234375 3.8125 -1.359375 C 4.0625 -1.492188 4.269531 -1.671875 4.4375 -1.890625 C 4.601562 -2.117188 4.710938 -2.375 4.765625 -2.65625 C 4.847656 -3.070312 4.785156 -3.414062 4.578125 -3.6875 C 4.367188 -3.957031 4.0625 -4.09375 3.65625 -4.09375 C 3.375 -4.09375 3.109375 -4.023438 2.859375 -3.890625 C 2.609375 -3.765625 2.398438 -3.585938 2.234375 -3.359375 C 2.066406 -3.140625 1.957031 -2.882812 1.90625 -2.59375 Z M 1.90625 -2.59375 "/></g></g></g><g fill="#006c43" fill-opacity="1"><g transform="translate(105.004151, 263.849807)"><g><path d="M 2.40625 0.140625 C 1.9375 0.140625 1.550781 0.0390625 1.25 -0.15625 C 0.945312 -0.363281 0.738281 -0.648438 0.625 -1.015625 C 0.507812 -1.378906 0.5 -1.804688 0.59375 -2.296875 L 1.1875 -5.25 L 2.734375 -5.25 L 2.15625 -2.375 C 2.082031 -1.988281 2.109375 -1.691406 2.234375 -1.484375 C 2.359375 -1.273438 2.578125 -1.171875 2.890625 -1.171875 C 3.242188 -1.171875 3.546875 -1.289062 3.796875 -1.53125 C 4.054688 -1.78125 4.226562 -2.113281 4.3125 -2.53125 L 4.859375 -5.25 L 6.40625 -5.25 L 5.359375 0 L 4.25 0 L 4.203125 -0.546875 C 3.960938 -0.316406 3.6875 -0.144531 3.375 -0.03125 C 3.0625 0.0820312 2.738281 0.140625 2.40625 0.140625 Z M 2.40625 0.140625 "/></g></g></g><g fill="#006c43" fill-opacity="1"><g transform="translate(111.651531, 263.849807)"><g><path d="M 0.234375 0 L 1.296875 -5.25 L 2.40625 -5.25 L 2.453125 -4.578125 C 2.679688 -4.828125 2.925781 -5 3.1875 -5.09375 C 3.457031 -5.195312 3.785156 -5.25 4.171875 -5.25 L 4.78125 -5.25 L 4.515625 -3.875 L 3.953125 -3.875 C 3.515625 -3.875 3.144531 -3.753906 2.84375 -3.515625 C 2.550781 -3.273438 2.347656 -2.867188 2.234375 -2.296875 L 1.765625 0 Z M 0.234375 0 "/></g></g></g><g fill="#006c43" fill-opacity="1"><g transform="translate(116.249721, 263.849807)"><g/></g></g><g fill="#006c43" fill-opacity="1"><g transform="translate(118.598793, 263.849807)"><g><path d="M 1.984375 0 L 3.078125 -5.515625 L 0.875 -5.515625 L 1.1875 -7 L 7.203125 -7 L 6.90625 -5.515625 L 4.703125 -5.515625 L 3.59375 0 Z M 1.984375 0 "/></g></g></g><g fill="#006c43" fill-opacity="1"><g transform="translate(125.22618, 263.849807)"><g><path d="M 0.234375 0 L 1.296875 -5.25 L 2.40625 -5.25 L 2.453125 -4.578125 C 2.679688 -4.828125 2.925781 -5 3.1875 -5.09375 C 3.457031 -5.195312 3.785156 -5.25 4.171875 -5.25 L 4.78125 -5.25 L 4.515625 -3.875 L 3.953125 -3.875 C 3.515625 -3.875 3.144531 -3.753906 2.84375 -3.515625 C 2.550781 -3.273438 2.347656 -2.867188 2.234375 -2.296875 L 1.765625 0 Z M 0.234375 0 "/></g></g></g><g fill="#006c43" fill-opacity="1"><g transform="translate(129.82437, 263.849807)"><g><path d="M 2.40625 0.140625 C 1.9375 0.140625 1.550781 0.0390625 1.25 -0.15625 C 0.945312 -0.363281 0.738281 -0.648438 0.625 -1.015625 C 0.507812 -1.378906 0.5 -1.804688 0.59375 -2.296875 L 1.1875 -5.25 L 2.734375 -5.25 L 2.15625 -2.375 C 2.082031 -1.988281 2.109375 -1.691406 2.234375 -1.484375 C 2.359375 -1.273438 2.578125 -1.171875 2.890625 -1.171875 C 3.242188 -1.171875 3.546875 -1.289062 3.796875 -1.53125 C 4.054688 -1.78125 4.226562 -2.113281 4.3125 -2.53125 L 4.859375 -5.25 L 6.40625 -5.25 L 5.359375 0 L 4.25 0 L 4.203125 -0.546875 C 3.960938 -0.316406 3.6875 -0.144531 3.375 -0.03125 C 3.0625 0.0820312 2.738281 0.140625 2.40625 0.140625 Z M 2.40625 0.140625 "/></g></g></g><g fill="#006c43" fill-opacity="1"><g transform="translate(136.471751, 263.849807)"><g><path d="M 2.34375 0.140625 C 1.582031 0.140625 1.007812 -0.0195312 0.625 -0.34375 C 0.238281 -0.675781 0.0976562 -1.125 0.203125 -1.6875 L 1.703125 -1.6875 C 1.628906 -1.21875 1.878906 -0.984375 2.453125 -0.984375 C 2.703125 -0.984375 2.90625 -1.03125 3.0625 -1.125 C 3.21875 -1.21875 3.3125 -1.335938 3.34375 -1.484375 C 3.375 -1.660156 3.3125 -1.800781 3.15625 -1.90625 C 3.007812 -2.007812 2.753906 -2.09375 2.390625 -2.15625 C 1.742188 -2.257812 1.28125 -2.457031 1 -2.75 C 0.71875 -3.050781 0.625 -3.425781 0.71875 -3.875 C 0.820312 -4.351562 1.082031 -4.722656 1.5 -4.984375 C 1.914062 -5.253906 2.460938 -5.390625 3.140625 -5.390625 C 3.867188 -5.390625 4.410156 -5.238281 4.765625 -4.9375 C 5.128906 -4.632812 5.273438 -4.207031 5.203125 -3.65625 L 3.734375 -3.65625 C 3.785156 -4.082031 3.546875 -4.296875 3.015625 -4.296875 C 2.535156 -4.296875 2.265625 -4.132812 2.203125 -3.8125 C 2.171875 -3.644531 2.222656 -3.507812 2.359375 -3.40625 C 2.503906 -3.3125 2.757812 -3.234375 3.125 -3.171875 C 3.78125 -3.054688 4.253906 -2.84375 4.546875 -2.53125 C 4.835938 -2.21875 4.9375 -1.832031 4.84375 -1.375 C 4.738281 -0.894531 4.46875 -0.519531 4.03125 -0.25 C 3.59375 0.0078125 3.03125 0.140625 2.34375 0.140625 Z M 2.34375 0.140625 "/></g></g></g><g fill="#006c43" fill-opacity="1"><g transform="translate(141.949591, 263.849807)"><g><path d="M 2.8125 0 C 2.144531 0 1.660156 -0.179688 1.359375 -0.546875 C 1.054688 -0.910156 0.96875 -1.410156 1.09375 -2.046875 L 1.484375 -4.015625 L 0.484375 -4.015625 L 0.734375 -5.25 L 1.171875 -5.25 C 1.453125 -5.25 1.65625 -5.296875 1.78125 -5.390625 C 1.914062 -5.492188 2.023438 -5.679688 2.109375 -5.953125 L 2.34375 -6.609375 L 3.5625 -6.609375 L 3.296875 -5.25 L 4.703125 -5.25 L 4.453125 -4.015625 L 3.03125 -4.015625 L 2.671875 -2.203125 C 2.609375 -1.898438 2.628906 -1.675781 2.734375 -1.53125 C 2.835938 -1.382812 3.039062 -1.3125 3.34375 -1.3125 L 3.984375 -1.3125 L 3.71875 0 Z M 2.8125 0 "/></g></g></g><g fill="#006c43" fill-opacity="1"><g transform="translate(146.61775, 263.849807)"><g><path d="M 2.78125 0.140625 C 2.207031 0.140625 1.722656 0.0195312 1.328125 -0.21875 C 0.929688 -0.46875 0.648438 -0.804688 0.484375 -1.234375 C 0.316406 -1.660156 0.289062 -2.15625 0.40625 -2.71875 C 0.507812 -3.25 0.71875 -3.710938 1.03125 -4.109375 C 1.34375 -4.515625 1.726562 -4.828125 2.1875 -5.046875 C 2.644531 -5.273438 3.148438 -5.390625 3.703125 -5.390625 C 4.304688 -5.390625 4.804688 -5.25 5.203125 -4.96875 C 5.597656 -4.695312 5.867188 -4.320312 6.015625 -3.84375 C 6.160156 -3.363281 6.160156 -2.8125 6.015625 -2.1875 L 1.8125 -2.1875 C 1.800781 -1.84375 1.894531 -1.570312 2.09375 -1.375 C 2.289062 -1.175781 2.566406 -1.078125 2.921875 -1.078125 C 3.453125 -1.078125 3.890625 -1.269531 4.234375 -1.65625 L 5.84375 -1.65625 C 5.519531 -1.082031 5.085938 -0.640625 4.546875 -0.328125 C 4.003906 -0.015625 3.414062 0.140625 2.78125 0.140625 Z M 2.046875 -3.15625 L 4.734375 -3.15625 C 4.710938 -3.488281 4.601562 -3.742188 4.40625 -3.921875 C 4.21875 -4.097656 3.953125 -4.1875 3.609375 -4.1875 C 3.265625 -4.1875 2.953125 -4.09375 2.671875 -3.90625 C 2.398438 -3.71875 2.191406 -3.46875 2.046875 -3.15625 Z M 2.046875 -3.15625 "/></g></g></g><g fill="#006c43" fill-opacity="1"><g transform="translate(153.105188, 263.849807)"><g><path d="M 2.6875 0.140625 C 2.132812 0.140625 1.664062 0.0195312 1.28125 -0.21875 C 0.90625 -0.46875 0.640625 -0.8125 0.484375 -1.25 C 0.328125 -1.6875 0.300781 -2.191406 0.40625 -2.765625 C 0.507812 -3.285156 0.707031 -3.742188 1 -4.140625 C 1.289062 -4.535156 1.648438 -4.84375 2.078125 -5.0625 C 2.503906 -5.28125 2.972656 -5.390625 3.484375 -5.390625 C 3.835938 -5.390625 4.15625 -5.332031 4.4375 -5.21875 C 4.726562 -5.113281 4.972656 -4.960938 5.171875 -4.765625 L 5.6875 -7.40625 L 7.25 -7.40625 L 5.765625 0 L 4.65625 0 L 4.625 -0.546875 C 4.363281 -0.328125 4.066406 -0.15625 3.734375 -0.03125 C 3.410156 0.0820312 3.0625 0.140625 2.6875 0.140625 Z M 1.90625 -2.59375 C 1.832031 -2.1875 1.898438 -1.847656 2.109375 -1.578125 C 2.316406 -1.304688 2.625 -1.171875 3.03125 -1.171875 C 3.3125 -1.171875 3.570312 -1.234375 3.8125 -1.359375 C 4.0625 -1.492188 4.269531 -1.671875 4.4375 -1.890625 C 4.601562 -2.117188 4.710938 -2.375 4.765625 -2.65625 C 4.847656 -3.070312 4.785156 -3.414062 4.578125 -3.6875 C 4.367188 -3.957031 4.0625 -4.09375 3.65625 -4.09375 C 3.375 -4.09375 3.109375 -4.023438 2.859375 -3.890625 C 2.617188 -3.765625 2.414062 -3.585938 2.25 -3.359375 C 2.082031 -3.140625 1.96875 -2.882812 1.90625 -2.59375 Z M 1.90625 -2.59375 "/></g></g></g><g fill="#006c43" fill-opacity="1"><g transform="translate(160.152402, 263.849807)"><g/></g></g><g fill="#006c43" fill-opacity="1"><g transform="translate(162.501473, 263.849807)"><g><path d="M 0.3125 0 L 1.71875 -7 L 3.34375 -7 L 2.234375 -1.484375 L 5.265625 -1.484375 L 4.96875 0 Z M 0.3125 0 "/></g></g></g><g fill="#006c43" fill-opacity="1"><g transform="translate(168.269192, 263.849807)"><g><path d="M 2.0625 0.09375 C 1.414062 0.09375 0.929688 -0.0625 0.609375 -0.375 C 0.296875 -0.6875 0.191406 -1.109375 0.296875 -1.640625 C 0.390625 -2.109375 0.613281 -2.472656 0.96875 -2.734375 C 1.332031 -2.992188 1.789062 -3.125 2.34375 -3.125 L 4.28125 -3.125 L 4.328125 -3.375 C 4.378906 -3.644531 4.332031 -3.851562 4.1875 -4 C 4.039062 -4.15625 3.820312 -4.234375 3.53125 -4.234375 C 3.28125 -4.234375 3.054688 -4.175781 2.859375 -4.0625 C 2.660156 -3.957031 2.523438 -3.804688 2.453125 -3.609375 L 0.953125 -3.609375 C 1.128906 -4.171875 1.457031 -4.609375 1.9375 -4.921875 C 2.414062 -5.234375 2.988281 -5.390625 3.65625 -5.390625 C 4.175781 -5.390625 4.609375 -5.289062 4.953125 -5.09375 C 5.304688 -4.90625 5.550781 -4.640625 5.6875 -4.296875 C 5.832031 -3.960938 5.859375 -3.5625 5.765625 -3.09375 L 5.15625 0 L 4.03125 0 L 3.984375 -0.5625 C 3.460938 -0.125 2.820312 0.09375 2.0625 0.09375 Z M 1.796875 -1.59375 C 1.753906 -1.40625 1.789062 -1.253906 1.90625 -1.140625 C 2.03125 -1.035156 2.222656 -0.984375 2.484375 -0.984375 C 2.867188 -0.984375 3.210938 -1.09375 3.515625 -1.3125 C 3.816406 -1.539062 4.007812 -1.832031 4.09375 -2.1875 L 2.703125 -2.1875 C 2.171875 -2.1875 1.867188 -1.988281 1.796875 -1.59375 Z M 1.796875 -1.59375 "/></g></g></g><g fill="#006c43" fill-opacity="1"><g transform="translate(174.606689, 263.849807)"><g><path d="M 0.234375 0 L 1.296875 -5.25 L 2.40625 -5.25 L 2.453125 -4.703125 C 2.691406 -4.929688 2.96875 -5.101562 3.28125 -5.21875 C 3.59375 -5.332031 3.921875 -5.390625 4.265625 -5.390625 C 4.722656 -5.390625 5.101562 -5.285156 5.40625 -5.078125 C 5.71875 -4.878906 5.929688 -4.597656 6.046875 -4.234375 C 6.160156 -3.867188 6.164062 -3.441406 6.0625 -2.953125 L 5.484375 0 L 3.9375 0 L 4.5 -2.875 C 4.582031 -3.269531 4.554688 -3.570312 4.421875 -3.78125 C 4.296875 -3.988281 4.078125 -4.09375 3.765625 -4.09375 C 3.410156 -4.09375 3.101562 -3.96875 2.84375 -3.71875 C 2.582031 -3.46875 2.410156 -3.140625 2.328125 -2.734375 L 1.796875 0 Z M 0.234375 0 "/></g></g></g><g fill="#006c43" fill-opacity="1"><g transform="translate(181.26406, 263.849807)"><g><path d="M 2.6875 0.140625 C 2.132812 0.140625 1.664062 0.0195312 1.28125 -0.21875 C 0.90625 -0.46875 0.640625 -0.8125 0.484375 -1.25 C 0.328125 -1.6875 0.300781 -2.191406 0.40625 -2.765625 C 0.507812 -3.285156 0.707031 -3.742188 1 -4.140625 C 1.289062 -4.535156 1.648438 -4.84375 2.078125 -5.0625 C 2.503906 -5.28125 2.972656 -5.390625 3.484375 -5.390625 C 3.835938 -5.390625 4.15625 -5.332031 4.4375 -5.21875 C 4.726562 -5.113281 4.972656 -4.960938 5.171875 -4.765625 L 5.6875 -7.40625 L 7.25 -7.40625 L 5.765625 0 L 4.65625 0 L 4.625 -0.546875 C 4.363281 -0.328125 4.066406 -0.15625 3.734375 -0.03125 C 3.410156 0.0820312 3.0625 0.140625 2.6875 0.140625 Z M 1.90625 -2.59375 C 1.832031 -2.1875 1.898438 -1.847656 2.109375 -1.578125 C 2.316406 -1.304688 2.625 -1.171875 3.03125 -1.171875 C 3.3125 -1.171875 3.570312 -1.234375 3.8125 -1.359375 C 4.0625 -1.492188 4.269531 -1.671875 4.4375 -1.890625 C 4.601562 -2.117188 4.710938 -2.375 4.765625 -2.65625 C 4.847656 -3.070312 4.785156 -3.414062 4.578125 -3.6875 C 4.367188 -3.957031 4.0625 -4.09375 3.65625 -4.09375 C 3.375 -4.09375 3.109375 -4.023438 2.859375 -3.890625 C 2.617188 -3.765625 2.414062 -3.585938 2.25 -3.359375 C 2.082031 -3.140625 1.96875 -2.882812 1.90625 -2.59375 Z M 1.90625 -2.59375 "/></g></g></g><g fill="#006c43" fill-opacity="1"><g transform="translate(188.311274, 263.849807)"><g><path d="M 2.34375 0.140625 C 1.582031 0.140625 1.007812 -0.0195312 0.625 -0.34375 C 0.238281 -0.675781 0.0976562 -1.125 0.203125 -1.6875 L 1.703125 -1.6875 C 1.628906 -1.21875 1.878906 -0.984375 2.453125 -0.984375 C 2.703125 -0.984375 2.90625 -1.03125 3.0625 -1.125 C 3.21875 -1.21875 3.3125 -1.335938 3.34375 -1.484375 C 3.375 -1.660156 3.3125 -1.800781 3.15625 -1.90625 C 3.007812 -2.007812 2.753906 -2.09375 2.390625 -2.15625 C 1.742188 -2.257812 1.28125 -2.457031 1 -2.75 C 0.71875 -3.050781 0.625 -3.425781 0.71875 -3.875 C 0.820312 -4.351562 1.082031 -4.722656 1.5 -4.984375 C 1.914062 -5.253906 2.460938 -5.390625 3.140625 -5.390625 C 3.867188 -5.390625 4.410156 -5.238281 4.765625 -4.9375 C 5.128906 -4.632812 5.273438 -4.207031 5.203125 -3.65625 L 3.734375 -3.65625 C 3.785156 -4.082031 3.546875 -4.296875 3.015625 -4.296875 C 2.535156 -4.296875 2.265625 -4.132812 2.203125 -3.8125 C 2.171875 -3.644531 2.222656 -3.507812 2.359375 -3.40625 C 2.503906 -3.3125 2.757812 -3.234375 3.125 -3.171875 C 3.78125 -3.054688 4.253906 -2.84375 4.546875 -2.53125 C 4.835938 -2.21875 4.9375 -1.832031 4.84375 -1.375 C 4.738281 -0.894531 4.46875 -0.519531 4.03125 -0.25 C 3.59375 0.0078125 3.03125 0.140625 2.34375 0.140625 Z M 2.34375 0.140625 "/></g></g></g><g fill="#006c43" fill-opacity="1"><g transform="translate(193.789114, 263.849807)"><g><path d="M 2.796875 0.140625 C 2.222656 0.140625 1.734375 0.0195312 1.328125 -0.21875 C 0.929688 -0.46875 0.648438 -0.8125 0.484375 -1.25 C 0.328125 -1.6875 0.300781 -2.179688 0.40625 -2.734375 C 0.507812 -3.253906 0.71875 -3.710938 1.03125 -4.109375 C 1.34375 -4.515625 1.726562 -4.828125 2.1875 -5.046875 C 2.65625 -5.273438 3.164062 -5.390625 3.71875 -5.390625 C 4.207031 -5.390625 4.632812 -5.296875 5 -5.109375 C 5.375 -4.929688 5.664062 -4.679688 5.875 -4.359375 C 6.082031 -4.035156 6.1875 -3.660156 6.1875 -3.234375 L 4.75 -3.234375 C 4.6875 -3.503906 4.550781 -3.710938 4.34375 -3.859375 C 4.144531 -4.015625 3.894531 -4.09375 3.59375 -4.09375 C 3.1875 -4.09375 2.820312 -3.953125 2.5 -3.671875 C 2.1875 -3.390625 1.984375 -3.03125 1.890625 -2.59375 C 1.804688 -2.164062 1.863281 -1.820312 2.0625 -1.5625 C 2.257812 -1.300781 2.554688 -1.171875 2.953125 -1.171875 C 3.273438 -1.171875 3.570312 -1.253906 3.84375 -1.421875 C 4.125 -1.585938 4.351562 -1.820312 4.53125 -2.125 L 6.046875 -2.125 C 5.765625 -1.414062 5.335938 -0.859375 4.765625 -0.453125 C 4.191406 -0.0546875 3.535156 0.140625 2.796875 0.140625 Z M 2.796875 0.140625 "/></g></g></g><g fill="#006c43" fill-opacity="1"><g transform="translate(200.296545, 263.849807)"><g><path d="M 2.0625 0.09375 C 1.414062 0.09375 0.929688 -0.0625 0.609375 -0.375 C 0.296875 -0.6875 0.191406 -1.109375 0.296875 -1.640625 C 0.390625 -2.109375 0.613281 -2.472656 0.96875 -2.734375 C 1.332031 -2.992188 1.789062 -3.125 2.34375 -3.125 L 4.28125 -3.125 L 4.328125 -3.375 C 4.378906 -3.644531 4.332031 -3.851562 4.1875 -4 C 4.039062 -4.15625 3.820312 -4.234375 3.53125 -4.234375 C 3.28125 -4.234375 3.054688 -4.175781 2.859375 -4.0625 C 2.660156 -3.957031 2.523438 -3.804688 2.453125 -3.609375 L 0.953125 -3.609375 C 1.128906 -4.171875 1.457031 -4.609375 1.9375 -4.921875 C 2.414062 -5.234375 2.988281 -5.390625 3.65625 -5.390625 C 4.175781 -5.390625 4.609375 -5.289062 4.953125 -5.09375 C 5.304688 -4.90625 5.550781 -4.640625 5.6875 -4.296875 C 5.832031 -3.960938 5.859375 -3.5625 5.765625 -3.09375 L 5.15625 0 L 4.03125 0 L 3.984375 -0.5625 C 3.460938 -0.125 2.820312 0.09375 2.0625 0.09375 Z M 1.796875 -1.59375 C 1.753906 -1.40625 1.789062 -1.253906 1.90625 -1.140625 C 2.03125 -1.035156 2.222656 -0.984375 2.484375 -0.984375 C 2.867188 -0.984375 3.210938 -1.09375 3.515625 -1.3125 C 3.816406 -1.539062 4.007812 -1.832031 4.09375 -2.1875 L 2.703125 -2.1875 C 2.171875 -2.1875 1.867188 -1.988281 1.796875 -1.59375 Z M 1.796875 -1.59375 "/></g></g></g><g fill="#006c43" fill-opacity="1"><g transform="translate(206.634042, 263.849807)"><g><path d="M 3.546875 0.140625 C 3.203125 0.140625 2.882812 0.0859375 2.59375 -0.015625 C 2.3125 -0.128906 2.070312 -0.285156 1.875 -0.484375 L 1.390625 2 L -0.15625 2 L 1.296875 -5.25 L 2.390625 -5.25 L 2.4375 -4.71875 C 2.6875 -4.9375 2.972656 -5.101562 3.296875 -5.21875 C 3.628906 -5.332031 3.984375 -5.390625 4.359375 -5.390625 C 4.910156 -5.390625 5.375 -5.265625 5.75 -5.015625 C 6.125 -4.773438 6.390625 -4.4375 6.546875 -4 C 6.710938 -3.5625 6.738281 -3.054688 6.625 -2.484375 C 6.53125 -1.960938 6.335938 -1.503906 6.046875 -1.109375 C 5.753906 -0.722656 5.394531 -0.414062 4.96875 -0.1875 C 4.539062 0.03125 4.066406 0.140625 3.546875 0.140625 Z M 2.265625 -2.59375 C 2.191406 -2.1875 2.257812 -1.847656 2.46875 -1.578125 C 2.675781 -1.304688 2.984375 -1.171875 3.390625 -1.171875 C 3.671875 -1.171875 3.929688 -1.234375 4.171875 -1.359375 C 4.421875 -1.484375 4.628906 -1.65625 4.796875 -1.875 C 4.960938 -2.101562 5.070312 -2.363281 5.125 -2.65625 C 5.207031 -3.070312 5.144531 -3.414062 4.9375 -3.6875 C 4.726562 -3.957031 4.421875 -4.09375 4.015625 -4.09375 C 3.734375 -4.09375 3.46875 -4.023438 3.21875 -3.890625 C 2.976562 -3.765625 2.773438 -3.585938 2.609375 -3.359375 C 2.441406 -3.140625 2.328125 -2.882812 2.265625 -2.59375 Z M 2.265625 -2.59375 "/></g></g></g><g fill="#006c43" fill-opacity="1"><g transform="translate(213.671266, 263.849807)"><g><path d="M 0.21875 0 L 1.265625 -5.25 L 2.8125 -5.25 L 1.765625 0 Z M 1.4375 -7.046875 C 1.488281 -7.316406 1.601562 -7.523438 1.78125 -7.671875 C 1.96875 -7.828125 2.195312 -7.90625 2.46875 -7.90625 C 2.78125 -7.90625 3.015625 -7.800781 3.171875 -7.59375 C 3.335938 -7.382812 3.390625 -7.132812 3.328125 -6.84375 C 3.273438 -6.582031 3.15625 -6.375 2.96875 -6.21875 C 2.78125 -6.070312 2.554688 -6 2.296875 -6 C 1.972656 -6 1.726562 -6.097656 1.5625 -6.296875 C 1.40625 -6.503906 1.363281 -6.753906 1.4375 -7.046875 Z M 1.4375 -7.046875 "/></g></g></g><g fill="#006c43" fill-opacity="1"><g transform="translate(216.70007, 263.849807)"><g><path d="M 0.234375 0 L 1.296875 -5.25 L 2.40625 -5.25 L 2.453125 -4.703125 C 2.691406 -4.929688 2.96875 -5.101562 3.28125 -5.21875 C 3.59375 -5.332031 3.921875 -5.390625 4.265625 -5.390625 C 4.722656 -5.390625 5.101562 -5.285156 5.40625 -5.078125 C 5.71875 -4.878906 5.929688 -4.597656 6.046875 -4.234375 C 6.160156 -3.867188 6.164062 -3.441406 6.0625 -2.953125 L 5.484375 0 L 3.9375 0 L 4.5 -2.875 C 4.582031 -3.269531 4.554688 -3.570312 4.421875 -3.78125 C 4.296875 -3.988281 4.078125 -4.09375 3.765625 -4.09375 C 3.410156 -4.09375 3.101562 -3.96875 2.84375 -3.71875 C 2.582031 -3.46875 2.410156 -3.140625 2.328125 -2.734375 L 1.796875 0 Z M 0.234375 0 "/></g></g></g><g fill="#006c43" fill-opacity="1"><g transform="translate(223.357441, 263.849807)"><g><path d="M 2.453125 2.21875 C 1.941406 2.21875 1.5 2.132812 1.125 1.96875 C 0.757812 1.8125 0.484375 1.582031 0.296875 1.28125 C 0.117188 0.988281 0.046875 0.644531 0.078125 0.25 L 1.5625 0.25 C 1.570312 0.476562 1.660156 0.65625 1.828125 0.78125 C 2.003906 0.914062 2.242188 0.984375 2.546875 0.984375 C 2.953125 0.984375 3.285156 0.875 3.546875 0.65625 C 3.804688 0.4375 3.976562 0.113281 4.0625 -0.3125 L 4.125 -0.578125 C 3.644531 -0.296875 3.109375 -0.15625 2.515625 -0.15625 C 2.003906 -0.15625 1.570312 -0.269531 1.21875 -0.5 C 0.875 -0.726562 0.628906 -1.050781 0.484375 -1.46875 C 0.347656 -1.882812 0.332031 -2.359375 0.4375 -2.890625 C 0.539062 -3.390625 0.734375 -3.828125 1.015625 -4.203125 C 1.296875 -4.578125 1.640625 -4.867188 2.046875 -5.078125 C 2.453125 -5.285156 2.898438 -5.390625 3.390625 -5.390625 C 3.785156 -5.390625 4.132812 -5.320312 4.4375 -5.1875 C 4.738281 -5.050781 4.984375 -4.863281 5.171875 -4.625 L 5.46875 -5.25 L 6.625 -5.25 L 5.625 -0.234375 C 5.46875 0.546875 5.109375 1.148438 4.546875 1.578125 C 3.984375 2.003906 3.285156 2.21875 2.453125 2.21875 Z M 1.9375 -2.75 C 1.851562 -2.351562 1.910156 -2.03125 2.109375 -1.78125 C 2.316406 -1.53125 2.613281 -1.40625 3 -1.40625 C 3.269531 -1.40625 3.519531 -1.460938 3.75 -1.578125 C 3.976562 -1.703125 4.171875 -1.867188 4.328125 -2.078125 C 4.492188 -2.285156 4.601562 -2.523438 4.65625 -2.796875 C 4.726562 -3.191406 4.664062 -3.507812 4.46875 -3.75 C 4.28125 -4 3.988281 -4.125 3.59375 -4.125 C 3.320312 -4.125 3.066406 -4.0625 2.828125 -3.9375 C 2.597656 -3.820312 2.40625 -3.660156 2.25 -3.453125 C 2.09375 -3.253906 1.988281 -3.019531 1.9375 -2.75 Z M 1.9375 -2.75 "/></g></g></g><g fill="#006c43" fill-opacity="1"><g transform="translate(230.214741, 263.849807)"><g/></g></g><g fill="#006c43" fill-opacity="1"><g transform="translate(232.563812, 263.849807)"><g><path d="M 3.671875 0.140625 C 2.929688 0.140625 2.304688 -0.0195312 1.796875 -0.34375 C 1.296875 -0.664062 0.9375 -1.109375 0.71875 -1.671875 C 0.507812 -2.242188 0.476562 -2.894531 0.625 -3.625 C 0.769531 -4.320312 1.035156 -4.9375 1.421875 -5.46875 C 1.816406 -6 2.300781 -6.410156 2.875 -6.703125 C 3.457031 -6.992188 4.09375 -7.140625 4.78125 -7.140625 C 5.382812 -7.140625 5.921875 -7.023438 6.390625 -6.796875 C 6.859375 -6.566406 7.226562 -6.242188 7.5 -5.828125 C 7.78125 -5.410156 7.929688 -4.925781 7.953125 -4.375 L 6.34375 -4.375 C 6.289062 -4.757812 6.117188 -5.0625 5.828125 -5.28125 C 5.535156 -5.507812 5.171875 -5.625 4.734375 -5.625 C 4.328125 -5.625 3.945312 -5.53125 3.59375 -5.34375 C 3.238281 -5.15625 2.941406 -4.898438 2.703125 -4.578125 C 2.472656 -4.253906 2.316406 -3.878906 2.234375 -3.453125 C 2.148438 -3.046875 2.160156 -2.6875 2.265625 -2.375 C 2.367188 -2.0625 2.550781 -1.816406 2.8125 -1.640625 C 3.070312 -1.460938 3.398438 -1.375 3.796875 -1.375 C 4.253906 -1.375 4.679688 -1.488281 5.078125 -1.71875 C 5.484375 -1.945312 5.800781 -2.269531 6.03125 -2.6875 L 7.6875 -2.6875 C 7.457031 -2.09375 7.140625 -1.582031 6.734375 -1.15625 C 6.328125 -0.738281 5.863281 -0.414062 5.34375 -0.1875 C 4.820312 0.03125 4.265625 0.140625 3.671875 0.140625 Z M 3.671875 0.140625 "/></g></g></g><g fill="#006c43" fill-opacity="1"><g transform="translate(240.630626, 263.849807)"><g><path d="M 2.9375 0.140625 C 2.332031 0.140625 1.820312 0.0195312 1.40625 -0.21875 C 0.988281 -0.46875 0.691406 -0.8125 0.515625 -1.25 C 0.335938 -1.6875 0.300781 -2.1875 0.40625 -2.75 C 0.507812 -3.28125 0.71875 -3.742188 1.03125 -4.140625 C 1.34375 -4.535156 1.734375 -4.84375 2.203125 -5.0625 C 2.671875 -5.28125 3.179688 -5.390625 3.734375 -5.390625 C 4.335938 -5.390625 4.847656 -5.265625 5.265625 -5.015625 C 5.679688 -4.773438 5.976562 -4.4375 6.15625 -4 C 6.34375 -3.5625 6.378906 -3.066406 6.265625 -2.515625 C 6.160156 -1.984375 5.953125 -1.515625 5.640625 -1.109375 C 5.328125 -0.710938 4.9375 -0.40625 4.46875 -0.1875 C 4 0.03125 3.488281 0.140625 2.9375 0.140625 Z M 1.90625 -2.59375 C 1.820312 -2.1875 1.882812 -1.847656 2.09375 -1.578125 C 2.300781 -1.304688 2.609375 -1.171875 3.015625 -1.171875 C 3.304688 -1.171875 3.570312 -1.234375 3.8125 -1.359375 C 4.0625 -1.492188 4.269531 -1.671875 4.4375 -1.890625 C 4.601562 -2.117188 4.710938 -2.375 4.765625 -2.65625 C 4.847656 -3.070312 4.785156 -3.414062 4.578125 -3.6875 C 4.367188 -3.957031 4.0625 -4.09375 3.65625 -4.09375 C 3.375 -4.09375 3.109375 -4.023438 2.859375 -3.890625 C 2.609375 -3.765625 2.398438 -3.585938 2.234375 -3.359375 C 2.066406 -3.140625 1.957031 -2.882812 1.90625 -2.59375 Z M 1.90625 -2.59375 "/></g></g></g><g fill="#006c43" fill-opacity="1"><g transform="translate(247.297999, 263.849807)"><g><path d="M 0.234375 0 L 1.296875 -5.25 L 2.421875 -5.25 L 2.453125 -4.75 C 2.921875 -5.175781 3.476562 -5.390625 4.125 -5.390625 C 4.5 -5.390625 4.820312 -5.316406 5.09375 -5.171875 C 5.375 -5.023438 5.585938 -4.816406 5.734375 -4.546875 C 5.992188 -4.816406 6.296875 -5.023438 6.640625 -5.171875 C 6.984375 -5.316406 7.347656 -5.390625 7.734375 -5.390625 C 8.203125 -5.390625 8.585938 -5.289062 8.890625 -5.09375 C 9.203125 -4.894531 9.421875 -4.613281 9.546875 -4.25 C 9.671875 -3.894531 9.679688 -3.472656 9.578125 -2.984375 L 8.984375 0 L 7.421875 0 L 8.015625 -2.90625 C 8.085938 -3.269531 8.054688 -3.554688 7.921875 -3.765625 C 7.796875 -3.984375 7.570312 -4.09375 7.25 -4.09375 C 6.90625 -4.09375 6.617188 -3.976562 6.390625 -3.75 C 6.171875 -3.519531 6.019531 -3.207031 5.9375 -2.8125 L 5.375 0 L 3.84375 0 L 4.421875 -2.90625 C 4.492188 -3.269531 4.460938 -3.554688 4.328125 -3.765625 C 4.203125 -3.984375 3.984375 -4.09375 3.671875 -4.09375 C 3.328125 -4.09375 3.039062 -3.976562 2.8125 -3.75 C 2.582031 -3.519531 2.425781 -3.207031 2.34375 -2.8125 L 1.796875 0 Z M 0.234375 0 "/></g></g></g><g fill="#006c43" fill-opacity="1"><g transform="translate(257.453989, 263.849807)"><g><path d="M 3.546875 0.140625 C 3.203125 0.140625 2.882812 0.0859375 2.59375 -0.015625 C 2.3125 -0.128906 2.070312 -0.285156 1.875 -0.484375 L 1.390625 2 L -0.15625 2 L 1.296875 -5.25 L 2.390625 -5.25 L 2.4375 -4.71875 C 2.6875 -4.9375 2.972656 -5.101562 3.296875 -5.21875 C 3.628906 -5.332031 3.984375 -5.390625 4.359375 -5.390625 C 4.910156 -5.390625 5.375 -5.265625 5.75 -5.015625 C 6.125 -4.773438 6.390625 -4.4375 6.546875 -4 C 6.710938 -3.5625 6.738281 -3.054688 6.625 -2.484375 C 6.53125 -1.960938 6.335938 -1.503906 6.046875 -1.109375 C 5.753906 -0.722656 5.394531 -0.414062 4.96875 -0.1875 C 4.539062 0.03125 4.066406 0.140625 3.546875 0.140625 Z M 2.265625 -2.59375 C 2.191406 -2.1875 2.257812 -1.847656 2.46875 -1.578125 C 2.675781 -1.304688 2.984375 -1.171875 3.390625 -1.171875 C 3.671875 -1.171875 3.929688 -1.234375 4.171875 -1.359375 C 4.421875 -1.484375 4.628906 -1.65625 4.796875 -1.875 C 4.960938 -2.101562 5.070312 -2.363281 5.125 -2.65625 C 5.207031 -3.070312 5.144531 -3.414062 4.9375 -3.6875 C 4.726562 -3.957031 4.421875 -4.09375 4.015625 -4.09375 C 3.734375 -4.09375 3.46875 -4.023438 3.21875 -3.890625 C 2.976562 -3.765625 2.773438 -3.585938 2.609375 -3.359375 C 2.441406 -3.140625 2.328125 -2.882812 2.265625 -2.59375 Z M 2.265625 -2.59375 "/></g></g></g><g fill="#006c43" fill-opacity="1"><g transform="translate(264.491212, 263.849807)"><g><path d="M 2.0625 0.09375 C 1.414062 0.09375 0.929688 -0.0625 0.609375 -0.375 C 0.296875 -0.6875 0.191406 -1.109375 0.296875 -1.640625 C 0.390625 -2.109375 0.613281 -2.472656 0.96875 -2.734375 C 1.332031 -2.992188 1.789062 -3.125 2.34375 -3.125 L 4.28125 -3.125 L 4.328125 -3.375 C 4.378906 -3.644531 4.332031 -3.851562 4.1875 -4 C 4.039062 -4.15625 3.820312 -4.234375 3.53125 -4.234375 C 3.28125 -4.234375 3.054688 -4.175781 2.859375 -4.0625 C 2.660156 -3.957031 2.523438 -3.804688 2.453125 -3.609375 L 0.953125 -3.609375 C 1.128906 -4.171875 1.457031 -4.609375 1.9375 -4.921875 C 2.414062 -5.234375 2.988281 -5.390625 3.65625 -5.390625 C 4.175781 -5.390625 4.609375 -5.289062 4.953125 -5.09375 C 5.304688 -4.90625 5.550781 -4.640625 5.6875 -4.296875 C 5.832031 -3.960938 5.859375 -3.5625 5.765625 -3.09375 L 5.15625 0 L 4.03125 0 L 3.984375 -0.5625 C 3.460938 -0.125 2.820312 0.09375 2.0625 0.09375 Z M 1.796875 -1.59375 C 1.753906 -1.40625 1.789062 -1.253906 1.90625 -1.140625 C 2.03125 -1.035156 2.222656 -0.984375 2.484375 -0.984375 C 2.867188 -0.984375 3.210938 -1.09375 3.515625 -1.3125 C 3.816406 -1.539062 4.007812 -1.832031 4.09375 -2.1875 L 2.703125 -2.1875 C 2.171875 -2.1875 1.867188 -1.988281 1.796875 -1.59375 Z M 1.796875 -1.59375 "/></g></g></g><g fill="#006c43" fill-opacity="1"><g transform="translate(270.82871, 263.849807)"><g><path d="M 0.234375 0 L 1.296875 -5.25 L 2.40625 -5.25 L 2.453125 -4.703125 C 2.691406 -4.929688 2.96875 -5.101562 3.28125 -5.21875 C 3.59375 -5.332031 3.921875 -5.390625 4.265625 -5.390625 C 4.722656 -5.390625 5.101562 -5.285156 5.40625 -5.078125 C 5.71875 -4.878906 5.929688 -4.597656 6.046875 -4.234375 C 6.160156 -3.867188 6.164062 -3.441406 6.0625 -2.953125 L 5.484375 0 L 3.9375 0 L 4.5 -2.875 C 4.582031 -3.269531 4.554688 -3.570312 4.421875 -3.78125 C 4.296875 -3.988281 4.078125 -4.09375 3.765625 -4.09375 C 3.410156 -4.09375 3.101562 -3.96875 2.84375 -3.71875 C 2.582031 -3.46875 2.410156 -3.140625 2.328125 -2.734375 L 1.796875 0 Z M 0.234375 0 "/></g></g></g><g fill="#006c43" fill-opacity="1"><g transform="translate(277.486081, 263.849807)"><g><path d="M -0.15625 2 L 0.109375 0.6875 L 0.65625 0.6875 C 0.945312 0.6875 1.164062 0.640625 1.3125 0.546875 C 1.46875 0.453125 1.628906 0.269531 1.796875 0 L 1.921875 -0.21875 L 0.609375 -5.25 L 2.203125 -5.25 L 2.65625 -3.34375 L 2.96875 -2 L 3.6875 -3.34375 L 4.765625 -5.25 L 6.515625 -5.25 L 3 0.703125 C 2.800781 1.035156 2.597656 1.296875 2.390625 1.484375 C 2.191406 1.671875 1.957031 1.800781 1.6875 1.875 C 1.414062 1.957031 1.082031 2 0.6875 2 Z M -0.15625 2 "/></g></g></g></svg>