<svg xmlns="http://www.w3.org/2000/svg" xmlns:xlink="http://www.w3.org/1999/xlink" width="500" zoomAndPan="magnify" viewBox="0 0 375 374.999991" height="500" preserveAspectRatio="xMidYMid meet" version="1.0"><defs><clipPath id="d5e177d705"><path d="M 73.003906 225.117188 L 121.957031 225.117188 L 121.957031 273.589844 L 73.003906 273.589844 Z M 73.003906 225.117188 " clip-rule="nonzero"/></clipPath><clipPath id="50e48ff7cd"><path d="M 255.335938 225.117188 L 304.289062 225.117188 L 304.289062 273.589844 L 255.335938 273.589844 Z M 255.335938 225.117188 " clip-rule="nonzero"/></clipPath><clipPath id="daca744d3c"><path d="M 103 101.089844 L 375 101.089844 L 375 246 L 103 246 Z M 103 101.089844 " clip-rule="nonzero"/></clipPath><clipPath id="6a996e9a60"><path d="M 40.003906 257.019531 L 51.277344 257.019531 L 51.277344 273.589844 L 40.003906 273.589844 Z M 40.003906 257.019531 " clip-rule="nonzero"/></clipPath><clipPath id="59c9c806a2"><path d="M 31.480469 253 L 42.753906 253 L 42.753906 273.589844 L 31.480469 273.589844 Z M 31.480469 253 " clip-rule="nonzero"/></clipPath><clipPath id="8c3b544c25"><path d="M 21.027344 246.019531 L 32.304688 246.019531 L 32.304688 273.589844 L 21.027344 273.589844 Z M 21.027344 246.019531 " clip-rule="nonzero"/></clipPath><clipPath id="2261245386"><path d="M 9.203125 251 L 20.476562 251 L 20.476562 273.589844 L 9.203125 273.589844 Z M 9.203125 251 " clip-rule="nonzero"/></clipPath><clipPath id="112ee2346c"><path d="M 0.128906 246.292969 L 11.402344 246.292969 L 11.402344 273.589844 L 0.128906 273.589844 Z M 0.128906 246.292969 " clip-rule="nonzero"/></clipPath></defs><g clip-path="url(#d5e177d705)"><path fill="#198754" d="M 73.085938 249.546875 C 73.085938 262.980469 83.980469 273.875 97.414062 273.875 C 110.847656 273.875 121.734375 262.980469 121.734375 249.546875 C 121.734375 236.113281 110.847656 225.226562 97.414062 225.226562 C 83.980469 225.226562 73.085938 236.113281 73.085938 249.546875 " fill-opacity="1" fill-rule="nonzero"/></g><g clip-path="url(#50e48ff7cd)"><path fill="#198754" d="M 255.515625 249.546875 C 255.515625 262.980469 266.40625 273.875 279.84375 273.875 C 293.273438 273.875 304.164062 262.980469 304.164062 249.546875 C 304.164062 236.113281 293.273438 225.226562 279.84375 225.226562 C 266.40625 225.226562 255.515625 236.113281 255.515625 249.546875 " fill-opacity="1" fill-rule="nonzero"/></g><path fill="#198754" d="M 272.472656 249.546875 C 272.472656 253.617188 275.773438 256.917969 279.84375 256.917969 C 283.910156 256.917969 287.210938 253.617188 287.210938 249.546875 C 287.210938 245.480469 283.910156 242.179688 279.84375 242.179688 C 275.773438 242.179688 272.472656 245.480469 272.472656 249.546875 " fill-opacity="1" fill-rule="nonzero"/><path fill="#198754" d="M 90.042969 249.546875 C 90.042969 253.617188 93.34375 256.917969 97.414062 256.917969 C 101.480469 256.917969 104.78125 253.617188 104.78125 249.546875 C 104.78125 245.480469 101.480469 242.179688 97.414062 242.179688 C 93.34375 242.179688 90.042969 245.480469 90.042969 249.546875 " fill-opacity="1" fill-rule="nonzero"/><path fill="#198754" d="M 129.335938 263.230469 L 250.195312 263.230469 L 250.195312 254.109375 L 129.335938 254.109375 L 129.335938 263.230469 " fill-opacity="1" fill-rule="nonzero"/><g clip-path="url(#daca744d3c)"><path fill="#198754" d="M 287.027344 187.160156 C 286.777344 182.449219 286.515625 177.589844 286.269531 173.089844 L 347.164062 107.929688 L 363.695312 111.351562 Z M 103.671875 218.632812 C 103.671875 218.636719 126.453125 220.664062 132.449219 245.144531 C 132.835938 246.71875 170.597656 245.175781 173.511719 245.175781 C 187.652344 245.175781 201.890625 244.867188 216 245.214844 C 214.296875 238.945312 215.238281 231.847656 219.886719 227.027344 C 223.933594 222.839844 229.914062 221.148438 235.6875 220.363281 C 253.292969 217.964844 270.8125 214.917969 288.371094 212.035156 C 288.371094 212.035156 287.945312 204.113281 287.40625 194.121094 L 379.089844 104.511719 L 343.171875 101.089844 L 285.773438 163.816406 C 285.453125 157.910156 285.234375 153.902344 285.234375 153.886719 C 285.246094 154.070312 266.46875 160.328125 264.65625 161.082031 C 258.492188 163.648438 252.820312 167.386719 248.023438 172.03125 C 245.828125 174.152344 243.8125 176.460938 242.027344 178.9375 C 240.742188 180.71875 239.613281 183.398438 237.492188 184.347656 C 236.574219 184.757812 235.292969 185.007812 233.136719 185.339844 C 227.484375 186.214844 222.550781 187.234375 217.921875 190.898438 C 215.84375 192.542969 214.023438 194.5 211.855469 196.019531 C 204.1875 201.386719 188.40625 201.566406 179.351562 202.078125 C 172.347656 202.476562 165.304688 202.359375 158.332031 201.554688 C 151.476562 200.765625 145.238281 197.796875 138.503906 196.988281 C 130.773438 196.0625 123.152344 199.796875 117.234375 204.460938 C 114.339844 206.746094 111.980469 209.40625 109.523438 212.125 C 108.914062 212.796875 104.386719 218.699219 103.671875 218.632812 " fill-opacity="1" fill-rule="nonzero"/></g><g clip-path="url(#6a996e9a60)"><path fill="#198754" d="M 42.875 273.917969 C 42.875 273.917969 42.878906 273.855469 42.890625 273.730469 C 42.902344 273.609375 42.921875 273.425781 42.953125 273.191406 C 43.015625 272.722656 43.121094 272.050781 43.292969 271.246094 C 43.464844 270.441406 43.699219 269.503906 44.019531 268.503906 C 44.175781 268.003906 44.359375 267.488281 44.554688 266.964844 C 44.652344 266.703125 44.761719 266.441406 44.867188 266.179688 C 44.980469 265.917969 45.089844 265.652344 45.210938 265.386719 C 45.453125 264.859375 45.703125 264.335938 45.980469 263.824219 C 46.046875 263.695312 46.117188 263.566406 46.183594 263.4375 C 46.257812 263.3125 46.332031 263.183594 46.402344 263.0625 C 46.542969 262.808594 46.691406 262.5625 46.84375 262.320312 C 46.988281 262.078125 47.148438 261.84375 47.300781 261.613281 C 47.453125 261.378906 47.613281 261.15625 47.773438 260.9375 C 47.851562 260.828125 47.929688 260.722656 48.003906 260.613281 C 48.085938 260.511719 48.167969 260.40625 48.246094 260.304688 C 48.402344 260.101562 48.554688 259.902344 48.714844 259.71875 C 48.871094 259.53125 49.015625 259.351562 49.167969 259.183594 C 49.320312 259.015625 49.464844 258.855469 49.601562 258.707031 C 49.878906 258.40625 50.140625 258.152344 50.347656 257.941406 C 50.792969 257.523438 51.050781 257.285156 51.050781 257.285156 C 51.050781 257.285156 50.757812 257.511719 50.242188 257.90625 C 50.003906 258.113281 49.695312 258.351562 49.371094 258.640625 C 49.210938 258.785156 49.039062 258.9375 48.855469 259.097656 C 48.675781 259.261719 48.503906 259.4375 48.3125 259.617188 C 48.121094 259.796875 47.9375 259.988281 47.746094 260.183594 C 47.648438 260.285156 47.550781 260.382812 47.453125 260.488281 C 47.355469 260.589844 47.261719 260.695312 47.164062 260.800781 C 46.96875 261.011719 46.769531 261.230469 46.578125 261.460938 C 46.386719 261.6875 46.1875 261.917969 46 262.15625 C 45.808594 262.390625 45.613281 262.632812 45.429688 262.882812 C 45.335938 263.003906 45.242188 263.128906 45.148438 263.253906 C 45.058594 263.378906 44.96875 263.507812 44.878906 263.632812 C 44.511719 264.140625 44.167969 264.660156 43.839844 265.183594 C 43.671875 265.445312 43.519531 265.707031 43.359375 265.96875 C 43.210938 266.234375 43.054688 266.492188 42.914062 266.753906 C 42.628906 267.277344 42.355469 267.792969 42.113281 268.292969 C 41.621094 269.296875 41.226562 270.238281 40.914062 271.054688 C 40.605469 271.867188 40.386719 272.550781 40.242188 273.03125 C 40.171875 273.273438 40.117188 273.460938 40.085938 273.59375 C 40.050781 273.726562 40.035156 273.796875 40.035156 273.796875 L 42.875 273.917969 " fill-opacity="1" fill-rule="nonzero"/></g><g clip-path="url(#59c9c806a2)"><path fill="#198754" d="M 34.324219 273.917969 C 34.324219 273.917969 34.328125 273.835938 34.339844 273.683594 C 34.351562 273.53125 34.371094 273.300781 34.402344 273.011719 C 34.464844 272.425781 34.566406 271.589844 34.742188 270.585938 C 34.914062 269.582031 35.148438 268.410156 35.46875 267.164062 C 35.625 266.539062 35.808594 265.894531 36.003906 265.242188 C 36.101562 264.917969 36.210938 264.589844 36.316406 264.261719 C 36.429688 263.933594 36.539062 263.601562 36.660156 263.273438 C 36.898438 262.617188 37.152344 261.960938 37.429688 261.320312 C 37.496094 261.160156 37.566406 261 37.632812 260.839844 C 37.707031 260.683594 37.777344 260.527344 37.851562 260.371094 C 37.992188 260.054688 38.140625 259.75 38.292969 259.449219 C 38.4375 259.144531 38.59375 258.851562 38.75 258.5625 C 38.902344 258.273438 39.0625 257.992188 39.21875 257.71875 C 39.300781 257.585938 39.375 257.449219 39.453125 257.316406 C 39.535156 257.1875 39.613281 257.058594 39.695312 256.929688 C 39.851562 256.675781 40 256.429688 40.164062 256.199219 C 40.320312 255.96875 40.464844 255.742188 40.617188 255.53125 C 40.769531 255.324219 40.914062 255.121094 41.050781 254.9375 C 41.328125 254.5625 41.589844 254.246094 41.796875 253.980469 C 42.242188 253.460938 42.5 253.164062 42.5 253.164062 C 42.5 253.164062 42.203125 253.445312 41.691406 253.941406 C 41.449219 254.195312 41.144531 254.496094 40.820312 254.855469 C 40.65625 255.035156 40.488281 255.226562 40.304688 255.425781 C 40.125 255.628906 39.953125 255.847656 39.761719 256.070312 C 39.570312 256.296875 39.386719 256.535156 39.195312 256.78125 C 39.097656 256.902344 39 257.03125 38.902344 257.15625 C 38.804688 257.285156 38.710938 257.417969 38.613281 257.550781 C 38.417969 257.816406 38.21875 258.089844 38.027344 258.371094 C 37.832031 258.652344 37.636719 258.941406 37.449219 259.242188 C 37.253906 259.535156 37.0625 259.839844 36.878906 260.144531 C 36.785156 260.300781 36.691406 260.457031 36.597656 260.613281 C 36.507812 260.769531 36.417969 260.925781 36.328125 261.085938 C 35.960938 261.714844 35.617188 262.367188 35.289062 263.019531 C 35.121094 263.34375 34.96875 263.675781 34.808594 264 C 34.660156 264.328125 34.503906 264.65625 34.363281 264.980469 C 34.074219 265.628906 33.804688 266.273438 33.5625 266.898438 C 33.070312 268.148438 32.675781 269.328125 32.363281 270.34375 C 32.054688 271.355469 31.835938 272.210938 31.691406 272.808594 C 31.621094 273.109375 31.566406 273.347656 31.535156 273.511719 C 31.5 273.675781 31.484375 273.765625 31.484375 273.765625 L 34.324219 273.917969 " fill-opacity="1" fill-rule="nonzero"/></g><g clip-path="url(#8c3b544c25)"><path fill="#198754" d="M 24.0625 273.917969 C 24.0625 273.917969 24.066406 273.808594 24.078125 273.605469 C 24.089844 273.402344 24.109375 273.09375 24.140625 272.703125 C 24.203125 271.921875 24.308594 270.800781 24.480469 269.457031 C 24.652344 268.113281 24.886719 266.546875 25.207031 264.878906 C 25.363281 264.039062 25.546875 263.179688 25.742188 262.308594 C 25.839844 261.871094 25.949219 261.433594 26.054688 260.992188 C 26.167969 260.554688 26.277344 260.109375 26.398438 259.671875 C 26.636719 258.792969 26.890625 257.914062 27.167969 257.054688 C 27.234375 256.839844 27.304688 256.628906 27.371094 256.414062 C 27.445312 256.203125 27.515625 255.992188 27.589844 255.785156 C 27.726562 255.363281 27.878906 254.953125 28.03125 254.550781 C 28.175781 254.144531 28.335938 253.75 28.488281 253.367188 C 28.640625 252.976562 28.800781 252.601562 28.960938 252.238281 C 29.039062 252.058594 29.113281 251.875 29.191406 251.699219 C 29.273438 251.523438 29.355469 251.351562 29.433594 251.179688 C 29.589844 250.839844 29.742188 250.511719 29.902344 250.203125 C 30.058594 249.890625 30.203125 249.589844 30.355469 249.308594 C 30.507812 249.027344 30.652344 248.761719 30.789062 248.511719 C 31.0625 248.011719 31.328125 247.589844 31.535156 247.234375 C 31.980469 246.539062 32.238281 246.140625 32.238281 246.140625 C 32.238281 246.140625 31.945312 246.519531 31.429688 247.179688 C 31.191406 247.515625 30.882812 247.921875 30.558594 248.402344 C 30.398438 248.640625 30.226562 248.898438 30.042969 249.167969 C 29.863281 249.4375 29.691406 249.730469 29.5 250.03125 C 29.308594 250.332031 29.125 250.652344 28.933594 250.980469 C 28.835938 251.144531 28.738281 251.3125 28.640625 251.484375 C 28.542969 251.65625 28.449219 251.832031 28.351562 252.011719 C 28.15625 252.367188 27.957031 252.730469 27.765625 253.109375 C 27.570312 253.488281 27.375 253.875 27.1875 254.273438 C 26.992188 254.667969 26.800781 255.074219 26.617188 255.484375 C 26.523438 255.691406 26.429688 255.898438 26.335938 256.109375 C 26.246094 256.316406 26.15625 256.527344 26.0625 256.738281 C 25.699219 257.585938 25.355469 258.457031 25.027344 259.328125 C 24.859375 259.765625 24.707031 260.207031 24.546875 260.644531 C 24.398438 261.082031 24.242188 261.519531 24.097656 261.953125 C 23.816406 262.824219 23.542969 263.6875 23.300781 264.523438 C 22.808594 266.199219 22.414062 267.773438 22.101562 269.132812 C 21.792969 270.492188 21.574219 271.632812 21.429688 272.4375 C 21.359375 272.835938 21.304688 273.15625 21.273438 273.375 C 21.238281 273.597656 21.21875 273.714844 21.21875 273.714844 L 24.0625 273.917969 " fill-opacity="1" fill-rule="nonzero"/></g><g clip-path="url(#2261245386)"><path fill="#198754" d="M 12.089844 273.917969 C 12.089844 273.917969 12.09375 273.828125 12.105469 273.664062 C 12.117188 273.492188 12.136719 273.242188 12.167969 272.921875 C 12.230469 272.28125 12.335938 271.363281 12.507812 270.261719 C 12.679688 269.15625 12.914062 267.875 13.234375 266.503906 C 13.390625 265.816406 13.574219 265.113281 13.769531 264.394531 C 13.867188 264.039062 13.976562 263.679688 14.082031 263.316406 C 14.195312 262.957031 14.304688 262.59375 14.425781 262.230469 C 14.667969 261.511719 14.917969 260.789062 15.195312 260.089844 C 15.261719 259.910156 15.332031 259.738281 15.398438 259.5625 C 15.472656 259.390625 15.542969 259.214844 15.617188 259.046875 C 15.757812 258.699219 15.90625 258.363281 16.058594 258.03125 C 16.203125 257.699219 16.363281 257.378906 16.515625 257.0625 C 16.667969 256.742188 16.828125 256.4375 16.988281 256.136719 C 17.066406 255.988281 17.140625 255.839844 17.21875 255.695312 C 17.300781 255.550781 17.382812 255.410156 17.460938 255.269531 C 17.617188 254.992188 17.769531 254.722656 17.929688 254.464844 C 18.085938 254.210938 18.230469 253.964844 18.382812 253.734375 C 18.535156 253.503906 18.679688 253.285156 18.816406 253.082031 C 19.09375 252.671875 19.355469 252.324219 19.5625 252.03125 C 20.007812 251.460938 20.265625 251.136719 20.265625 251.136719 C 20.265625 251.136719 19.972656 251.445312 19.457031 251.988281 C 19.21875 252.265625 18.910156 252.597656 18.585938 252.992188 C 18.425781 253.1875 18.253906 253.398438 18.074219 253.617188 C 17.890625 253.839844 17.71875 254.078125 17.527344 254.328125 C 17.335938 254.574219 17.152344 254.835938 16.960938 255.105469 C 16.863281 255.242188 16.765625 255.378906 16.667969 255.519531 C 16.570312 255.660156 16.476562 255.804688 16.378906 255.949219 C 16.183594 256.242188 15.984375 256.539062 15.792969 256.851562 C 15.601562 257.160156 15.402344 257.480469 15.214844 257.804688 C 15.019531 258.128906 14.828125 258.460938 14.644531 258.800781 C 14.550781 258.96875 14.457031 259.140625 14.363281 259.308594 C 14.273438 259.480469 14.183594 259.65625 14.09375 259.828125 C 13.726562 260.523438 13.386719 261.238281 13.054688 261.953125 C 12.886719 262.3125 12.734375 262.671875 12.574219 263.03125 C 12.425781 263.390625 12.269531 263.75 12.128906 264.105469 C 11.84375 264.820312 11.570312 265.527344 11.328125 266.210938 C 10.835938 267.585938 10.441406 268.878906 10.132812 269.992188 C 9.820312 271.105469 9.601562 272.042969 9.457031 272.703125 C 9.386719 273.03125 9.332031 273.292969 9.300781 273.472656 C 9.265625 273.652344 9.25 273.75 9.25 273.75 L 12.089844 273.917969 " fill-opacity="1" fill-rule="nonzero"/></g><g clip-path="url(#112ee2346c)"><path fill="#198754" d="M 2.96875 273.917969 C 2.96875 273.917969 2.972656 273.8125 2.984375 273.609375 C 2.996094 273.402344 3.015625 273.097656 3.046875 272.710938 C 3.109375 271.933594 3.210938 270.820312 3.386719 269.484375 C 3.558594 268.148438 3.792969 266.589844 4.113281 264.929688 C 4.269531 264.097656 4.453125 263.242188 4.648438 262.375 C 4.746094 261.9375 4.855469 261.503906 4.960938 261.066406 C 5.074219 260.628906 5.183594 260.1875 5.304688 259.75 C 5.542969 258.875 5.796875 258.003906 6.074219 257.152344 C 6.140625 256.9375 6.210938 256.726562 6.277344 256.515625 C 6.351562 256.304688 6.421875 256.09375 6.496094 255.886719 C 6.636719 255.46875 6.785156 255.0625 6.9375 254.660156 C 7.082031 254.257812 7.242188 253.863281 7.394531 253.480469 C 7.546875 253.097656 7.707031 252.722656 7.867188 252.359375 C 7.945312 252.179688 8.023438 252 8.097656 251.824219 C 8.179688 251.652344 8.257812 251.480469 8.339844 251.308594 C 8.496094 250.972656 8.644531 250.644531 8.808594 250.335938 C 8.964844 250.027344 9.109375 249.726562 9.261719 249.449219 C 9.414062 249.167969 9.558594 248.902344 9.695312 248.65625 C 9.972656 248.160156 10.234375 247.738281 10.441406 247.382812 C 10.886719 246.691406 11.144531 246.296875 11.144531 246.296875 C 11.144531 246.296875 10.847656 246.671875 10.335938 247.328125 C 10.097656 247.667969 9.789062 248.070312 9.464844 248.546875 C 9.300781 248.785156 9.132812 249.039062 8.953125 249.308594 C 8.773438 249.578125 8.597656 249.867188 8.40625 250.167969 C 8.214844 250.464844 8.03125 250.78125 7.839844 251.109375 C 7.742188 251.273438 7.644531 251.441406 7.546875 251.609375 C 7.449219 251.78125 7.355469 251.957031 7.257812 252.132812 C 7.0625 252.488281 6.863281 252.851562 6.671875 253.226562 C 6.476562 253.605469 6.28125 253.988281 6.09375 254.382812 C 5.898438 254.777344 5.707031 255.179688 5.523438 255.589844 C 5.429688 255.792969 5.335938 256 5.242188 256.207031 C 5.152344 256.417969 5.0625 256.625 4.972656 256.835938 C 4.605469 257.679688 4.261719 258.542969 3.933594 259.414062 C 3.765625 259.847656 3.613281 260.285156 3.453125 260.71875 C 3.304688 261.15625 3.148438 261.589844 3.007812 262.023438 C 2.71875 262.890625 2.449219 263.742188 2.207031 264.578125 C 1.714844 266.242188 1.320312 267.808594 1.011719 269.160156 C 0.699219 270.507812 0.480469 271.644531 0.335938 272.441406 C 0.265625 272.84375 0.210938 273.160156 0.179688 273.375 C 0.144531 273.597656 0.128906 273.714844 0.128906 273.714844 L 2.96875 273.917969 " fill-opacity="1" fill-rule="nonzero"/></g><path fill="#198754" d="M 180.535156 184.054688 L 180.535156 177.800781 C 180.535156 175.867188 178.851562 174.304688 176.914062 174.304688 L 174.027344 174.304688 C 172.089844 174.304688 170.632812 175.867188 170.632812 177.800781 L 170.632812 184.054688 C 153.859375 184.511719 140.894531 187.257812 140.894531 190.578125 C 140.894531 194.21875 156.371094 197.167969 175.5 197.167969 C 194.625 197.167969 210.175781 194.21875 210.175781 190.578125 C 210.175781 187.257812 197.308594 184.511719 180.535156 184.054688 " fill-opacity="1" fill-rule="nonzero"/></svg>