<svg xmlns="http://www.w3.org/2000/svg" xmlns:xlink="http://www.w3.org/1999/xlink" width="500" zoomAndPan="magnify" viewBox="0 0 375 374.999991" height="500" preserveAspectRatio="xMidYMid meet" version="1.0"><defs><g/><clipPath id="585edcf4f5"><path d="M 170 136.304688 L 224 136.304688 L 224 175 L 170 175 Z M 170 136.304688 " clip-rule="nonzero"/></clipPath><clipPath id="1a1e3084bb"><path d="M 91.289062 215 L 284 215 L 284 227.054688 L 91.289062 227.054688 Z M 91.289062 215 " clip-rule="nonzero"/></clipPath></defs><path fill="#ffffff" d="M 228.800781 167.761719 L 222.597656 167.761719 L 222.597656 161.558594 L 228.800781 161.558594 Z M 222.597656 177.21875 L 222.597656 171.019531 L 228.800781 171.019531 L 228.800781 177.21875 Z M 213.136719 171.019531 L 219.339844 171.019531 L 219.339844 177.222656 L 213.136719 177.222656 Z M 219.339844 161.558594 L 219.339844 167.761719 L 213.136719 167.761719 L 213.136719 161.558594 Z M 219.339844 161.558594 " fill-opacity="1" fill-rule="evenodd"/><g clip-path="url(#585edcf4f5)"><path fill="#ffffff" d="M 190.152344 174.007812 L 170.460938 151.742188 L 175.007812 145.929688 L 187.136719 143.457031 L 187.136719 139.453125 L 192.078125 137.453125 L 192.257812 148.585938 L 195.671875 146.421875 L 195.699219 141.792969 L 223.160156 136.304688 Z M 190.152344 174.007812 " fill-opacity="1" fill-rule="nonzero"/></g><path fill="#ffffff" d="M 132.582031 151.992188 L 164.238281 188.089844 L 200.039062 187.988281 L 173.390625 161.230469 Z M 132.582031 151.992188 " fill-opacity="1" fill-rule="nonzero"/><path fill="#ffffff" d="M 129.222656 174.0625 L 133.839844 174.0625 L 133.839844 178.683594 L 129.222656 178.683594 Z M 129.222656 174.0625 " fill-opacity="1" fill-rule="nonzero"/><path fill="#ffffff" d="M 129.222656 181.105469 L 133.839844 181.105469 L 133.839844 185.726562 L 129.222656 185.726562 Z M 129.222656 181.105469 " fill-opacity="1" fill-rule="nonzero"/><path fill="#ffffff" d="M 136.265625 174.0625 L 140.882812 174.0625 L 140.882812 178.683594 L 136.265625 178.683594 Z M 136.265625 174.0625 " fill-opacity="1" fill-rule="nonzero"/><path fill="#ffffff" d="M 136.265625 181.105469 L 140.882812 181.105469 L 140.882812 185.726562 L 136.265625 185.726562 Z M 136.265625 181.105469 " fill-opacity="1" fill-rule="nonzero"/><path fill="#ffffff" d="M 131.152344 153.316406 C 120.945312 164.886719 110.730469 176.46875 100.488281 187.984375 L 105.253906 188 L 133.613281 156.066406 Z M 131.152344 153.316406 " fill-opacity="1" fill-rule="nonzero"/><path fill="#ffffff" d="M 225.054688 137.28125 L 221.863281 140.855469 L 264.808594 187.484375 L 271.066406 187.441406 C 257.527344 172.457031 237.210938 151.058594 225.054688 137.28125 Z M 225.054688 137.28125 " fill-opacity="1" fill-rule="nonzero"/><path fill="#647b94" d="M 246.484375 202.664062 C 246.457031 202.878906 246.433594 203.066406 246.414062 203.226562 C 246.402344 203.097656 246.429688 202.902344 246.484375 202.664062 Z M 246.484375 202.664062 " fill-opacity="1" fill-rule="evenodd"/><path fill="#647b94" d="M 216.074219 195.992188 C 216 196.324219 215.921875 196.636719 215.835938 196.925781 C 215.882812 196.714844 215.96875 196.386719 216.074219 195.992188 Z M 216.074219 195.992188 " fill-opacity="1" fill-rule="evenodd"/><path fill="#647b94" d="M 183.953125 196.269531 C 183.96875 196.679688 183.960938 197.144531 183.863281 197.40625 C 183.828125 197.242188 183.792969 197.03125 183.753906 196.804688 C 183.820312 196.625 183.886719 196.445312 183.953125 196.269531 Z M 183.953125 196.269531 " fill-opacity="1" fill-rule="evenodd"/><path fill="#647b94" d="M 193.371094 196.214844 C 193.382812 196.300781 193.398438 196.371094 193.410156 196.433594 C 193.390625 196.386719 193.378906 196.3125 193.371094 196.214844 Z M 193.371094 196.214844 " fill-opacity="1" fill-rule="evenodd"/><path fill="#647b94" d="M 181.285156 197.359375 C 181.296875 197.492188 181.304688 197.617188 181.304688 197.738281 C 181.300781 197.652344 181.289062 197.519531 181.285156 197.359375 Z M 181.285156 197.359375 " fill-opacity="1" fill-rule="evenodd"/><path fill="#647b94" d="M 170.570312 200.386719 C 170.574219 200.269531 170.589844 200.097656 170.609375 199.890625 C 170.601562 200.0625 170.585938 200.230469 170.570312 200.386719 Z M 170.570312 200.386719 " fill-opacity="1" fill-rule="evenodd"/><path fill="#647b94" d="M 180.882812 198.773438 C 180.574219 198.808594 180.265625 198.847656 179.960938 198.886719 C 180.058594 197.835938 180.335938 197.144531 180.640625 196.257812 L 180.617188 196.84375 Z M 180.882812 198.773438 " fill-opacity="1" fill-rule="evenodd"/><path fill="#647b94" d="M 123.242188 208.550781 L 123.226562 208.195312 C 123.5625 208.257812 123.746094 208.332031 123.929688 208.410156 C 123.699219 208.457031 123.472656 208.503906 123.242188 208.550781 Z M 123.242188 208.550781 " fill-opacity="1" fill-rule="evenodd"/><path fill="#647b94" d="M 107.246094 212.753906 C 107.167969 212.410156 107.042969 212.765625 106.828125 212.128906 C 107.210938 212.390625 107.429688 212.542969 107.609375 212.636719 Z M 107.246094 212.753906 " fill-opacity="1" fill-rule="evenodd"/><path fill="#647b94" d="M 106.0625 213.144531 L 106.027344 212.710938 C 106.5625 212.941406 106.515625 213.113281 106.699219 212.632812 C 106.839844 212.757812 106.875 212.816406 106.925781 212.859375 C 106.636719 212.953125 106.347656 213.046875 106.0625 213.144531 Z M 106.0625 213.144531 " fill-opacity="1" fill-rule="evenodd"/><path fill="#ffffff" d="M 141.1875 205.605469 L 142.703125 205.59375 C 142.417969 205.625 142.128906 205.652344 141.84375 205.683594 C 139.019531 205.976562 136.238281 206.328125 133.511719 206.730469 C 132.253906 206.917969 131.003906 207.113281 129.769531 207.324219 C 128.898438 207.296875 128.710938 207.417969 127.71875 207.125 C 127.714844 207.113281 127.714844 207.105469 127.710938 207.097656 C 127.738281 207.070312 127.765625 207.03125 127.800781 206.976562 C 128 206.667969 127.949219 206.980469 127.953125 206.75 C 127.671875 206.507812 127.277344 206.15625 127.058594 205.898438 L 128.6875 206.28125 C 128.175781 205.703125 127.375 205.324219 127.039062 204.605469 C 127.90625 204.847656 128.421875 205.304688 129.261719 205.605469 L 131.148438 205.390625 C 130.824219 205.097656 130.597656 205.101562 130.140625 204.886719 L 129.21875 204.15625 L 130.914062 204.492188 L 130.753906 203.894531 C 130.746094 203.871094 130.722656 203.824219 130.71875 203.800781 L 131.113281 202.9375 C 130.097656 203.117188 129.515625 203.332031 128.386719 203.277344 C 128.824219 202.894531 128.933594 203.039062 129.269531 202.492188 C 127.996094 202.863281 127.015625 203.394531 125.804688 202.539062 L 125.976562 202.152344 C 126.410156 202.210938 126.777344 202.246094 127.210938 202.066406 C 127.480469 201.957031 127.492188 201.925781 127.625 201.835938 C 127.375 201.761719 127.5 201.847656 127.226562 201.703125 C 127.195312 201.6875 127.140625 201.660156 127.105469 201.640625 C 127.074219 201.621094 127.027344 201.582031 126.996094 201.5625 C 126.96875 201.542969 126.917969 201.492188 126.894531 201.476562 C 126.867188 201.457031 126.824219 201.417969 126.792969 201.382812 C 127.792969 201.339844 128.617188 201.074219 129.332031 200.730469 C 129.289062 200.703125 129.226562 200.621094 129.203125 200.65625 C 129.175781 200.699219 129.039062 200.570312 128.9375 200.511719 L 128.675781 200.351562 C 128.640625 200.332031 128.585938 200.296875 128.542969 200.265625 C 129.464844 199.894531 129.101562 200.164062 129.148438 199.316406 L 127.375 199.539062 C 127.367188 199.445312 127.382812 199.402344 127.382812 199.414062 C 127.382812 199.429688 127.398438 199.367188 127.398438 199.363281 C 127.402344 199.257812 127.417969 199.214844 127.4375 199.203125 C 127.421875 199.175781 127.398438 199.140625 127.371094 199.09375 C 125.972656 199.199219 124.734375 199.355469 124.328125 198.144531 C 124.882812 198.199219 125.074219 198.382812 125.808594 198.292969 C 126.496094 198.207031 126.878906 198.074219 127.519531 197.910156 C 127.046875 197.421875 127.132812 197.652344 126.511719 197.441406 C 128.015625 197.132812 127.253906 196.65625 128.15625 196.253906 C 127.410156 196.179688 126.492188 196.761719 125.871094 196.328125 C 125.339844 195.953125 126.015625 196.351562 125.804688 195.964844 C 124.738281 195.675781 123.890625 195.574219 123.847656 194.34375 C 124.269531 194.414062 124.667969 194.574219 125.039062 194.632812 C 126.433594 194.847656 124.558594 194.390625 126.167969 194.40625 C 125.527344 193.503906 125.566406 194.25 126.535156 193.734375 L 123.859375 192.53125 L 124.515625 191.925781 C 122.8125 191.300781 124.539062 191.097656 122.96875 190.929688 C 122.996094 190.75 123.015625 190.601562 123.027344 190.480469 C 123.117188 189.59375 122.816406 190.175781 122.351562 189.566406 C 122.035156 189.15625 122.558594 189.046875 121.808594 188.375 C 121.542969 188.925781 121.566406 189.425781 121.378906 189.644531 C 120.9375 190.15625 120.628906 189.722656 120.785156 190.480469 C 120.804688 190.59375 120.839844 190.730469 120.882812 190.902344 C 119.394531 191.3125 120.703125 191.292969 119.808594 191.839844 C 119.457031 192.050781 120.039062 191.699219 119.539062 191.960938 C 119.492188 191.988281 119.441406 192.011719 119.394531 192.035156 L 119.996094 192.472656 C 119.800781 192.671875 117.65625 193.8125 117.40625 193.894531 C 117.945312 194.167969 117.871094 194.074219 117.953125 194.328125 L 117.976562 194.433594 C 118.476562 195.199219 118.949219 194.582031 119.625 194.539062 C 120.890625 194.453125 119.859375 195.871094 117.878906 196.09375 C 118.140625 196.453125 118.230469 196.1875 118.140625 196.515625 C 117.144531 196.710938 116.84375 196.410156 115.921875 196.417969 L 116.382812 197.113281 C 116.609375 197.410156 117.140625 197.539062 117.59375 197.621094 C 116.898438 197.855469 117.042969 197.6875 116.582031 198.113281 C 117.441406 198.257812 118.292969 198.515625 119.171875 198.394531 C 119.746094 198.3125 119.371094 198.105469 119.671875 198.300781 C 119.917969 198.679688 119.332031 199.058594 118.742188 199.179688 C 118.046875 199.320312 117.277344 199.300781 116.574219 199.285156 L 116.589844 199.609375 C 116.585938 199.617188 116.585938 199.664062 116.574219 199.6875 C 116.023438 199.734375 115.339844 199.515625 115.03125 199.832031 C 114.675781 200.199219 115.4375 200.449219 115.6875 200.546875 L 114.882812 200.839844 C 115.539062 201.472656 116.390625 201.503906 117.410156 201.574219 L 116.449219 202.167969 C 117.128906 202.277344 117.484375 202.433594 118.140625 202.300781 L 118.316406 202.769531 C 117.257812 203.542969 116.195312 203.007812 115.003906 202.773438 C 115.382812 203.269531 115.304688 203.117188 115.855469 203.464844 C 114.804688 203.632812 114.160156 203.429688 113.167969 203.257812 C 113.203125 203.304688 113.265625 203.300781 113.285156 203.378906 L 113.558594 203.699219 C 113.816406 204.140625 113.285156 203.714844 113.574219 204.640625 C 113.582031 204.660156 113.59375 204.71875 113.613281 204.75 L 115.136719 204.386719 C 114.539062 205.144531 114.03125 205.15625 113.125 205.695312 L 114.253906 205.933594 C 114.367188 205.984375 114.441406 206.023438 114.492188 206.050781 L 117.335938 204.730469 C 116.851562 205.902344 116.355469 205.472656 115.859375 206.261719 C 116.304688 206.53125 116.800781 206.199219 117.308594 206.066406 C 116.800781 207.011719 115.664062 206.839844 116.859375 207.234375 C 115.9375 207.652344 115.609375 207.574219 114.566406 207.578125 C 115.011719 207.957031 115.421875 208.023438 115.703125 208.613281 C 116.761719 208.609375 117.402344 208.335938 118.265625 208.050781 L 116.828125 208.921875 C 117.882812 208.933594 118.945312 208.445312 119.8125 208.480469 C 119.824219 208.484375 119.863281 208.492188 119.871094 208.492188 L 120.082031 208.5625 C 120.339844 208.554688 120.8125 208.292969 121.195312 208.25 L 121.21875 208.984375 C 120.53125 209.136719 119.847656 209.289062 119.171875 209.449219 C 118.65625 209.472656 118.175781 209.539062 117.824219 209.726562 L 118.011719 209.726562 C 115.105469 210.429688 112.289062 211.195312 109.574219 212.023438 L 109.570312 212.019531 C 109.566406 212.019531 109.195312 211.886719 109.167969 211.878906 C 108.515625 211.683594 107.464844 211.386719 107.078125 210.929688 C 107.6875 211.160156 108.703125 211.25 109.464844 211.234375 C 109.269531 210.898438 109.28125 211.003906 109.0625 210.789062 C 109.628906 210.777344 109.960938 210.675781 110.382812 210.476562 C 110.167969 210.289062 110.433594 210.375 109.964844 210.308594 C 109.253906 210.207031 109.007812 210.351562 108.222656 210.089844 L 108.96875 210.09375 L 108.324219 209.714844 L 109.015625 209.410156 C 109.1875 209.292969 109.074219 209.394531 109.210938 209.242188 C 108.714844 209.070312 108.089844 208.867188 107.894531 208.367188 L 108.964844 208.242188 L 108.832031 208 C 108.699219 207.804688 108.507812 207.863281 108.097656 207.460938 C 107.601562 206.96875 107.382812 207.132812 106.898438 206.425781 C 107.546875 206.726562 107.472656 206.988281 108.546875 206.867188 C 108.359375 206.566406 107.914062 206.4375 107.597656 206.210938 C 107.617188 206.203125 107.648438 206.183594 107.65625 206.203125 L 108.226562 206.121094 C 108.105469 205.980469 108.015625 205.9375 107.945312 205.867188 L 107.238281 205.273438 C 106.707031 204.980469 107.066406 205.332031 106.886719 204.921875 C 107.179688 205.015625 107.398438 205.136719 107.773438 205.113281 L 107.335938 204.824219 L 107.65625 204.535156 C 107.671875 204.519531 107.699219 204.492188 107.71875 204.472656 C 107.242188 204.410156 106.882812 204.101562 106.546875 203.878906 C 106.589844 203.882812 106.847656 203.921875 106.855469 203.921875 L 107.167969 203.847656 C 106.859375 203.398438 106.761719 202.949219 106.1875 202.914062 L 105.710938 202.878906 C 106.027344 202.761719 106.28125 202.664062 106.714844 202.652344 C 106.5 202.222656 106.453125 202.578125 106.566406 201.976562 C 106.246094 202.046875 106.191406 202.101562 105.972656 202.230469 L 105.980469 201.828125 C 105.914062 201.355469 105.867188 201.148438 105.523438 200.8125 C 105.179688 201.5625 105.671875 201.222656 105 201.429688 L 105.085938 202.121094 L 104.417969 202.5 C 104.601562 202.675781 104.699219 202.632812 104.960938 202.765625 C 104.5625 203.050781 104.558594 202.925781 104.230469 203.320312 C 103.988281 203.613281 103.933594 203.527344 103.753906 203.832031 L 103.601562 204.132812 L 104.488281 203.992188 C 104.019531 204.261719 104.074219 204.414062 103.414062 204.484375 L 103.742188 204.777344 L 103.324219 205.179688 C 103.679688 205.144531 103.875 205.035156 104.117188 204.921875 C 103.871094 205.34375 103.820312 205.234375 103.546875 205.550781 L 102.929688 206.25 L 103.582031 206.164062 C 103.300781 206.476562 103.011719 206.605469 102.648438 206.828125 C 102.632812 206.839844 102.597656 206.859375 102.578125 206.878906 C 103.09375 207.136719 103.769531 206.84375 104.207031 206.589844 L 102.664062 207.804688 C 102.398438 207.9375 102.246094 207.890625 102.003906 208.039062 C 102.472656 208.378906 102.644531 208.375 103.269531 208.34375 C 103.125 209.007812 102.675781 208.957031 102.082031 209.367188 C 102.160156 209.445312 102.109375 209.410156 102.265625 209.496094 C 102.394531 209.5625 102.355469 209.546875 102.484375 209.597656 C 102.789062 209.71875 102.675781 209.707031 103.082031 209.746094 L 102.460938 210.035156 C 102.480469 210.03125 102.535156 210.007812 102.550781 210.050781 C 102.628906 210.261719 103.070312 209.996094 102.8125 210.234375 C 102.378906 210.640625 101.34375 210.257812 100.910156 210.554688 C 101.351562 210.8125 101.671875 210.851562 102.214844 210.839844 L 101.859375 211.285156 C 102.53125 211.34375 103.183594 211.082031 103.800781 211.160156 C 104.046875 211.191406 103.914062 211.160156 104.058594 211.242188 L 101.457031 212.179688 C 101.789062 212.511719 102.257812 212.4375 102.75 212.386719 C 102.589844 212.640625 102.316406 212.605469 102.207031 212.792969 C 103.316406 213.011719 104.191406 212.589844 104.628906 212.007812 C 104.511719 212.289062 104.519531 212.289062 104.332031 212.507812 C 104.011719 212.886719 104.03125 212.558594 104.074219 212.980469 C 104.519531 213.015625 104.445312 212.667969 104.6875 212.75 C 104.695312 212.753906 104.71875 212.777344 104.726562 212.78125 C 104.734375 212.785156 104.757812 212.8125 104.765625 212.816406 C 105.042969 212.941406 104.980469 212.867188 105.304688 212.703125 L 105.28125 213.410156 C 103.542969 214.003906 101.855469 214.621094 100.210938 215.265625 C 103.40625 214.902344 106.652344 214.566406 109.945312 214.253906 C 118.566406 213.4375 127.519531 212.789062 136.730469 212.335938 C 147.355469 211.808594 158.332031 211.53125 169.5625 211.53125 C 188.285156 211.53125 206.304688 212.296875 223.164062 213.714844 C 206.769531 207.976562 186.160156 204.558594 163.777344 204.558594 C 160.375 204.558594 157.015625 204.636719 153.707031 204.792969 C 151.9375 204.875 150.1875 204.976562 148.449219 205.101562 C 148.359375 205.09375 148.269531 205.085938 148.1875 205.074219 L 148.125 203.640625 C 148.84375 203.769531 149.015625 203.945312 149.566406 204.113281 C 150.308594 204.339844 149.597656 204.039062 150.363281 203.953125 C 151.328125 203.851562 152.585938 204.460938 153.863281 204.273438 C 153.128906 203.765625 152.765625 203.988281 152.101562 203.378906 L 154.996094 203.976562 C 155.691406 203.488281 155.074219 203.710938 155.710938 203.210938 C 156.167969 202.847656 156.332031 202.878906 156.777344 202.53125 C 155.4375 202.457031 155.257812 202.667969 153.894531 202.261719 C 153.890625 202.253906 153.886719 202.242188 153.886719 202.230469 C 153.917969 202.195312 153.957031 202.144531 154 202.074219 C 154.257812 201.679688 154.191406 202.078125 154.195312 201.785156 C 153.832031 201.46875 153.328125 201.019531 153.046875 200.6875 L 155.136719 201.179688 C 154.484375 200.4375 153.453125 199.953125 153.023438 199.027344 C 154.136719 199.335938 154.796875 199.925781 155.875 200.3125 L 158.300781 200.035156 C 157.878906 199.660156 157.589844 199.664062 157.003906 199.390625 L 155.820312 198.453125 L 157.996094 198.882812 L 157.792969 198.117188 C 157.785156 198.085938 157.753906 198.023438 157.742188 197.996094 L 158.253906 196.886719 C 156.949219 197.117188 156.203125 197.394531 154.753906 197.324219 C 155.316406 196.832031 155.457031 197.019531 155.886719 196.3125 C 154.25 196.792969 152.988281 197.472656 151.433594 196.375 L 151.65625 195.878906 C 152.210938 195.953125 152.683594 196 153.242188 195.769531 C 153.589844 195.625 153.605469 195.589844 153.773438 195.472656 C 153.449219 195.375 153.613281 195.488281 153.261719 195.304688 C 153.222656 195.28125 153.152344 195.246094 153.109375 195.222656 C 153.070312 195.195312 153.007812 195.148438 152.96875 195.121094 C 152.929688 195.097656 152.863281 195.035156 152.835938 195.011719 C 152.804688 194.988281 152.746094 194.933594 152.703125 194.890625 C 153.992188 194.832031 155.046875 194.496094 155.964844 194.050781 C 155.914062 194.015625 155.828125 193.914062 155.796875 193.960938 C 155.761719 194.015625 155.589844 193.847656 155.460938 193.773438 L 155.121094 193.566406 C 155.078125 193.542969 155.007812 193.5 154.953125 193.457031 C 156.136719 192.980469 155.671875 193.328125 155.730469 192.238281 L 153.457031 192.523438 C 153.441406 192.402344 153.464844 192.347656 153.464844 192.363281 C 153.464844 192.378906 153.480469 192.304688 153.484375 192.296875 C 153.488281 192.164062 153.511719 192.109375 153.53125 192.09375 C 153.511719 192.058594 153.480469 192.011719 153.445312 191.949219 C 151.652344 192.085938 150.066406 192.289062 149.539062 190.734375 C 150.25 190.804688 150.5 191.039062 151.441406 190.921875 C 152.324219 190.8125 152.8125 190.640625 153.640625 190.433594 C 153.03125 189.804688 153.140625 190.101562 152.339844 189.832031 C 154.273438 189.429688 153.296875 188.824219 154.457031 188.304688 C 153.496094 188.207031 152.316406 188.957031 151.523438 188.398438 C 150.839844 187.917969 151.707031 188.429688 151.433594 187.933594 C 150.070312 187.566406 148.976562 187.433594 148.925781 185.851562 C 149.464844 185.941406 149.976562 186.148438 150.453125 186.222656 C 152.242188 186.496094 149.839844 185.910156 151.902344 185.933594 C 151.078125 184.773438 151.128906 185.730469 152.375 185.070312 L 148.9375 183.527344 L 149.78125 182.75 C 147.59375 181.945312 149.808594 181.683594 147.792969 181.46875 C 147.828125 181.238281 147.851562 181.046875 147.867188 180.894531 C 147.984375 179.753906 147.597656 180.503906 147 179.71875 C 146.597656 179.191406 147.265625 179.050781 146.300781 178.1875 C 145.964844 178.894531 145.996094 179.535156 145.75 179.820312 C 145.183594 180.472656 144.789062 179.917969 144.988281 180.894531 C 145.015625 181.035156 145.058594 181.214844 145.113281 181.433594 C 143.203125 181.960938 144.886719 181.933594 143.734375 182.636719 C 143.285156 182.90625 144.03125 182.457031 143.390625 182.792969 C 143.328125 182.828125 143.265625 182.859375 143.203125 182.890625 L 143.976562 183.449219 C 143.726562 183.707031 140.96875 185.171875 140.648438 185.277344 C 141.34375 185.628906 141.246094 185.507812 141.355469 185.832031 L 141.386719 185.96875 C 142.023438 186.953125 142.632812 186.160156 143.5 186.101562 C 145.125 185.988281 143.804688 187.8125 141.257812 188.097656 C 141.59375 188.558594 141.710938 188.21875 141.59375 188.640625 C 140.316406 188.890625 139.925781 188.507812 138.742188 188.515625 L 139.339844 189.410156 C 139.628906 189.785156 140.3125 189.953125 140.890625 190.058594 C 140 190.359375 140.183594 190.144531 139.59375 190.691406 C 140.695312 190.878906 141.789062 191.210938 142.917969 191.050781 C 143.65625 190.949219 143.171875 190.679688 143.558594 190.929688 C 143.875 191.421875 143.121094 191.90625 142.363281 192.0625 C 141.472656 192.242188 140.484375 192.214844 139.582031 192.195312 L 139.601562 192.613281 C 139.597656 192.625 139.59375 192.683594 139.582031 192.714844 C 138.871094 192.773438 137.996094 192.492188 137.601562 192.898438 C 137.140625 193.375 138.121094 193.691406 138.441406 193.816406 L 137.410156 194.195312 C 138.25 195.007812 139.347656 195.046875 140.65625 195.136719 L 139.421875 195.898438 C 140.292969 196.039062 140.753906 196.242188 141.59375 196.070312 L 141.816406 196.671875 C 140.457031 197.664062 139.097656 196.976562 137.566406 196.675781 C 138.054688 197.3125 137.949219 197.117188 138.65625 197.566406 C 137.308594 197.78125 136.480469 197.519531 135.210938 197.296875 C 135.253906 197.355469 135.335938 197.355469 135.359375 197.453125 L 135.707031 197.863281 C 136.042969 198.429688 135.355469 197.882812 135.730469 199.070312 C 135.738281 199.097656 135.757812 199.171875 135.78125 199.214844 L 137.738281 198.75 C 136.972656 199.722656 136.316406 199.738281 135.152344 200.425781 L 136.605469 200.734375 C 136.75 200.800781 136.847656 200.847656 136.90625 200.886719 L 140.5625 199.191406 C 139.9375 200.691406 139.300781 200.144531 138.660156 201.152344 C 139.234375 201.5 139.875 201.074219 140.523438 200.902344 C 139.875 202.117188 138.414062 201.898438 139.945312 202.402344 C 138.765625 202.941406 138.34375 202.839844 137.003906 202.847656 C 137.578125 203.332031 138.101562 203.421875 138.464844 204.175781 C 139.820312 204.171875 140.644531 203.820312 141.753906 203.453125 L 139.90625 204.574219 C 141.261719 204.585938 142.628906 203.960938 143.742188 204.007812 C 143.753906 204.007812 143.804688 204.019531 143.816406 204.023438 L 144.089844 204.113281 C 144.417969 204.097656 145.023438 203.765625 145.515625 203.707031 L 145.5625 205.132812 C 144.222656 205.347656 142.25 205.039062 141.1875 205.605469 Z M 141.1875 205.605469 " fill-opacity="1" fill-rule="evenodd"/><path fill="#ffffff" d="M 174.550781 203.132812 C 201.058594 203.132812 225.074219 207.925781 242.550781 215.691406 C 254.738281 217.160156 266.132812 218.984375 276.53125 221.113281 C 276.230469 220.816406 275.917969 220.523438 275.601562 220.230469 L 277.027344 212.054688 C 276.675781 213.121094 276.386719 214.132812 276.167969 214.945312 C 275.917969 215.871094 275.496094 218.5 275.203125 219.039062 C 274.464844 217.519531 275.214844 214.625 275.632812 212.863281 C 275.851562 211.933594 277.351562 207.410156 277.292969 207.09375 C 276.09375 208.308594 275.3125 210.484375 274.660156 212.382812 L 273.234375 217.164062 C 273.171875 217.417969 273.121094 217.71875 273.039062 218 C 272.960938 217.9375 272.882812 217.875 272.804688 217.8125 C 273.058594 214.800781 273.378906 212.867188 274.527344 209.8125 C 275.78125 206.46875 277.5625 203.972656 277.996094 202.859375 C 276.246094 203.460938 274.503906 206.910156 273.503906 209.246094 C 272.328125 211.972656 271.820312 214.082031 271.050781 216.457031 C 270.96875 216.398438 270.882812 216.335938 270.800781 216.273438 C 271.648438 211.082031 273.839844 201.070312 271.964844 198.347656 C 271.820312 202.316406 271.671875 204.496094 270.410156 208.277344 C 270.351562 208.453125 270.289062 208.675781 270.21875 208.851562 C 270.183594 208.933594 270.128906 209.054688 270.089844 209.132812 C 269.964844 209.363281 269.988281 209.304688 269.910156 209.402344 C 270.339844 207.210938 270.636719 205.957031 270.195312 203.917969 C 269.980469 205.5 270.132812 206.28125 269.199219 207.714844 C 268.597656 208.640625 267.683594 209.457031 266.941406 209.765625 C 267.007812 207.632812 267.582031 205.753906 268.363281 203.851562 C 268.71875 202.996094 269.125 202.191406 269.542969 201.382812 C 269.925781 200.636719 270.515625 199.792969 270.839844 199.089844 C 268.878906 199.980469 267.328125 204.945312 266.386719 206.777344 C 266.566406 205.8125 266.796875 204.917969 266.921875 203.933594 L 266.910156 201.328125 C 266.578125 202.945312 266.433594 204.21875 265.882812 205.816406 C 265.613281 206.609375 264.777344 208.777344 264.328125 209.265625 C 263.875 206.539062 265.339844 202.089844 265.574219 199.304688 C 264.738281 200.203125 263.761719 203.871094 263.390625 205.304688 C 263.050781 204.136719 263.761719 201.75 263.070312 199.832031 C 262.933594 201.394531 263.089844 202.453125 262.667969 204.171875 C 262.398438 205.285156 261.804688 206.9375 261.167969 207.761719 C 260.980469 206.839844 262.199219 203.792969 261.269531 202.285156 C 261.1875 203.5 261.023438 204.179688 260.472656 205.207031 C 260.171875 205.769531 259.476562 207.070312 259.039062 207.378906 C 258.847656 206.125 259.746094 202.523438 260.160156 201.183594 C 260.65625 199.574219 261.902344 196.710938 262.148438 195.792969 C 260.378906 197.199219 259.578125 201.875 258.527344 203.683594 C 258.632812 202.699219 258.660156 201.746094 258.53125 200.824219 C 258.398438 199.8125 258.03125 199.371094 257.8125 198.628906 C 257.773438 199.121094 257.941406 199.886719 257.9375 200.515625 C 257.933594 201.273438 257.851562 202.054688 257.710938 202.816406 C 257.558594 203.628906 257.007812 206.160156 256.28125 206.789062 C 256.570312 205.070312 257.019531 201.757812 256.382812 200.378906 C 256.011719 201.800781 255.449219 203.03125 254.765625 204.1875 C 254.355469 204.882812 253.710938 206.035156 253.140625 206.765625 C 253.015625 206.714844 252.894531 206.664062 252.765625 206.613281 C 253.285156 200.640625 254.515625 199.894531 255.210938 196.089844 C 253.101562 197.574219 252.023438 203.972656 251.023438 205.949219 L 250.871094 205.890625 L 251.738281 200.160156 C 250.792969 201.027344 250.636719 203.820312 249.9375 204.890625 C 250.398438 201.328125 250.902344 199.335938 250.472656 195.871094 C 250.28125 196.628906 250.265625 197.785156 250.09375 198.679688 C 249.832031 200.011719 248.992188 203.03125 248.175781 204.929688 C 247.859375 204.820312 247.539062 204.714844 247.214844 204.609375 C 247.257812 202.46875 248.144531 200.566406 248.765625 198.40625 C 247.941406 198.933594 246.789062 201.410156 246.484375 202.660156 C 246.847656 200.070312 248.058594 193.710938 247.730469 192.394531 C 246.828125 196.5 245.972656 199.945312 244.804688 203.835938 C 244.738281 203.816406 244.667969 203.792969 244.597656 203.769531 C 244.714844 202.695312 244.859375 201.636719 244.925781 200.519531 C 244.976562 199.683594 244.925781 196.9375 245.015625 196.515625 C 244.367188 198.644531 243.929688 201.121094 243.28125 203.375 C 242.980469 203.289062 242.675781 203.203125 242.371094 203.113281 C 242.4375 200.148438 243.558594 197.046875 244.476562 194.34375 L 244.390625 194.402344 L 243.617188 195.289062 C 242.066406 197.445312 241.433594 200.105469 240.820312 202.679688 C 240.589844 202.617188 240.355469 202.554688 240.121094 202.492188 C 240.234375 201.664062 240.429688 200.828125 240.5625 200.261719 C 240.742188 199.5 241.753906 196.632812 241.769531 196.03125 L 241.742188 195.847656 C 240.878906 197.273438 240.460938 198.046875 239.84375 199.828125 C 239.734375 200.148438 239.429688 201.21875 239.132812 202.234375 C 238.929688 202.183594 238.730469 202.132812 238.527344 202.082031 C 238.925781 199.730469 240.128906 196.796875 240.945312 195.175781 C 241.363281 194.339844 241.972656 193.457031 242.335938 192.65625 C 241.691406 192.839844 241.332031 193.34375 240.941406 193.851562 C 239.789062 195.363281 239.058594 197.160156 238.347656 198.917969 C 238.539062 196.339844 239.296875 191.132812 238.039062 189.402344 C 237.964844 190.226562 238.074219 191.304688 238 192.277344 C 237.785156 195.277344 236.882812 198.195312 235.902344 200.933594 C 236.292969 198.257812 236.554688 197.886719 236.355469 195.15625 C 236.058594 195.675781 236.167969 197.410156 235.289062 198.824219 C 234.796875 199.617188 233.640625 200.71875 233.039062 200.816406 L 233.011719 200.808594 C 233.546875 195.082031 235.101562 194.222656 236.886719 190.214844 C 236.53125 190.351562 236.324219 190.636719 236.074219 190.921875 C 234.09375 193.207031 233.632812 196.0625 232.523438 197.691406 C 232.777344 195.90625 233.382812 193.902344 233.023438 192.191406 C 232.273438 195.679688 232.164062 197.0625 230.472656 200.304688 L 230.417969 200.296875 C 229.957031 198.316406 231.394531 192.605469 231.675781 190.34375 C 230.78125 191.523438 230.261719 194.105469 229.632812 195.671875 C 229.429688 194.355469 229.582031 192.949219 229.335938 191.613281 L 229.152344 191.058594 C 229.023438 192.652344 229.109375 193.753906 228.703125 195.425781 C 228.4375 196.511719 227.863281 198.21875 227.203125 198.867188 C 227.414062 197.726562 227.648438 196.761719 227.6875 195.589844 C 227.726562 194.46875 227.730469 194.304688 227.34375 193.277344 C 227.222656 195.414062 226.71875 195.210938 225.792969 196.851562 L 225.316406 197.679688 C 225.09375 197.984375 225.253906 197.777344 225.113281 197.910156 C 225.277344 195.828125 225.734375 193.878906 226.351562 191.90625 C 226.898438 190.167969 227.820312 188.3125 228.265625 186.835938 C 226.753906 188.398438 225.402344 192.214844 224.726562 194.679688 L 224.703125 193.308594 C 224.714844 192.210938 224.558594 190.554688 223.878906 189.800781 C 223.933594 191.507812 224.140625 192.289062 223.734375 194.207031 C 223.492188 195.367188 222.964844 197.3125 222.332031 198.121094 C 222.53125 196.414062 223.21875 192.878906 222.464844 191.535156 C 222.058594 192.828125 221.640625 193.875 220.984375 195.039062 L 220.535156 195.761719 C 220.382812 195.929688 220.445312 195.867188 220.292969 195.972656 L 220.121094 195.230469 C 220.003906 196.601562 220.167969 196.789062 218.855469 198.308594 C 218.265625 196.285156 220.769531 189.527344 221.28125 187.214844 C 220.460938 187.585938 219.746094 189.449219 219.320312 190.476562 C 219.003906 191.242188 218.796875 191.402344 218.382812 192.085938 L 217.496094 193.6875 C 217.492188 193.667969 217.457031 193.746094 217.421875 193.765625 L 217.761719 191.257812 C 217.3125 191.777344 216.503906 194.414062 216.074219 195.992188 C 216.527344 193.953125 216.746094 191.257812 216.757812 189.328125 C 216.757812 188.628906 216.800781 187.738281 216.515625 187.152344 C 216.273438 189.164062 216.0625 190.585938 215.460938 192.519531 L 214.832031 194.246094 C 214.765625 194.460938 214.71875 194.65625 214.636719 194.882812 C 214.472656 195.335938 213.960938 196.605469 213.71875 196.9375 L 213.332031 195.257812 C 213.242188 193.710938 214.460938 190.917969 214.867188 189.480469 C 214.175781 189.902344 213.25 191.710938 212.800781 193.109375 L 212.566406 194.464844 C 212.566406 193.265625 212.449219 191.945312 212 191.277344 C 211.96875 191.460938 212.003906 193.539062 211.863281 194.648438 C 211.726562 195.773438 211.457031 197 210.90625 197.855469 C 210.90625 196.046875 211.152344 194.226562 211.289062 192.402344 C 211.070312 193.125 210.765625 193.933594 210.542969 194.726562 C 210.292969 195.613281 210.175781 196.503906 209.945312 197.363281 C 209.957031 197.308594 210.105469 193.984375 210.132812 193.585938 C 210.226562 192.144531 210.398438 190.890625 210.609375 189.457031 C 210.152344 190.160156 209.5 194.566406 209.257812 195.722656 C 209.21875 194.851562 209.351562 193.582031 208.910156 192.828125 C 208.871094 192.757812 208.878906 192.773438 208.835938 192.71875 C 208.8125 194.242188 208.917969 196.132812 208.085938 197.421875 C 207.777344 196.777344 207.925781 193.679688 208.046875 192.722656 C 208.128906 192.101562 208.304688 191.582031 208.402344 191.007812 C 207.488281 192.375 207.210938 194.898438 206.894531 196.636719 C 206.894531 196.34375 206.9375 195.773438 206.96875 195.175781 C 207.007812 194.339844 207.03125 193.441406 206.886719 193.144531 C 206.730469 193.382812 206.625 194.515625 206.550781 194.910156 C 206.460938 195.394531 206.394531 196.070312 206.21875 196.523438 C 206.214844 196.539062 206.207031 196.554688 206.199219 196.566406 L 206.15625 196.648438 C 206.101562 196.320312 206.191406 195.375 206.203125 194.96875 C 206.226562 193.90625 206.347656 190.867188 205.707031 190.25 C 205.65625 191.773438 205.601562 195.65625 204.945312 196.898438 C 204.390625 195.289062 204.257812 194.035156 204.246094 192.351562 C 203.410156 193.488281 203.417969 194.972656 203.03125 196.152344 C 202.929688 194.894531 202.917969 193.558594 203.316406 192.308594 C 203.460938 191.851562 203.660156 191.539062 203.804688 191.15625 C 202.960938 191.628906 202.847656 192.953125 202.441406 193.585938 C 202.316406 193.214844 202.53125 190.457031 202.0625 188.996094 L 201.925781 188.734375 C 201.917969 189.816406 202.054688 190.628906 202.007812 192.085938 C 201.976562 192.964844 201.808594 195.023438 201.445312 195.753906 L 201.3125 195.4375 C 201.277344 195.289062 201.253906 195.195312 201.210938 195.042969 C 201.140625 194.773438 201.089844 194.5 201.058594 194.226562 C 200.976562 193.589844 200.957031 192.988281 201.253906 192.402344 C 200.445312 193.242188 200.453125 194.378906 200.210938 195.605469 C 199.824219 194.683594 200.027344 192.929688 200.300781 191.921875 C 200.402344 191.535156 200.609375 191.078125 200.679688 190.738281 L 200.253906 191.421875 L 199.742188 194.601562 C 199.625 194.15625 199.507812 193.601562 199.191406 193.191406 C 199.324219 193.785156 199.507812 194.160156 199.558594 194.847656 C 199.582031 195.167969 199.574219 195.605469 199.519531 195.96875 L 199.507812 196.050781 C 199.488281 196.164062 199.460938 196.273438 199.429688 196.363281 C 199.25 196.042969 199.339844 194.765625 198.8125 194.316406 C 198.929688 194.777344 198.945312 195.046875 198.863281 195.496094 C 198.820312 195.742188 198.71875 196.304688 198.59375 196.472656 C 198.371094 196.03125 198.277344 194.585938 198.269531 194.039062 C 198.261719 193.382812 198.382812 192.171875 198.367188 191.800781 C 197.878906 192.53125 198.136719 194.363281 197.960938 195.160156 C 197.882812 194.785156 197.78125 194.425781 197.625 194.097656 C 197.453125 193.742188 197.261719 193.617188 197.09375 193.371094 C 197.136719 193.558594 197.292969 193.820312 197.363281 194.054688 C 197.453125 194.335938 197.515625 194.636719 197.554688 194.9375 C 197.59375 195.257812 197.691406 196.261719 197.5 196.582031 C 197.398438 195.910156 197.171875 194.625 196.769531 194.191406 C 196.804688 194.761719 196.742188 195.285156 196.625 195.796875 C 196.535156 196.183594 196.398438 196.882812 196.226562 197.171875 C 195.625 194.683594 196.027344 194.28125 195.828125 192.734375 C 195.175781 193.59375 195.636719 196.402344 195.40625 197.050781 L 195.019531 194.660156 C 194.773438 195.097656 195.046875 196.152344 194.917969 196.632812 C 194.664062 195.253906 194.613281 194.457031 194.039062 193.21875 C 194.058594 193.523438 194.191406 193.957031 194.234375 194.308594 C 194.316406 195.011719 194.375 196.960938 194.144531 197.484375 C 193.566406 196.476562 193.742188 195.472656 193.710938 194.363281 C 193.464844 194.660156 193.332031 195.714844 193.371094 196.214844 C 193.195312 195.210938 192.886719 192.703125 192.609375 192.253906 C 192.777344 194.03125 192.871094 195.507812 192.890625 197.273438 C 192.761719 196.714844 192.679688 196.171875 192.535156 195.605469 C 192.453125 195.289062 192.109375 194.277344 192.09375 194.109375 C 192.105469 195.257812 192.335938 196.589844 192.25 197.730469 C 191.539062 196.472656 191.609375 194.78125 191.632812 193.367188 L 191.609375 193.398438 L 191.425781 193.820312 C 191.015625 195.085938 191.269531 196.488281 191.324219 197.769531 C 191 197.480469 190.921875 196.511719 190.882812 196.03125 C 190.859375 195.726562 190.894531 194.539062 190.828125 194.316406 L 190.796875 194.25 C 190.644531 194.882812 190.582031 195.21875 190.566406 195.953125 C 190.558594 196.21875 190.621094 197.6875 190.585938 197.777344 C 190.144531 196.984375 190.269531 195.046875 190.417969 194.097656 C 190.476562 193.734375 190.59375 193.335938 190.636719 192.996094 C 190.417969 193.140625 190.34375 193.371094 190.261719 193.605469 C 190.011719 194.304688 189.957031 195.058594 189.902344 195.792969 C 189.664062 194.8125 189.324219 192.789062 188.652344 192.296875 C 188.726562 192.613281 188.894531 193 188.980469 193.371094 C 189.257812 194.507812 189.269531 195.699219 189.234375 196.832031 C 189.058594 195.792969 189.113281 195.625 188.714844 194.636719 C 188.664062 194.863281 188.914062 195.492188 188.753906 196.125 C 188.664062 196.480469 188.359375 197.042969 188.144531 197.136719 C 187.660156 194.941406 188.136719 194.4375 188.320312 192.734375 C 188.207031 192.828125 188.164062 192.960938 188.105469 193.097656 C 187.640625 194.179688 187.8125 195.296875 187.59375 196.035156 C 187.472656 195.339844 187.460938 194.523438 187.121094 193.929688 C 187.261719 195.324219 187.386719 195.851562 187.136719 197.277344 C 186.71875 196.628906 186.570312 194.289062 186.402344 193.40625 C 186.210938 193.949219 186.324219 194.96875 186.277344 195.628906 C 186.046875 195.160156 185.9375 194.621094 185.683594 194.15625 L 185.550781 193.972656 C 185.691406 194.578125 185.855469 194.976562 185.90625 195.648438 C 185.933594 196.082031 185.925781 196.785156 185.757812 197.101562 C 185.699219 196.652344 185.671875 196.269531 185.546875 195.828125 C 185.429688 195.40625 185.410156 195.347656 185.144531 195.011719 C 185.351562 195.820312 185.140625 195.804688 184.992188 196.523438 L 184.914062 196.886719 C 184.867188 197.027344 184.902344 196.929688 184.867188 196.996094 C 184.679688 196.203125 184.617188 195.425781 184.613281 194.621094 C 184.609375 193.910156 184.730469 193.109375 184.71875 192.511719 C 184.34375 193.269531 184.296875 194.847656 184.339844 195.84375 L 184.167969 195.335938 C 184.039062 194.929688 183.785156 194.332031 183.441406 194.132812 C 183.667969 194.757812 183.835938 195.027344 183.914062 195.785156 L 183.921875 195.859375 C 183.804688 195.960938 183.71875 196.085938 183.640625 196.222656 C 183.523438 195.691406 183.363281 195.167969 183.125 194.945312 C 183.125 195.472656 183.097656 195.914062 182.992188 196.421875 L 182.910156 196.746094 C 182.875 196.824219 182.890625 196.792969 182.847656 196.851562 L 182.695312 196.597656 C 182.816406 197.117188 182.898438 197.167969 182.589844 197.890625 C 182.535156 197.804688 182.484375 197.6875 182.445312 197.546875 C 182.398438 197.085938 182.339844 196.613281 182.261719 196.175781 C 182.199219 195.160156 182.21875 194.011719 182.167969 193.480469 C 181.9375 193.695312 181.878906 194.347656 181.84375 194.792969 C 181.761719 194.632812 181.667969 194.503906 181.566406 194.402344 C 181.59375 194.699219 181.671875 195.050781 181.734375 195.40625 C 181.71875 195.472656 181.695312 195.542969 181.675781 195.632812 L 181.535156 196.335938 C 181.53125 196.328125 181.527344 196.359375 181.519531 196.375 L 181.347656 195.402344 C 181.242188 195.648438 181.253906 196.722656 181.28125 197.359375 C 181.226562 196.75 181.078125 196.019531 180.910156 195.390625 C 180.953125 195.246094 180.996094 195.097656 181.035156 194.933594 C 180.953125 194.984375 180.890625 195.050781 180.835938 195.121094 C 180.804688 195.011719 180.773438 194.90625 180.742188 194.804688 C 180.660156 194.546875 180.570312 194.210938 180.394531 194.023438 C 180.5 194.570312 180.574219 195.003906 180.613281 195.484375 C 179.925781 196.691406 179.855469 198.003906 179.554688 198.9375 L 179.417969 198.957031 C 179.417969 198.074219 179.492188 197.105469 179.179688 196.332031 C 179.136719 197.480469 179.144531 198.207031 179.027344 199.007812 C 178.785156 199.039062 178.546875 199.074219 178.304688 199.105469 C 178.261719 197.820312 178.34375 196.261719 178.304688 195.484375 C 177.9375 196.183594 177.902344 197.59375 177.71875 198.476562 C 177.488281 197.800781 177.441406 197.046875 177.1875 196.367188 L 177.039062 196.089844 C 177.117188 196.941406 177.265625 197.515625 177.203125 198.433594 C 177.1875 198.675781 177.15625 198.980469 177.101562 199.28125 L 176.742188 199.332031 C 176.734375 199.097656 176.722656 198.863281 176.683594 198.613281 C 176.601562 198.019531 176.589844 197.933594 176.292969 197.425781 C 176.425781 198.5625 176.140625 198.5 175.804688 199.449219 L 175.792969 199.476562 L 175.503906 199.523438 C 175.460938 198.605469 175.523438 197.710938 175.644531 196.792969 C 175.769531 195.828125 176.085938 194.769531 176.1875 193.949219 C 175.535156 194.910156 175.171875 197.042969 175.042969 198.40625 L 174.90625 197.683594 C 174.808594 197.105469 174.574219 196.246094 174.148438 195.914062 C 174.332031 196.804688 174.511719 197.199219 174.476562 198.246094 C 174.460938 198.644531 174.417969 199.222656 174.324219 199.710938 L 174.070312 199.753906 C 174.039062 198.773438 173.976562 197.460938 173.5625 196.957031 C 173.46875 197.671875 173.34375 198.261719 173.105469 198.9375 L 172.933594 199.359375 C 172.871094 199.460938 172.898438 199.421875 172.828125 199.492188 L 172.667969 199.117188 C 172.703125 199.523438 172.753906 199.730469 172.691406 199.992188 C 172.503906 200.027344 172.3125 200.058594 172.125 200.09375 C 172.011719 198.589844 172.496094 195.832031 172.542969 194.789062 C 172.148438 195.058594 171.941406 196.105469 171.8125 196.6875 C 171.714844 197.117188 171.621094 197.222656 171.464844 197.621094 L 171.144531 198.546875 C 171.140625 198.535156 171.128906 198.578125 171.113281 198.59375 L 171.0625 197.242188 C 170.871094 197.554688 170.6875 199.019531 170.609375 199.886719 C 170.660156 198.773438 170.527344 197.332031 170.355469 196.316406 C 170.292969 195.949219 170.234375 195.476562 170.027344 195.191406 C 170.085938 196.273438 170.105469 197.042969 169.964844 198.117188 L 169.792969 199.082031 C 169.777344 199.203125 169.769531 199.308594 169.75 199.4375 C 169.703125 199.6875 169.550781 200.40625 169.457031 200.601562 L 169.097656 199.753906 C 168.910156 198.945312 169.292969 197.363281 169.375 196.570312 C 168.972656 196.925781 168.570312 198.449219 168.582031 199.183594 C 168.5 198.183594 168.550781 197.136719 168.5 196.121094 C 168.453125 195.125 168.339844 194.191406 168.261719 193.246094 C 168.214844 194.277344 168.238281 195.257812 168.15625 196.296875 C 168.121094 196.765625 168.089844 197.332031 168.019531 197.789062 C 167.964844 198.15625 167.703125 198.496094 167.632812 198.851562 C 167.488281 198.09375 167.488281 196.632812 167.210938 196.042969 C 167.132812 196.859375 167.105469 197.6875 167.027344 198.503906 C 166.984375 198.964844 166.867188 200.523438 166.734375 200.855469 C 166.730469 200.710938 166.769531 200.484375 166.667969 200.375 C 166.414062 200.105469 166.417969 199.5625 166.386719 199.203125 C 166.304688 198.191406 166.375 197.160156 166.515625 196.152344 C 166.574219 195.746094 166.722656 195.160156 166.730469 194.800781 C 165.554688 196.902344 165.675781 198.484375 165.488281 200.777344 C 165.140625 199.980469 165.144531 199.382812 165.210938 198.371094 C 165.269531 197.53125 165.4375 196.722656 165.492188 195.921875 C 165.222656 196.121094 165.128906 196.609375 165.050781 196.921875 C 164.78125 197.953125 164.65625 200.09375 164.480469 200.609375 C 164.039062 199.503906 164.589844 196.773438 164.960938 195.554688 C 165.117188 195.050781 165.339844 194.570312 165.457031 194.132812 C 164.59375 194.480469 164.339844 196.582031 164.015625 197.339844 L 163.882812 196.324219 C 163.8125 198.003906 163.871094 197.910156 163.660156 199.660156 C 163.609375 200.070312 163.582031 201.132812 163.511719 201.9375 L 163.25 202.003906 C 163.199219 201.179688 163.070312 199.839844 162.890625 199.269531 L 162.847656 199.167969 C 162.84375 199.136719 162.832031 199.128906 162.824219 199.113281 C 162.789062 199.59375 162.730469 201.058594 162.609375 202.164062 C 162.402344 202.21875 162.199219 202.269531 161.996094 202.324219 C 161.9375 201.734375 161.960938 201.125 161.996094 200.558594 C 162.0625 199.601562 162.285156 198.679688 162.351562 197.816406 C 161.5625 198.855469 161.25 200.824219 161.15625 202.546875 C 161.039062 202.574219 160.921875 202.605469 160.808594 202.636719 C 160.707031 201.429688 160.929688 199.964844 161.136719 198.894531 C 160.539062 199.253906 160.421875 201.417969 160.269531 202.785156 L 160 202.859375 C 159.9375 201.933594 159.992188 201.09375 160.191406 200.109375 C 160.503906 198.570312 160.78125 198.238281 161.082031 197.144531 C 160.207031 197.664062 159.703125 199.949219 159.480469 201.265625 C 159.378906 201.886719 159.300781 202.480469 159.246094 203.070312 C 158.316406 203.335938 157.398438 203.609375 156.488281 203.890625 C 162.339844 203.394531 168.378906 203.132812 174.550781 203.132812 Z M 174.550781 203.132812 " fill-opacity="1" fill-rule="evenodd"/><path fill="#ffffff" d="M 159.042969 188.078125 L 134.949219 160.554688 L 110.851562 188.078125 L 108.148438 188.078125 L 120.078125 174.449219 L 134.949219 157.464844 L 149.8125 174.449219 L 161.746094 188.078125 Z M 159.042969 188.078125 " fill-opacity="1" fill-rule="evenodd"/><path fill="#ffffff" d="M 191.414062 175.449219 L 193.21875 177.445312 L 220.628906 146.136719 L 258.039062 187.535156 L 261.574219 187.507812 L 220.628906 142.078125 Z M 191.414062 175.449219 " fill-opacity="1" fill-rule="evenodd"/><g clip-path="url(#1a1e3084bb)"><path fill="#ffffff" d="M 153.996094 220.292969 C 208.636719 220.292969 256.585938 223.058594 283.644531 227.222656 C 258.277344 219.84375 219.042969 215.109375 175.007812 215.109375 C 143.582031 215.109375 114.597656 217.523438 91.355469 221.585938 C 110.476562 220.753906 131.675781 220.292969 153.996094 220.292969 Z M 153.996094 220.292969 " fill-opacity="1" fill-rule="evenodd"/></g><g fill="#ffffff" fill-opacity="1"><g transform="translate(95.415239, 252.710856)"><g><path d="M 11.1875 -19.390625 C 12.351562 -19.390625 13.359375 -19.25 14.203125 -18.96875 C 15.054688 -18.6875 15.875 -18.328125 16.65625 -17.890625 C 16.84375 -17.765625 17.015625 -17.664062 17.171875 -17.59375 C 17.335938 -17.519531 17.476562 -17.484375 17.59375 -17.484375 C 17.71875 -17.484375 17.875 -17.535156 18.0625 -17.640625 C 18.257812 -17.753906 18.382812 -17.828125 18.4375 -17.859375 L 18.734375 -17.640625 L 15.59375 -13.1875 L 15.234375 -13.34375 C 15.328125 -13.601562 15.375 -13.867188 15.375 -14.140625 C 15.375 -14.691406 15.003906 -15.191406 14.265625 -15.640625 C 13.523438 -16.097656 12.5 -16.328125 11.1875 -16.328125 C 9.34375 -16.328125 7.898438 -15.722656 6.859375 -14.515625 C 5.828125 -13.316406 5.3125 -11.660156 5.3125 -9.546875 C 5.3125 -8.234375 5.5 -7.144531 5.875 -6.28125 C 6.257812 -5.414062 6.753906 -4.726562 7.359375 -4.21875 C 7.960938 -3.71875 8.625 -3.363281 9.34375 -3.15625 C 10.0625 -2.945312 10.773438 -2.84375 11.484375 -2.84375 C 12.765625 -2.84375 13.816406 -3.21875 14.640625 -3.96875 L 14.640625 -7.0625 L 11.8125 -7.0625 C 11.394531 -7.0625 11.109375 -7 10.953125 -6.875 C 10.796875 -6.757812 10.691406 -6.492188 10.640625 -6.078125 L 10.125 -6.078125 L 10.125 -11 L 10.640625 -11.046875 C 10.710938 -10.628906 10.941406 -10.320312 11.328125 -10.125 C 11.722656 -9.9375 12.34375 -9.84375 13.1875 -9.84375 L 19.234375 -9.84375 L 19.234375 -9.328125 C 18.828125 -9.328125 18.566406 -9.257812 18.453125 -9.125 C 18.347656 -8.988281 18.296875 -8.703125 18.296875 -8.265625 L 18.296875 -4.265625 C 18.296875 -3.878906 18.316406 -3.628906 18.359375 -3.515625 C 18.410156 -3.410156 18.546875 -3.332031 18.765625 -3.28125 L 18.765625 -2.984375 C 17.890625 -1.960938 16.769531 -1.171875 15.40625 -0.609375 C 14.050781 -0.0546875 12.617188 0.21875 11.109375 0.21875 C 9.753906 0.21875 8.5 -0.015625 7.34375 -0.484375 C 6.1875 -0.960938 5.1875 -1.625 4.34375 -2.46875 C 3.507812 -3.320312 2.851562 -4.332031 2.375 -5.5 C 1.90625 -6.664062 1.671875 -7.941406 1.671875 -9.328125 C 1.671875 -10.734375 1.898438 -12.050781 2.359375 -13.28125 C 2.828125 -14.507812 3.476562 -15.578125 4.3125 -16.484375 C 5.15625 -17.398438 6.160156 -18.113281 7.328125 -18.625 C 8.492188 -19.132812 9.78125 -19.390625 11.1875 -19.390625 Z M 11.1875 -19.390625 "/></g></g></g><g fill="#ffffff" fill-opacity="1"><g transform="translate(115.675827, 252.710856)"><g><path d="M 9.296875 -8.75 C 10.609375 -8.75 11.546875 -8.921875 12.109375 -9.265625 C 12.679688 -9.617188 12.96875 -10.257812 12.96875 -11.1875 C 12.96875 -12.039062 12.710938 -12.660156 12.203125 -13.046875 C 11.691406 -13.429688 10.742188 -13.625 9.359375 -13.625 L 6.046875 -13.625 L 6.046875 -8.75 Z M 10.53125 -16.03125 C 12.300781 -16.03125 13.660156 -15.601562 14.609375 -14.75 C 15.554688 -13.90625 16.03125 -12.691406 16.03125 -11.109375 C 16.03125 -10.554688 15.921875 -10.023438 15.703125 -9.515625 C 15.484375 -9.003906 15.191406 -8.546875 14.828125 -8.140625 C 14.460938 -7.742188 14.035156 -7.410156 13.546875 -7.140625 C 13.066406 -6.867188 12.5625 -6.710938 12.03125 -6.671875 L 15.265625 -1.234375 C 15.429688 -0.972656 15.566406 -0.796875 15.671875 -0.703125 C 15.785156 -0.617188 15.90625 -0.554688 16.03125 -0.515625 L 16.03125 0 L 11.65625 0 L 11.65625 -0.515625 C 11.925781 -0.515625 12.0625 -0.609375 12.0625 -0.796875 C 12.0625 -0.898438 12.039062 -1.007812 12 -1.125 C 11.96875 -1.25 11.890625 -1.410156 11.765625 -1.609375 L 8.921875 -6.34375 L 6.046875 -6.34375 L 6.046875 -1.453125 C 6.046875 -1.191406 6.097656 -0.96875 6.203125 -0.78125 C 6.316406 -0.601562 6.484375 -0.515625 6.703125 -0.515625 L 6.703125 0 L 2.1875 0 L 2.1875 -0.515625 C 2.40625 -0.515625 2.566406 -0.601562 2.671875 -0.78125 C 2.785156 -0.96875 2.84375 -1.191406 2.84375 -1.453125 L 2.84375 -14.578125 C 2.84375 -15.203125 2.625 -15.515625 2.1875 -15.515625 L 2.1875 -16.03125 Z M 10.53125 -16.03125 "/></g></g></g><g fill="#ffffff" fill-opacity="1"><g transform="translate(133.895775, 252.710856)"><g><path d="M 14.28125 -12.53125 L 13.765625 -12.53125 C 13.722656 -12.894531 13.625 -13.144531 13.46875 -13.28125 C 13.3125 -13.414062 13.097656 -13.484375 12.828125 -13.484375 L 6.046875 -13.484375 L 6.046875 -9.546875 L 10.125 -9.546875 C 10.414062 -9.546875 10.632812 -9.59375 10.78125 -9.6875 C 10.925781 -9.789062 11.023438 -10.007812 11.078125 -10.34375 L 11.59375 -10.34375 L 11.59375 -6.1875 L 11.078125 -6.1875 C 11.023438 -6.53125 10.921875 -6.75 10.765625 -6.84375 C 10.609375 -6.945312 10.394531 -7 10.125 -7 L 6.046875 -7 L 6.046875 -2.546875 L 12.859375 -2.546875 C 13.078125 -2.546875 13.269531 -2.609375 13.4375 -2.734375 C 13.613281 -2.859375 13.722656 -3.101562 13.765625 -3.46875 L 14.28125 -3.46875 L 14.28125 0.65625 L 13.765625 0.65625 C 13.703125 0.363281 13.582031 0.179688 13.40625 0.109375 C 13.238281 0.0351562 13.019531 0 12.75 0 L 2.1875 0 L 2.1875 -0.515625 C 2.625 -0.515625 2.84375 -0.828125 2.84375 -1.453125 L 2.84375 -14.609375 C 2.84375 -15.210938 2.625 -15.515625 2.1875 -15.515625 L 2.1875 -16.03125 L 12.796875 -16.03125 C 13.054688 -16.03125 13.265625 -16.070312 13.421875 -16.15625 C 13.585938 -16.238281 13.703125 -16.414062 13.765625 -16.6875 L 14.28125 -16.6875 Z M 14.28125 -12.53125 "/></g></g></g><g fill="#ffffff" fill-opacity="1"><g transform="translate(150.075083, 252.710856)"><g><path d="M 14.28125 -12.53125 L 13.765625 -12.53125 C 13.722656 -12.894531 13.625 -13.144531 13.46875 -13.28125 C 13.3125 -13.414062 13.097656 -13.484375 12.828125 -13.484375 L 6.046875 -13.484375 L 6.046875 -9.546875 L 10.125 -9.546875 C 10.414062 -9.546875 10.632812 -9.59375 10.78125 -9.6875 C 10.925781 -9.789062 11.023438 -10.007812 11.078125 -10.34375 L 11.59375 -10.34375 L 11.59375 -6.1875 L 11.078125 -6.1875 C 11.023438 -6.53125 10.921875 -6.75 10.765625 -6.84375 C 10.609375 -6.945312 10.394531 -7 10.125 -7 L 6.046875 -7 L 6.046875 -2.546875 L 12.859375 -2.546875 C 13.078125 -2.546875 13.269531 -2.609375 13.4375 -2.734375 C 13.613281 -2.859375 13.722656 -3.101562 13.765625 -3.46875 L 14.28125 -3.46875 L 14.28125 0.65625 L 13.765625 0.65625 C 13.703125 0.363281 13.582031 0.179688 13.40625 0.109375 C 13.238281 0.0351562 13.019531 0 12.75 0 L 2.1875 0 L 2.1875 -0.515625 C 2.625 -0.515625 2.84375 -0.828125 2.84375 -1.453125 L 2.84375 -14.609375 C 2.84375 -15.210938 2.625 -15.515625 2.1875 -15.515625 L 2.1875 -16.03125 L 12.796875 -16.03125 C 13.054688 -16.03125 13.265625 -16.070312 13.421875 -16.15625 C 13.585938 -16.238281 13.703125 -16.414062 13.765625 -16.6875 L 14.28125 -16.6875 Z M 14.28125 -12.53125 "/></g></g></g><g fill="#ffffff" fill-opacity="1"><g transform="translate(166.254391, 252.710856)"><g><path d="M 7.171875 -16.03125 L 7.171875 -15.515625 C 7.003906 -15.472656 6.878906 -15.414062 6.796875 -15.34375 C 6.710938 -15.269531 6.671875 -15.144531 6.671875 -14.96875 C 6.671875 -14.800781 6.769531 -14.554688 6.96875 -14.234375 C 7.175781 -13.921875 7.378906 -13.597656 7.578125 -13.265625 L 12.71875 -5.09375 L 12.796875 -5.09375 L 12.796875 -14.578125 C 12.796875 -15.203125 12.550781 -15.515625 12.0625 -15.515625 L 12.0625 -16.03125 L 16.359375 -16.03125 L 16.359375 -15.515625 C 15.867188 -15.515625 15.625 -15.203125 15.625 -14.578125 L 15.625 -1.421875 C 15.625 -0.816406 15.867188 -0.515625 16.359375 -0.515625 L 16.359375 0 L 11.765625 0 L 11.765625 -0.515625 C 11.890625 -0.535156 11.984375 -0.585938 12.046875 -0.671875 C 12.109375 -0.753906 12.140625 -0.832031 12.140625 -0.90625 C 12.140625 -1.007812 12.109375 -1.125 12.046875 -1.25 C 11.984375 -1.382812 11.851562 -1.597656 11.65625 -1.890625 L 5.578125 -11.1875 L 5.5 -11.1875 L 5.5 -1.5 C 5.5 -0.84375 5.765625 -0.515625 6.296875 -0.515625 L 6.296875 0 L 1.859375 0 L 1.859375 -0.515625 C 2.390625 -0.515625 2.65625 -0.828125 2.65625 -1.453125 L 2.65625 -14.578125 C 2.65625 -15.203125 2.390625 -15.515625 1.859375 -15.515625 L 1.859375 -16.03125 Z M 7.171875 -16.03125 "/></g></g></g><g fill="#ffffff" fill-opacity="1"><g transform="translate(184.474339, 252.710856)"><g><path d="M 5.796875 -19.171875 L 5.796875 -18.65625 C 5.472656 -18.601562 5.265625 -18.519531 5.171875 -18.40625 C 5.078125 -18.300781 5.03125 -18.175781 5.03125 -18.03125 C 5.03125 -17.738281 5.648438 -15.8125 6.890625 -12.25 C 7.515625 -10.445312 8.019531 -8.9375 8.40625 -7.71875 C 8.800781 -6.507812 9.097656 -5.585938 9.296875 -4.953125 L 9.359375 -4.953125 C 9.410156 -5.078125 9.597656 -5.671875 9.921875 -6.734375 C 10.253906 -7.804688 10.757812 -9.398438 11.4375 -11.515625 C 12.800781 -15.742188 13.484375 -17.96875 13.484375 -18.1875 C 13.484375 -18.28125 13.425781 -18.363281 13.3125 -18.4375 C 13.207031 -18.507812 12.984375 -18.582031 12.640625 -18.65625 L 12.640625 -19.171875 L 17.5625 -19.171875 L 17.5625 -18.65625 C 17.320312 -18.5625 17.140625 -18.441406 17.015625 -18.296875 C 16.890625 -18.148438 16.753906 -17.84375 16.609375 -17.375 L 14.03125 -9.625 C 13.207031 -7.113281 12.566406 -5.125 12.109375 -3.65625 C 11.660156 -2.1875 11.4375 -1.320312 11.4375 -1.0625 C 11.4375 -0.914062 11.503906 -0.785156 11.640625 -0.671875 C 11.773438 -0.566406 11.976562 -0.515625 12.25 -0.515625 L 12.25 0 L 6.1875 0 L 6.1875 -0.515625 C 6.457031 -0.515625 6.671875 -0.570312 6.828125 -0.6875 C 6.984375 -0.8125 7.0625 -0.9375 7.0625 -1.0625 C 7.0625 -1.175781 6.925781 -1.625 6.65625 -2.40625 C 6.394531 -3.1875 6.070312 -4.117188 5.6875 -5.203125 L 3.3125 -11.921875 C 2.875 -13.148438 2.507812 -14.21875 2.21875 -15.125 C 1.925781 -16.039062 1.695312 -16.769531 1.53125 -17.3125 C 1.289062 -18.132812 1 -18.582031 0.65625 -18.65625 L 0.65625 -19.171875 Z M 5.796875 -19.171875 "/></g></g></g><g fill="#ffffff" fill-opacity="1"><g transform="translate(202.694287, 252.710856)"><g><path d="M 5.6875 -6.34375 L 9.84375 -6.34375 L 7.875 -13.625 L 7.796875 -13.625 Z M 10.171875 -16.03125 L 10.171875 -15.515625 C 9.992188 -15.398438 9.90625 -15.269531 9.90625 -15.125 C 9.90625 -15 10.007812 -14.648438 10.21875 -14.078125 C 10.425781 -13.515625 10.710938 -12.695312 11.078125 -11.625 C 11.441406 -10.550781 11.8125 -9.492188 12.1875 -8.453125 C 12.5625 -7.410156 12.957031 -6.289062 13.375 -5.09375 C 13.78125 -3.90625 14.109375 -2.957031 14.359375 -2.25 C 14.617188 -1.550781 14.773438 -1.140625 14.828125 -1.015625 C 14.972656 -0.703125 15.164062 -0.535156 15.40625 -0.515625 L 15.40625 0 L 11.046875 0 L 11.046875 -0.515625 C 11.335938 -0.660156 11.484375 -0.851562 11.484375 -1.09375 C 11.484375 -1.3125 11.320312 -1.832031 11 -2.65625 C 10.957031 -2.800781 10.851562 -3.066406 10.6875 -3.453125 C 10.53125 -3.847656 10.441406 -4.128906 10.421875 -4.296875 L 5.09375 -4.296875 C 5.070312 -4.203125 5.007812 -4.015625 4.90625 -3.734375 C 4.8125 -3.453125 4.71875 -3.179688 4.625 -2.921875 C 4.289062 -2.015625 4.125 -1.414062 4.125 -1.125 C 4.125 -0.789062 4.21875 -0.585938 4.40625 -0.515625 L 4.40625 0 L 0.765625 0 L 0.765625 -0.515625 C 0.890625 -0.554688 0.988281 -0.644531 1.0625 -0.78125 C 1.132812 -0.914062 1.242188 -1.203125 1.390625 -1.640625 L 4.015625 -9.1875 C 4.617188 -10.9375 5.085938 -12.316406 5.421875 -13.328125 C 5.765625 -14.347656 5.9375 -14.921875 5.9375 -15.046875 C 5.9375 -15.210938 5.835938 -15.367188 5.640625 -15.515625 L 5.640625 -16.03125 Z M 10.171875 -16.03125 "/></g></g></g><g fill="#ffffff" fill-opacity="1"><g transform="translate(218.873595, 252.710856)"><g><path d="M 6.671875 -16.03125 L 6.671875 -15.515625 C 6.109375 -15.515625 5.828125 -15.203125 5.828125 -14.578125 L 5.828125 -2.546875 L 12.203125 -2.546875 C 12.472656 -2.546875 12.6875 -2.613281 12.84375 -2.75 C 13 -2.882812 13.101562 -3.125 13.15625 -3.46875 L 13.671875 -3.46875 L 13.671875 0.65625 L 13.15625 0.65625 C 13.082031 0.382812 12.96875 0.207031 12.8125 0.125 C 12.65625 0.0390625 12.441406 0 12.171875 0 L 1.671875 0 L 1.671875 -0.515625 C 2.304688 -0.515625 2.625 -0.828125 2.625 -1.453125 L 2.625 -14.578125 C 2.625 -15.203125 2.304688 -15.515625 1.671875 -15.515625 L 1.671875 -16.03125 Z M 6.671875 -16.03125 "/></g></g></g><g fill="#ffffff" fill-opacity="1"><g transform="translate(233.048716, 252.710856)"><g><path d="M 6.671875 -16.03125 L 6.671875 -15.515625 C 6.109375 -15.515625 5.828125 -15.203125 5.828125 -14.578125 L 5.828125 -2.546875 L 12.203125 -2.546875 C 12.472656 -2.546875 12.6875 -2.613281 12.84375 -2.75 C 13 -2.882812 13.101562 -3.125 13.15625 -3.46875 L 13.671875 -3.46875 L 13.671875 0.65625 L 13.15625 0.65625 C 13.082031 0.382812 12.96875 0.207031 12.8125 0.125 C 12.65625 0.0390625 12.441406 0 12.171875 0 L 1.671875 0 L 1.671875 -0.515625 C 2.304688 -0.515625 2.625 -0.828125 2.625 -1.453125 L 2.625 -14.578125 C 2.625 -15.203125 2.304688 -15.515625 1.671875 -15.515625 L 1.671875 -16.03125 Z M 6.671875 -16.03125 "/></g></g></g><g fill="#ffffff" fill-opacity="1"><g transform="translate(247.223837, 252.710856)"><g><path d="M 14.28125 -12.53125 L 13.765625 -12.53125 C 13.722656 -12.894531 13.625 -13.144531 13.46875 -13.28125 C 13.3125 -13.414062 13.097656 -13.484375 12.828125 -13.484375 L 6.046875 -13.484375 L 6.046875 -9.546875 L 10.125 -9.546875 C 10.414062 -9.546875 10.632812 -9.59375 10.78125 -9.6875 C 10.925781 -9.789062 11.023438 -10.007812 11.078125 -10.34375 L 11.59375 -10.34375 L 11.59375 -6.1875 L 11.078125 -6.1875 C 11.023438 -6.53125 10.921875 -6.75 10.765625 -6.84375 C 10.609375 -6.945312 10.394531 -7 10.125 -7 L 6.046875 -7 L 6.046875 -2.546875 L 12.859375 -2.546875 C 13.078125 -2.546875 13.269531 -2.609375 13.4375 -2.734375 C 13.613281 -2.859375 13.722656 -3.101562 13.765625 -3.46875 L 14.28125 -3.46875 L 14.28125 0.65625 L 13.765625 0.65625 C 13.703125 0.363281 13.582031 0.179688 13.40625 0.109375 C 13.238281 0.0351562 13.019531 0 12.75 0 L 2.1875 0 L 2.1875 -0.515625 C 2.625 -0.515625 2.84375 -0.828125 2.84375 -1.453125 L 2.84375 -14.609375 C 2.84375 -15.210938 2.625 -15.515625 2.1875 -15.515625 L 2.1875 -16.03125 L 12.796875 -16.03125 C 13.054688 -16.03125 13.265625 -16.070312 13.421875 -16.15625 C 13.585938 -16.238281 13.703125 -16.414062 13.765625 -16.6875 L 14.28125 -16.6875 Z M 14.28125 -12.53125 "/></g></g></g><g fill="#ffffff" fill-opacity="1"><g transform="translate(263.403145, 252.710856)"><g><path d="M 5.9375 -16.03125 L 5.9375 -15.515625 C 5.8125 -15.492188 5.691406 -15.453125 5.578125 -15.390625 C 5.472656 -15.328125 5.421875 -15.238281 5.421875 -15.125 C 5.421875 -14.925781 5.582031 -14.546875 5.90625 -13.984375 C 6.238281 -13.429688 6.632812 -12.757812 7.09375 -11.96875 C 7.5625 -11.175781 7.976562 -10.46875 8.34375 -9.84375 C 8.90625 -10.863281 9.40625 -11.769531 9.84375 -12.5625 C 10.28125 -13.363281 10.582031 -13.925781 10.75 -14.25 C 10.988281 -14.707031 11.109375 -15.035156 11.109375 -15.234375 C 11.109375 -15.378906 10.941406 -15.472656 10.609375 -15.515625 L 10.609375 -16.03125 L 15.125 -16.03125 L 15.125 -15.515625 C 14.78125 -15.492188 14.519531 -15.40625 14.34375 -15.25 C 14.175781 -15.09375 13.925781 -14.695312 13.59375 -14.0625 L 9.875 -7.578125 L 9.875 -1.421875 C 9.875 -1.128906 9.925781 -0.90625 10.03125 -0.75 C 10.144531 -0.59375 10.238281 -0.515625 10.3125 -0.515625 L 10.3125 0 L 6.078125 0 L 6.078125 -0.515625 C 6.472656 -0.515625 6.671875 -0.816406 6.671875 -1.421875 L 6.671875 -7.5 L 2.546875 -14.390625 C 2.253906 -14.898438 2.023438 -15.207031 1.859375 -15.3125 C 1.691406 -15.425781 1.425781 -15.492188 1.0625 -15.515625 L 1.0625 -16.03125 Z M 5.9375 -16.03125 "/></g></g></g><g fill="#ffffff" fill-opacity="1"><g transform="translate(91.326472, 266.369747)"><g><path d="M 2.125 0 L 2.625 -2.515625 L 0.96875 -7 L 2.625 -7 L 3.171875 -5.375 L 3.609375 -4.109375 L 4.5625 -5.375 L 5.765625 -7 L 7.703125 -7 L 4.203125 -2.421875 L 3.703125 0 Z M 2.125 0 "/></g></g></g><g fill="#ffffff" fill-opacity="1"><g transform="translate(98.243739, 266.369747)"><g><path d="M 2.9375 0.140625 C 2.332031 0.140625 1.820312 0.0195312 1.40625 -0.21875 C 0.988281 -0.46875 0.691406 -0.8125 0.515625 -1.25 C 0.335938 -1.6875 0.300781 -2.1875 0.40625 -2.75 C 0.507812 -3.28125 0.71875 -3.742188 1.03125 -4.140625 C 1.34375 -4.535156 1.734375 -4.84375 2.203125 -5.0625 C 2.671875 -5.28125 3.179688 -5.390625 3.734375 -5.390625 C 4.335938 -5.390625 4.847656 -5.265625 5.265625 -5.015625 C 5.679688 -4.773438 5.976562 -4.4375 6.15625 -4 C 6.34375 -3.5625 6.378906 -3.066406 6.265625 -2.515625 C 6.160156 -1.984375 5.953125 -1.515625 5.640625 -1.109375 C 5.328125 -0.710938 4.9375 -0.40625 4.46875 -0.1875 C 4 0.03125 3.488281 0.140625 2.9375 0.140625 Z M 1.90625 -2.59375 C 1.820312 -2.1875 1.882812 -1.847656 2.09375 -1.578125 C 2.300781 -1.304688 2.609375 -1.171875 3.015625 -1.171875 C 3.304688 -1.171875 3.570312 -1.234375 3.8125 -1.359375 C 4.0625 -1.492188 4.269531 -1.671875 4.4375 -1.890625 C 4.601562 -2.117188 4.710938 -2.375 4.765625 -2.65625 C 4.847656 -3.070312 4.785156 -3.414062 4.578125 -3.6875 C 4.367188 -3.957031 4.0625 -4.09375 3.65625 -4.09375 C 3.375 -4.09375 3.109375 -4.023438 2.859375 -3.890625 C 2.609375 -3.765625 2.398438 -3.585938 2.234375 -3.359375 C 2.066406 -3.140625 1.957031 -2.882812 1.90625 -2.59375 Z M 1.90625 -2.59375 "/></g></g></g><g fill="#ffffff" fill-opacity="1"><g transform="translate(104.911112, 266.369747)"><g><path d="M 2.40625 0.140625 C 1.9375 0.140625 1.550781 0.0390625 1.25 -0.15625 C 0.945312 -0.363281 0.738281 -0.648438 0.625 -1.015625 C 0.507812 -1.378906 0.5 -1.804688 0.59375 -2.296875 L 1.1875 -5.25 L 2.734375 -5.25 L 2.15625 -2.375 C 2.082031 -1.988281 2.109375 -1.691406 2.234375 -1.484375 C 2.359375 -1.273438 2.578125 -1.171875 2.890625 -1.171875 C 3.242188 -1.171875 3.546875 -1.289062 3.796875 -1.53125 C 4.054688 -1.78125 4.226562 -2.113281 4.3125 -2.53125 L 4.859375 -5.25 L 6.40625 -5.25 L 5.359375 0 L 4.25 0 L 4.203125 -0.546875 C 3.960938 -0.316406 3.6875 -0.144531 3.375 -0.03125 C 3.0625 0.0820312 2.738281 0.140625 2.40625 0.140625 Z M 2.40625 0.140625 "/></g></g></g><g fill="#ffffff" fill-opacity="1"><g transform="translate(111.558492, 266.369747)"><g><path d="M 0.234375 0 L 1.296875 -5.25 L 2.40625 -5.25 L 2.453125 -4.578125 C 2.679688 -4.828125 2.925781 -5 3.1875 -5.09375 C 3.457031 -5.195312 3.785156 -5.25 4.171875 -5.25 L 4.78125 -5.25 L 4.515625 -3.875 L 3.953125 -3.875 C 3.515625 -3.875 3.144531 -3.753906 2.84375 -3.515625 C 2.550781 -3.273438 2.347656 -2.867188 2.234375 -2.296875 L 1.765625 0 Z M 0.234375 0 "/></g></g></g><g fill="#ffffff" fill-opacity="1"><g transform="translate(116.156682, 266.369747)"><g/></g></g><g fill="#ffffff" fill-opacity="1"><g transform="translate(118.505754, 266.369747)"><g><path d="M 1.984375 0 L 3.078125 -5.515625 L 0.875 -5.515625 L 1.1875 -7 L 7.203125 -7 L 6.90625 -5.515625 L 4.703125 -5.515625 L 3.59375 0 Z M 1.984375 0 "/></g></g></g><g fill="#ffffff" fill-opacity="1"><g transform="translate(125.133141, 266.369747)"><g><path d="M 0.234375 0 L 1.296875 -5.25 L 2.40625 -5.25 L 2.453125 -4.578125 C 2.679688 -4.828125 2.925781 -5 3.1875 -5.09375 C 3.457031 -5.195312 3.785156 -5.25 4.171875 -5.25 L 4.78125 -5.25 L 4.515625 -3.875 L 3.953125 -3.875 C 3.515625 -3.875 3.144531 -3.753906 2.84375 -3.515625 C 2.550781 -3.273438 2.347656 -2.867188 2.234375 -2.296875 L 1.765625 0 Z M 0.234375 0 "/></g></g></g><g fill="#ffffff" fill-opacity="1"><g transform="translate(129.731331, 266.369747)"><g><path d="M 2.40625 0.140625 C 1.9375 0.140625 1.550781 0.0390625 1.25 -0.15625 C 0.945312 -0.363281 0.738281 -0.648438 0.625 -1.015625 C 0.507812 -1.378906 0.5 -1.804688 0.59375 -2.296875 L 1.1875 -5.25 L 2.734375 -5.25 L 2.15625 -2.375 C 2.082031 -1.988281 2.109375 -1.691406 2.234375 -1.484375 C 2.359375 -1.273438 2.578125 -1.171875 2.890625 -1.171875 C 3.242188 -1.171875 3.546875 -1.289062 3.796875 -1.53125 C 4.054688 -1.78125 4.226562 -2.113281 4.3125 -2.53125 L 4.859375 -5.25 L 6.40625 -5.25 L 5.359375 0 L 4.25 0 L 4.203125 -0.546875 C 3.960938 -0.316406 3.6875 -0.144531 3.375 -0.03125 C 3.0625 0.0820312 2.738281 0.140625 2.40625 0.140625 Z M 2.40625 0.140625 "/></g></g></g><g fill="#ffffff" fill-opacity="1"><g transform="translate(136.378712, 266.369747)"><g><path d="M 2.34375 0.140625 C 1.582031 0.140625 1.007812 -0.0195312 0.625 -0.34375 C 0.238281 -0.675781 0.0976562 -1.125 0.203125 -1.6875 L 1.703125 -1.6875 C 1.628906 -1.21875 1.878906 -0.984375 2.453125 -0.984375 C 2.703125 -0.984375 2.90625 -1.03125 3.0625 -1.125 C 3.21875 -1.21875 3.3125 -1.335938 3.34375 -1.484375 C 3.375 -1.660156 3.3125 -1.800781 3.15625 -1.90625 C 3.007812 -2.007812 2.753906 -2.09375 2.390625 -2.15625 C 1.742188 -2.257812 1.28125 -2.457031 1 -2.75 C 0.71875 -3.050781 0.625 -3.425781 0.71875 -3.875 C 0.820312 -4.351562 1.082031 -4.722656 1.5 -4.984375 C 1.914062 -5.253906 2.460938 -5.390625 3.140625 -5.390625 C 3.867188 -5.390625 4.410156 -5.238281 4.765625 -4.9375 C 5.128906 -4.632812 5.273438 -4.207031 5.203125 -3.65625 L 3.734375 -3.65625 C 3.785156 -4.082031 3.546875 -4.296875 3.015625 -4.296875 C 2.535156 -4.296875 2.265625 -4.132812 2.203125 -3.8125 C 2.171875 -3.644531 2.222656 -3.507812 2.359375 -3.40625 C 2.503906 -3.3125 2.757812 -3.234375 3.125 -3.171875 C 3.78125 -3.054688 4.253906 -2.84375 4.546875 -2.53125 C 4.835938 -2.21875 4.9375 -1.832031 4.84375 -1.375 C 4.738281 -0.894531 4.46875 -0.519531 4.03125 -0.25 C 3.59375 0.0078125 3.03125 0.140625 2.34375 0.140625 Z M 2.34375 0.140625 "/></g></g></g><g fill="#ffffff" fill-opacity="1"><g transform="translate(141.856552, 266.369747)"><g><path d="M 2.8125 0 C 2.144531 0 1.660156 -0.179688 1.359375 -0.546875 C 1.054688 -0.910156 0.96875 -1.410156 1.09375 -2.046875 L 1.484375 -4.015625 L 0.484375 -4.015625 L 0.734375 -5.25 L 1.171875 -5.25 C 1.453125 -5.25 1.65625 -5.296875 1.78125 -5.390625 C 1.914062 -5.492188 2.023438 -5.679688 2.109375 -5.953125 L 2.34375 -6.609375 L 3.5625 -6.609375 L 3.296875 -5.25 L 4.703125 -5.25 L 4.453125 -4.015625 L 3.03125 -4.015625 L 2.671875 -2.203125 C 2.609375 -1.898438 2.628906 -1.675781 2.734375 -1.53125 C 2.835938 -1.382812 3.039062 -1.3125 3.34375 -1.3125 L 3.984375 -1.3125 L 3.71875 0 Z M 2.8125 0 "/></g></g></g><g fill="#ffffff" fill-opacity="1"><g transform="translate(146.524711, 266.369747)"><g><path d="M 2.78125 0.140625 C 2.207031 0.140625 1.722656 0.0195312 1.328125 -0.21875 C 0.929688 -0.46875 0.648438 -0.804688 0.484375 -1.234375 C 0.316406 -1.660156 0.289062 -2.15625 0.40625 -2.71875 C 0.507812 -3.25 0.71875 -3.710938 1.03125 -4.109375 C 1.34375 -4.515625 1.726562 -4.828125 2.1875 -5.046875 C 2.644531 -5.273438 3.148438 -5.390625 3.703125 -5.390625 C 4.304688 -5.390625 4.804688 -5.25 5.203125 -4.96875 C 5.597656 -4.695312 5.867188 -4.320312 6.015625 -3.84375 C 6.160156 -3.363281 6.160156 -2.8125 6.015625 -2.1875 L 1.8125 -2.1875 C 1.800781 -1.84375 1.894531 -1.570312 2.09375 -1.375 C 2.289062 -1.175781 2.566406 -1.078125 2.921875 -1.078125 C 3.453125 -1.078125 3.890625 -1.269531 4.234375 -1.65625 L 5.84375 -1.65625 C 5.519531 -1.082031 5.085938 -0.640625 4.546875 -0.328125 C 4.003906 -0.015625 3.414062 0.140625 2.78125 0.140625 Z M 2.046875 -3.15625 L 4.734375 -3.15625 C 4.710938 -3.488281 4.601562 -3.742188 4.40625 -3.921875 C 4.21875 -4.097656 3.953125 -4.1875 3.609375 -4.1875 C 3.265625 -4.1875 2.953125 -4.09375 2.671875 -3.90625 C 2.398438 -3.71875 2.191406 -3.46875 2.046875 -3.15625 Z M 2.046875 -3.15625 "/></g></g></g><g fill="#ffffff" fill-opacity="1"><g transform="translate(153.012149, 266.369747)"><g><path d="M 2.6875 0.140625 C 2.132812 0.140625 1.664062 0.0195312 1.28125 -0.21875 C 0.90625 -0.46875 0.640625 -0.8125 0.484375 -1.25 C 0.328125 -1.6875 0.300781 -2.191406 0.40625 -2.765625 C 0.507812 -3.285156 0.707031 -3.742188 1 -4.140625 C 1.289062 -4.535156 1.648438 -4.84375 2.078125 -5.0625 C 2.503906 -5.28125 2.972656 -5.390625 3.484375 -5.390625 C 3.835938 -5.390625 4.15625 -5.332031 4.4375 -5.21875 C 4.726562 -5.113281 4.972656 -4.960938 5.171875 -4.765625 L 5.6875 -7.40625 L 7.25 -7.40625 L 5.765625 0 L 4.65625 0 L 4.625 -0.546875 C 4.363281 -0.328125 4.066406 -0.15625 3.734375 -0.03125 C 3.410156 0.0820312 3.0625 0.140625 2.6875 0.140625 Z M 1.90625 -2.59375 C 1.832031 -2.1875 1.898438 -1.847656 2.109375 -1.578125 C 2.316406 -1.304688 2.625 -1.171875 3.03125 -1.171875 C 3.3125 -1.171875 3.570312 -1.234375 3.8125 -1.359375 C 4.0625 -1.492188 4.269531 -1.671875 4.4375 -1.890625 C 4.601562 -2.117188 4.710938 -2.375 4.765625 -2.65625 C 4.847656 -3.070312 4.785156 -3.414062 4.578125 -3.6875 C 4.367188 -3.957031 4.0625 -4.09375 3.65625 -4.09375 C 3.375 -4.09375 3.109375 -4.023438 2.859375 -3.890625 C 2.617188 -3.765625 2.414062 -3.585938 2.25 -3.359375 C 2.082031 -3.140625 1.96875 -2.882812 1.90625 -2.59375 Z M 1.90625 -2.59375 "/></g></g></g><g fill="#ffffff" fill-opacity="1"><g transform="translate(160.059363, 266.369747)"><g/></g></g><g fill="#ffffff" fill-opacity="1"><g transform="translate(162.408434, 266.369747)"><g><path d="M 0.3125 0 L 1.71875 -7 L 3.34375 -7 L 2.234375 -1.484375 L 5.265625 -1.484375 L 4.96875 0 Z M 0.3125 0 "/></g></g></g><g fill="#ffffff" fill-opacity="1"><g transform="translate(168.176153, 266.369747)"><g><path d="M 2.0625 0.09375 C 1.414062 0.09375 0.929688 -0.0625 0.609375 -0.375 C 0.296875 -0.6875 0.191406 -1.109375 0.296875 -1.640625 C 0.390625 -2.109375 0.613281 -2.472656 0.96875 -2.734375 C 1.332031 -2.992188 1.789062 -3.125 2.34375 -3.125 L 4.28125 -3.125 L 4.328125 -3.375 C 4.378906 -3.644531 4.332031 -3.851562 4.1875 -4 C 4.039062 -4.15625 3.820312 -4.234375 3.53125 -4.234375 C 3.28125 -4.234375 3.054688 -4.175781 2.859375 -4.0625 C 2.660156 -3.957031 2.523438 -3.804688 2.453125 -3.609375 L 0.953125 -3.609375 C 1.128906 -4.171875 1.457031 -4.609375 1.9375 -4.921875 C 2.414062 -5.234375 2.988281 -5.390625 3.65625 -5.390625 C 4.175781 -5.390625 4.609375 -5.289062 4.953125 -5.09375 C 5.304688 -4.90625 5.550781 -4.640625 5.6875 -4.296875 C 5.832031 -3.960938 5.859375 -3.5625 5.765625 -3.09375 L 5.15625 0 L 4.03125 0 L 3.984375 -0.5625 C 3.460938 -0.125 2.820312 0.09375 2.0625 0.09375 Z M 1.796875 -1.59375 C 1.753906 -1.40625 1.789062 -1.253906 1.90625 -1.140625 C 2.03125 -1.035156 2.222656 -0.984375 2.484375 -0.984375 C 2.867188 -0.984375 3.210938 -1.09375 3.515625 -1.3125 C 3.816406 -1.539062 4.007812 -1.832031 4.09375 -2.1875 L 2.703125 -2.1875 C 2.171875 -2.1875 1.867188 -1.988281 1.796875 -1.59375 Z M 1.796875 -1.59375 "/></g></g></g><g fill="#ffffff" fill-opacity="1"><g transform="translate(174.51365, 266.369747)"><g><path d="M 0.234375 0 L 1.296875 -5.25 L 2.40625 -5.25 L 2.453125 -4.703125 C 2.691406 -4.929688 2.96875 -5.101562 3.28125 -5.21875 C 3.59375 -5.332031 3.921875 -5.390625 4.265625 -5.390625 C 4.722656 -5.390625 5.101562 -5.285156 5.40625 -5.078125 C 5.71875 -4.878906 5.929688 -4.597656 6.046875 -4.234375 C 6.160156 -3.867188 6.164062 -3.441406 6.0625 -2.953125 L 5.484375 0 L 3.9375 0 L 4.5 -2.875 C 4.582031 -3.269531 4.554688 -3.570312 4.421875 -3.78125 C 4.296875 -3.988281 4.078125 -4.09375 3.765625 -4.09375 C 3.410156 -4.09375 3.101562 -3.96875 2.84375 -3.71875 C 2.582031 -3.46875 2.410156 -3.140625 2.328125 -2.734375 L 1.796875 0 Z M 0.234375 0 "/></g></g></g><g fill="#ffffff" fill-opacity="1"><g transform="translate(181.171021, 266.369747)"><g><path d="M 2.6875 0.140625 C 2.132812 0.140625 1.664062 0.0195312 1.28125 -0.21875 C 0.90625 -0.46875 0.640625 -0.8125 0.484375 -1.25 C 0.328125 -1.6875 0.300781 -2.191406 0.40625 -2.765625 C 0.507812 -3.285156 0.707031 -3.742188 1 -4.140625 C 1.289062 -4.535156 1.648438 -4.84375 2.078125 -5.0625 C 2.503906 -5.28125 2.972656 -5.390625 3.484375 -5.390625 C 3.835938 -5.390625 4.15625 -5.332031 4.4375 -5.21875 C 4.726562 -5.113281 4.972656 -4.960938 5.171875 -4.765625 L 5.6875 -7.40625 L 7.25 -7.40625 L 5.765625 0 L 4.65625 0 L 4.625 -0.546875 C 4.363281 -0.328125 4.066406 -0.15625 3.734375 -0.03125 C 3.410156 0.0820312 3.0625 0.140625 2.6875 0.140625 Z M 1.90625 -2.59375 C 1.832031 -2.1875 1.898438 -1.847656 2.109375 -1.578125 C 2.316406 -1.304688 2.625 -1.171875 3.03125 -1.171875 C 3.3125 -1.171875 3.570312 -1.234375 3.8125 -1.359375 C 4.0625 -1.492188 4.269531 -1.671875 4.4375 -1.890625 C 4.601562 -2.117188 4.710938 -2.375 4.765625 -2.65625 C 4.847656 -3.070312 4.785156 -3.414062 4.578125 -3.6875 C 4.367188 -3.957031 4.0625 -4.09375 3.65625 -4.09375 C 3.375 -4.09375 3.109375 -4.023438 2.859375 -3.890625 C 2.617188 -3.765625 2.414062 -3.585938 2.25 -3.359375 C 2.082031 -3.140625 1.96875 -2.882812 1.90625 -2.59375 Z M 1.90625 -2.59375 "/></g></g></g><g fill="#ffffff" fill-opacity="1"><g transform="translate(188.218235, 266.369747)"><g><path d="M 2.34375 0.140625 C 1.582031 0.140625 1.007812 -0.0195312 0.625 -0.34375 C 0.238281 -0.675781 0.0976562 -1.125 0.203125 -1.6875 L 1.703125 -1.6875 C 1.628906 -1.21875 1.878906 -0.984375 2.453125 -0.984375 C 2.703125 -0.984375 2.90625 -1.03125 3.0625 -1.125 C 3.21875 -1.21875 3.3125 -1.335938 3.34375 -1.484375 C 3.375 -1.660156 3.3125 -1.800781 3.15625 -1.90625 C 3.007812 -2.007812 2.753906 -2.09375 2.390625 -2.15625 C 1.742188 -2.257812 1.28125 -2.457031 1 -2.75 C 0.71875 -3.050781 0.625 -3.425781 0.71875 -3.875 C 0.820312 -4.351562 1.082031 -4.722656 1.5 -4.984375 C 1.914062 -5.253906 2.460938 -5.390625 3.140625 -5.390625 C 3.867188 -5.390625 4.410156 -5.238281 4.765625 -4.9375 C 5.128906 -4.632812 5.273438 -4.207031 5.203125 -3.65625 L 3.734375 -3.65625 C 3.785156 -4.082031 3.546875 -4.296875 3.015625 -4.296875 C 2.535156 -4.296875 2.265625 -4.132812 2.203125 -3.8125 C 2.171875 -3.644531 2.222656 -3.507812 2.359375 -3.40625 C 2.503906 -3.3125 2.757812 -3.234375 3.125 -3.171875 C 3.78125 -3.054688 4.253906 -2.84375 4.546875 -2.53125 C 4.835938 -2.21875 4.9375 -1.832031 4.84375 -1.375 C 4.738281 -0.894531 4.46875 -0.519531 4.03125 -0.25 C 3.59375 0.0078125 3.03125 0.140625 2.34375 0.140625 Z M 2.34375 0.140625 "/></g></g></g><g fill="#ffffff" fill-opacity="1"><g transform="translate(193.696075, 266.369747)"><g><path d="M 2.796875 0.140625 C 2.222656 0.140625 1.734375 0.0195312 1.328125 -0.21875 C 0.929688 -0.46875 0.648438 -0.8125 0.484375 -1.25 C 0.328125 -1.6875 0.300781 -2.179688 0.40625 -2.734375 C 0.507812 -3.253906 0.71875 -3.710938 1.03125 -4.109375 C 1.34375 -4.515625 1.726562 -4.828125 2.1875 -5.046875 C 2.65625 -5.273438 3.164062 -5.390625 3.71875 -5.390625 C 4.207031 -5.390625 4.632812 -5.296875 5 -5.109375 C 5.375 -4.929688 5.664062 -4.679688 5.875 -4.359375 C 6.082031 -4.035156 6.1875 -3.660156 6.1875 -3.234375 L 4.75 -3.234375 C 4.6875 -3.503906 4.550781 -3.710938 4.34375 -3.859375 C 4.144531 -4.015625 3.894531 -4.09375 3.59375 -4.09375 C 3.1875 -4.09375 2.820312 -3.953125 2.5 -3.671875 C 2.1875 -3.390625 1.984375 -3.03125 1.890625 -2.59375 C 1.804688 -2.164062 1.863281 -1.820312 2.0625 -1.5625 C 2.257812 -1.300781 2.554688 -1.171875 2.953125 -1.171875 C 3.273438 -1.171875 3.570312 -1.253906 3.84375 -1.421875 C 4.125 -1.585938 4.351562 -1.820312 4.53125 -2.125 L 6.046875 -2.125 C 5.765625 -1.414062 5.335938 -0.859375 4.765625 -0.453125 C 4.191406 -0.0546875 3.535156 0.140625 2.796875 0.140625 Z M 2.796875 0.140625 "/></g></g></g><g fill="#ffffff" fill-opacity="1"><g transform="translate(200.203506, 266.369747)"><g><path d="M 2.0625 0.09375 C 1.414062 0.09375 0.929688 -0.0625 0.609375 -0.375 C 0.296875 -0.6875 0.191406 -1.109375 0.296875 -1.640625 C 0.390625 -2.109375 0.613281 -2.472656 0.96875 -2.734375 C 1.332031 -2.992188 1.789062 -3.125 2.34375 -3.125 L 4.28125 -3.125 L 4.328125 -3.375 C 4.378906 -3.644531 4.332031 -3.851562 4.1875 -4 C 4.039062 -4.15625 3.820312 -4.234375 3.53125 -4.234375 C 3.28125 -4.234375 3.054688 -4.175781 2.859375 -4.0625 C 2.660156 -3.957031 2.523438 -3.804688 2.453125 -3.609375 L 0.953125 -3.609375 C 1.128906 -4.171875 1.457031 -4.609375 1.9375 -4.921875 C 2.414062 -5.234375 2.988281 -5.390625 3.65625 -5.390625 C 4.175781 -5.390625 4.609375 -5.289062 4.953125 -5.09375 C 5.304688 -4.90625 5.550781 -4.640625 5.6875 -4.296875 C 5.832031 -3.960938 5.859375 -3.5625 5.765625 -3.09375 L 5.15625 0 L 4.03125 0 L 3.984375 -0.5625 C 3.460938 -0.125 2.820312 0.09375 2.0625 0.09375 Z M 1.796875 -1.59375 C 1.753906 -1.40625 1.789062 -1.253906 1.90625 -1.140625 C 2.03125 -1.035156 2.222656 -0.984375 2.484375 -0.984375 C 2.867188 -0.984375 3.210938 -1.09375 3.515625 -1.3125 C 3.816406 -1.539062 4.007812 -1.832031 4.09375 -2.1875 L 2.703125 -2.1875 C 2.171875 -2.1875 1.867188 -1.988281 1.796875 -1.59375 Z M 1.796875 -1.59375 "/></g></g></g><g fill="#ffffff" fill-opacity="1"><g transform="translate(206.541003, 266.369747)"><g><path d="M 3.546875 0.140625 C 3.203125 0.140625 2.882812 0.0859375 2.59375 -0.015625 C 2.3125 -0.128906 2.070312 -0.285156 1.875 -0.484375 L 1.390625 2 L -0.15625 2 L 1.296875 -5.25 L 2.390625 -5.25 L 2.4375 -4.71875 C 2.6875 -4.9375 2.972656 -5.101562 3.296875 -5.21875 C 3.628906 -5.332031 3.984375 -5.390625 4.359375 -5.390625 C 4.910156 -5.390625 5.375 -5.265625 5.75 -5.015625 C 6.125 -4.773438 6.390625 -4.4375 6.546875 -4 C 6.710938 -3.5625 6.738281 -3.054688 6.625 -2.484375 C 6.53125 -1.960938 6.335938 -1.503906 6.046875 -1.109375 C 5.753906 -0.722656 5.394531 -0.414062 4.96875 -0.1875 C 4.539062 0.03125 4.066406 0.140625 3.546875 0.140625 Z M 2.265625 -2.59375 C 2.191406 -2.1875 2.257812 -1.847656 2.46875 -1.578125 C 2.675781 -1.304688 2.984375 -1.171875 3.390625 -1.171875 C 3.671875 -1.171875 3.929688 -1.234375 4.171875 -1.359375 C 4.421875 -1.484375 4.628906 -1.65625 4.796875 -1.875 C 4.960938 -2.101562 5.070312 -2.363281 5.125 -2.65625 C 5.207031 -3.070312 5.144531 -3.414062 4.9375 -3.6875 C 4.726562 -3.957031 4.421875 -4.09375 4.015625 -4.09375 C 3.734375 -4.09375 3.46875 -4.023438 3.21875 -3.890625 C 2.976562 -3.765625 2.773438 -3.585938 2.609375 -3.359375 C 2.441406 -3.140625 2.328125 -2.882812 2.265625 -2.59375 Z M 2.265625 -2.59375 "/></g></g></g><g fill="#ffffff" fill-opacity="1"><g transform="translate(213.578226, 266.369747)"><g><path d="M 0.21875 0 L 1.265625 -5.25 L 2.8125 -5.25 L 1.765625 0 Z M 1.4375 -7.046875 C 1.488281 -7.316406 1.601562 -7.523438 1.78125 -7.671875 C 1.96875 -7.828125 2.195312 -7.90625 2.46875 -7.90625 C 2.78125 -7.90625 3.015625 -7.800781 3.171875 -7.59375 C 3.335938 -7.382812 3.390625 -7.132812 3.328125 -6.84375 C 3.273438 -6.582031 3.15625 -6.375 2.96875 -6.21875 C 2.78125 -6.070312 2.554688 -6 2.296875 -6 C 1.972656 -6 1.726562 -6.097656 1.5625 -6.296875 C 1.40625 -6.503906 1.363281 -6.753906 1.4375 -7.046875 Z M 1.4375 -7.046875 "/></g></g></g><g fill="#ffffff" fill-opacity="1"><g transform="translate(216.607031, 266.369747)"><g><path d="M 0.234375 0 L 1.296875 -5.25 L 2.40625 -5.25 L 2.453125 -4.703125 C 2.691406 -4.929688 2.96875 -5.101562 3.28125 -5.21875 C 3.59375 -5.332031 3.921875 -5.390625 4.265625 -5.390625 C 4.722656 -5.390625 5.101562 -5.285156 5.40625 -5.078125 C 5.71875 -4.878906 5.929688 -4.597656 6.046875 -4.234375 C 6.160156 -3.867188 6.164062 -3.441406 6.0625 -2.953125 L 5.484375 0 L 3.9375 0 L 4.5 -2.875 C 4.582031 -3.269531 4.554688 -3.570312 4.421875 -3.78125 C 4.296875 -3.988281 4.078125 -4.09375 3.765625 -4.09375 C 3.410156 -4.09375 3.101562 -3.96875 2.84375 -3.71875 C 2.582031 -3.46875 2.410156 -3.140625 2.328125 -2.734375 L 1.796875 0 Z M 0.234375 0 "/></g></g></g><g fill="#ffffff" fill-opacity="1"><g transform="translate(223.264402, 266.369747)"><g><path d="M 2.453125 2.21875 C 1.941406 2.21875 1.5 2.132812 1.125 1.96875 C 0.757812 1.8125 0.484375 1.582031 0.296875 1.28125 C 0.117188 0.988281 0.046875 0.644531 0.078125 0.25 L 1.5625 0.25 C 1.570312 0.476562 1.660156 0.65625 1.828125 0.78125 C 2.003906 0.914062 2.242188 0.984375 2.546875 0.984375 C 2.953125 0.984375 3.285156 0.875 3.546875 0.65625 C 3.804688 0.4375 3.976562 0.113281 4.0625 -0.3125 L 4.125 -0.578125 C 3.644531 -0.296875 3.109375 -0.15625 2.515625 -0.15625 C 2.003906 -0.15625 1.570312 -0.269531 1.21875 -0.5 C 0.875 -0.726562 0.628906 -1.050781 0.484375 -1.46875 C 0.347656 -1.882812 0.332031 -2.359375 0.4375 -2.890625 C 0.539062 -3.390625 0.734375 -3.828125 1.015625 -4.203125 C 1.296875 -4.578125 1.640625 -4.867188 2.046875 -5.078125 C 2.453125 -5.285156 2.898438 -5.390625 3.390625 -5.390625 C 3.785156 -5.390625 4.132812 -5.320312 4.4375 -5.1875 C 4.738281 -5.050781 4.984375 -4.863281 5.171875 -4.625 L 5.46875 -5.25 L 6.625 -5.25 L 5.625 -0.234375 C 5.46875 0.546875 5.109375 1.148438 4.546875 1.578125 C 3.984375 2.003906 3.285156 2.21875 2.453125 2.21875 Z M 1.9375 -2.75 C 1.851562 -2.351562 1.910156 -2.03125 2.109375 -1.78125 C 2.316406 -1.53125 2.613281 -1.40625 3 -1.40625 C 3.269531 -1.40625 3.519531 -1.460938 3.75 -1.578125 C 3.976562 -1.703125 4.171875 -1.867188 4.328125 -2.078125 C 4.492188 -2.285156 4.601562 -2.523438 4.65625 -2.796875 C 4.726562 -3.191406 4.664062 -3.507812 4.46875 -3.75 C 4.28125 -4 3.988281 -4.125 3.59375 -4.125 C 3.320312 -4.125 3.066406 -4.0625 2.828125 -3.9375 C 2.597656 -3.820312 2.40625 -3.660156 2.25 -3.453125 C 2.09375 -3.253906 1.988281 -3.019531 1.9375 -2.75 Z M 1.9375 -2.75 "/></g></g></g><g fill="#ffffff" fill-opacity="1"><g transform="translate(230.121702, 266.369747)"><g/></g></g><g fill="#ffffff" fill-opacity="1"><g transform="translate(232.470773, 266.369747)"><g><path d="M 3.671875 0.140625 C 2.929688 0.140625 2.304688 -0.0195312 1.796875 -0.34375 C 1.296875 -0.664062 0.9375 -1.109375 0.71875 -1.671875 C 0.507812 -2.242188 0.476562 -2.894531 0.625 -3.625 C 0.769531 -4.320312 1.035156 -4.9375 1.421875 -5.46875 C 1.816406 -6 2.300781 -6.410156 2.875 -6.703125 C 3.457031 -6.992188 4.09375 -7.140625 4.78125 -7.140625 C 5.382812 -7.140625 5.921875 -7.023438 6.390625 -6.796875 C 6.859375 -6.566406 7.226562 -6.242188 7.5 -5.828125 C 7.78125 -5.410156 7.929688 -4.925781 7.953125 -4.375 L 6.34375 -4.375 C 6.289062 -4.757812 6.117188 -5.0625 5.828125 -5.28125 C 5.535156 -5.507812 5.171875 -5.625 4.734375 -5.625 C 4.328125 -5.625 3.945312 -5.53125 3.59375 -5.34375 C 3.238281 -5.15625 2.941406 -4.898438 2.703125 -4.578125 C 2.472656 -4.253906 2.316406 -3.878906 2.234375 -3.453125 C 2.148438 -3.046875 2.160156 -2.6875 2.265625 -2.375 C 2.367188 -2.0625 2.550781 -1.816406 2.8125 -1.640625 C 3.070312 -1.460938 3.398438 -1.375 3.796875 -1.375 C 4.253906 -1.375 4.679688 -1.488281 5.078125 -1.71875 C 5.484375 -1.945312 5.800781 -2.269531 6.03125 -2.6875 L 7.6875 -2.6875 C 7.457031 -2.09375 7.140625 -1.582031 6.734375 -1.15625 C 6.328125 -0.738281 5.863281 -0.414062 5.34375 -0.1875 C 4.820312 0.03125 4.265625 0.140625 3.671875 0.140625 Z M 3.671875 0.140625 "/></g></g></g><g fill="#ffffff" fill-opacity="1"><g transform="translate(240.537587, 266.369747)"><g><path d="M 2.9375 0.140625 C 2.332031 0.140625 1.820312 0.0195312 1.40625 -0.21875 C 0.988281 -0.46875 0.691406 -0.8125 0.515625 -1.25 C 0.335938 -1.6875 0.300781 -2.1875 0.40625 -2.75 C 0.507812 -3.28125 0.71875 -3.742188 1.03125 -4.140625 C 1.34375 -4.535156 1.734375 -4.84375 2.203125 -5.0625 C 2.671875 -5.28125 3.179688 -5.390625 3.734375 -5.390625 C 4.335938 -5.390625 4.847656 -5.265625 5.265625 -5.015625 C 5.679688 -4.773438 5.976562 -4.4375 6.15625 -4 C 6.34375 -3.5625 6.378906 -3.066406 6.265625 -2.515625 C 6.160156 -1.984375 5.953125 -1.515625 5.640625 -1.109375 C 5.328125 -0.710938 4.9375 -0.40625 4.46875 -0.1875 C 4 0.03125 3.488281 0.140625 2.9375 0.140625 Z M 1.90625 -2.59375 C 1.820312 -2.1875 1.882812 -1.847656 2.09375 -1.578125 C 2.300781 -1.304688 2.609375 -1.171875 3.015625 -1.171875 C 3.304688 -1.171875 3.570312 -1.234375 3.8125 -1.359375 C 4.0625 -1.492188 4.269531 -1.671875 4.4375 -1.890625 C 4.601562 -2.117188 4.710938 -2.375 4.765625 -2.65625 C 4.847656 -3.070312 4.785156 -3.414062 4.578125 -3.6875 C 4.367188 -3.957031 4.0625 -4.09375 3.65625 -4.09375 C 3.375 -4.09375 3.109375 -4.023438 2.859375 -3.890625 C 2.609375 -3.765625 2.398438 -3.585938 2.234375 -3.359375 C 2.066406 -3.140625 1.957031 -2.882812 1.90625 -2.59375 Z M 1.90625 -2.59375 "/></g></g></g><g fill="#ffffff" fill-opacity="1"><g transform="translate(247.20496, 266.369747)"><g><path d="M 0.234375 0 L 1.296875 -5.25 L 2.421875 -5.25 L 2.453125 -4.75 C 2.921875 -5.175781 3.476562 -5.390625 4.125 -5.390625 C 4.5 -5.390625 4.820312 -5.316406 5.09375 -5.171875 C 5.375 -5.023438 5.585938 -4.816406 5.734375 -4.546875 C 5.992188 -4.816406 6.296875 -5.023438 6.640625 -5.171875 C 6.984375 -5.316406 7.347656 -5.390625 7.734375 -5.390625 C 8.203125 -5.390625 8.585938 -5.289062 8.890625 -5.09375 C 9.203125 -4.894531 9.421875 -4.613281 9.546875 -4.25 C 9.671875 -3.894531 9.679688 -3.472656 9.578125 -2.984375 L 8.984375 0 L 7.421875 0 L 8.015625 -2.90625 C 8.085938 -3.269531 8.054688 -3.554688 7.921875 -3.765625 C 7.796875 -3.984375 7.570312 -4.09375 7.25 -4.09375 C 6.90625 -4.09375 6.617188 -3.976562 6.390625 -3.75 C 6.171875 -3.519531 6.019531 -3.207031 5.9375 -2.8125 L 5.375 0 L 3.84375 0 L 4.421875 -2.90625 C 4.492188 -3.269531 4.460938 -3.554688 4.328125 -3.765625 C 4.203125 -3.984375 3.984375 -4.09375 3.671875 -4.09375 C 3.328125 -4.09375 3.039062 -3.976562 2.8125 -3.75 C 2.582031 -3.519531 2.425781 -3.207031 2.34375 -2.8125 L 1.796875 0 Z M 0.234375 0 "/></g></g></g><g fill="#ffffff" fill-opacity="1"><g transform="translate(257.36095, 266.369747)"><g><path d="M 3.546875 0.140625 C 3.203125 0.140625 2.882812 0.0859375 2.59375 -0.015625 C 2.3125 -0.128906 2.070312 -0.285156 1.875 -0.484375 L 1.390625 2 L -0.15625 2 L 1.296875 -5.25 L 2.390625 -5.25 L 2.4375 -4.71875 C 2.6875 -4.9375 2.972656 -5.101562 3.296875 -5.21875 C 3.628906 -5.332031 3.984375 -5.390625 4.359375 -5.390625 C 4.910156 -5.390625 5.375 -5.265625 5.75 -5.015625 C 6.125 -4.773438 6.390625 -4.4375 6.546875 -4 C 6.710938 -3.5625 6.738281 -3.054688 6.625 -2.484375 C 6.53125 -1.960938 6.335938 -1.503906 6.046875 -1.109375 C 5.753906 -0.722656 5.394531 -0.414062 4.96875 -0.1875 C 4.539062 0.03125 4.066406 0.140625 3.546875 0.140625 Z M 2.265625 -2.59375 C 2.191406 -2.1875 2.257812 -1.847656 2.46875 -1.578125 C 2.675781 -1.304688 2.984375 -1.171875 3.390625 -1.171875 C 3.671875 -1.171875 3.929688 -1.234375 4.171875 -1.359375 C 4.421875 -1.484375 4.628906 -1.65625 4.796875 -1.875 C 4.960938 -2.101562 5.070312 -2.363281 5.125 -2.65625 C 5.207031 -3.070312 5.144531 -3.414062 4.9375 -3.6875 C 4.726562 -3.957031 4.421875 -4.09375 4.015625 -4.09375 C 3.734375 -4.09375 3.46875 -4.023438 3.21875 -3.890625 C 2.976562 -3.765625 2.773438 -3.585938 2.609375 -3.359375 C 2.441406 -3.140625 2.328125 -2.882812 2.265625 -2.59375 Z M 2.265625 -2.59375 "/></g></g></g><g fill="#ffffff" fill-opacity="1"><g transform="translate(264.398173, 266.369747)"><g><path d="M 2.0625 0.09375 C 1.414062 0.09375 0.929688 -0.0625 0.609375 -0.375 C 0.296875 -0.6875 0.191406 -1.109375 0.296875 -1.640625 C 0.390625 -2.109375 0.613281 -2.472656 0.96875 -2.734375 C 1.332031 -2.992188 1.789062 -3.125 2.34375 -3.125 L 4.28125 -3.125 L 4.328125 -3.375 C 4.378906 -3.644531 4.332031 -3.851562 4.1875 -4 C 4.039062 -4.15625 3.820312 -4.234375 3.53125 -4.234375 C 3.28125 -4.234375 3.054688 -4.175781 2.859375 -4.0625 C 2.660156 -3.957031 2.523438 -3.804688 2.453125 -3.609375 L 0.953125 -3.609375 C 1.128906 -4.171875 1.457031 -4.609375 1.9375 -4.921875 C 2.414062 -5.234375 2.988281 -5.390625 3.65625 -5.390625 C 4.175781 -5.390625 4.609375 -5.289062 4.953125 -5.09375 C 5.304688 -4.90625 5.550781 -4.640625 5.6875 -4.296875 C 5.832031 -3.960938 5.859375 -3.5625 5.765625 -3.09375 L 5.15625 0 L 4.03125 0 L 3.984375 -0.5625 C 3.460938 -0.125 2.820312 0.09375 2.0625 0.09375 Z M 1.796875 -1.59375 C 1.753906 -1.40625 1.789062 -1.253906 1.90625 -1.140625 C 2.03125 -1.035156 2.222656 -0.984375 2.484375 -0.984375 C 2.867188 -0.984375 3.210938 -1.09375 3.515625 -1.3125 C 3.816406 -1.539062 4.007812 -1.832031 4.09375 -2.1875 L 2.703125 -2.1875 C 2.171875 -2.1875 1.867188 -1.988281 1.796875 -1.59375 Z M 1.796875 -1.59375 "/></g></g></g><g fill="#ffffff" fill-opacity="1"><g transform="translate(270.73567, 266.369747)"><g><path d="M 0.234375 0 L 1.296875 -5.25 L 2.40625 -5.25 L 2.453125 -4.703125 C 2.691406 -4.929688 2.96875 -5.101562 3.28125 -5.21875 C 3.59375 -5.332031 3.921875 -5.390625 4.265625 -5.390625 C 4.722656 -5.390625 5.101562 -5.285156 5.40625 -5.078125 C 5.71875 -4.878906 5.929688 -4.597656 6.046875 -4.234375 C 6.160156 -3.867188 6.164062 -3.441406 6.0625 -2.953125 L 5.484375 0 L 3.9375 0 L 4.5 -2.875 C 4.582031 -3.269531 4.554688 -3.570312 4.421875 -3.78125 C 4.296875 -3.988281 4.078125 -4.09375 3.765625 -4.09375 C 3.410156 -4.09375 3.101562 -3.96875 2.84375 -3.71875 C 2.582031 -3.46875 2.410156 -3.140625 2.328125 -2.734375 L 1.796875 0 Z M 0.234375 0 "/></g></g></g><g fill="#ffffff" fill-opacity="1"><g transform="translate(277.393042, 266.369747)"><g><path d="M -0.15625 2 L 0.109375 0.6875 L 0.65625 0.6875 C 0.945312 0.6875 1.164062 0.640625 1.3125 0.546875 C 1.46875 0.453125 1.628906 0.269531 1.796875 0 L 1.921875 -0.21875 L 0.609375 -5.25 L 2.203125 -5.25 L 2.65625 -3.34375 L 2.96875 -2 L 3.6875 -3.34375 L 4.765625 -5.25 L 6.515625 -5.25 L 3 0.703125 C 2.800781 1.035156 2.597656 1.296875 2.390625 1.484375 C 2.191406 1.671875 1.957031 1.800781 1.6875 1.875 C 1.414062 1.957031 1.082031 2 0.6875 2 Z M -0.15625 2 "/></g></g></g></svg>